<?xml version="1.0" encoding="UTF-8"?>
<svg version="1.1" xmlns="http://www.w3.org/2000/svg" width="509" height="339">
<path d="M0 0 C167.97 0 335.94 0 509 0 C509 111.87 509 223.74 509 339 C341.03 339 173.06 339 0 339 C0 227.13 0 115.26 0 0 Z " fill="#FEFEFE" transform="translate(0,0)"/>
<path d="M0 0 C1.31331299 0.00644531 2.62662598 0.01289062 3.97973633 0.01953125 C14.49250911 0.21647973 23.49592422 1.66347169 33.25 5.5 C34.02875488 5.79471191 34.80750977 6.08942383 35.60986328 6.39306641 C46.39102882 10.51395317 56.4056522 15.48400968 66.25 21.5 C67.20132813 22.02980469 68.15265625 22.55960938 69.1328125 23.10546875 C69.83148438 23.56566406 70.53015625 24.02585937 71.25 24.5 C71.25 25.16 71.25 25.82 71.25 26.5 C71.97316406 26.74878906 72.69632813 26.99757813 73.44140625 27.25390625 C76.52822161 28.62343907 78.61972741 30.24955201 81.1875 32.4375 C82.14140625 33.23414063 83.0953125 34.03078125 84.078125 34.8515625 C84.84286133 35.49206543 84.84286133 35.49206543 85.62304688 36.14550781 C98.0343866 47.80439503 98.0343866 47.80439503 113.375 52.5 C117.32887504 51.74907024 119.93298158 49.75557253 123.25 47.5 C126.53805671 46.32144955 129.87128362 45.38140427 133.25 44.5 C132.96517632 43.08194169 132.67181856 41.66559621 132.375 40.25 C132.21257812 39.46109375 132.05015625 38.6721875 131.8828125 37.859375 C131.33651632 35.48059397 131.33651632 35.48059397 130.15625 33.40625 C128.82032439 30.59619958 129.5788566 28.45303094 130.25 25.5 C131.9 25.17 133.55 24.84 135.25 24.5 C135.25 23.84 135.25 23.18 135.25 22.5 C136.24 22.5 137.23 22.5 138.25 22.5 C138.25 23.16 138.25 23.82 138.25 24.5 C139.405 24.149375 140.56 23.79875 141.75 23.4375 C143.98046875 23.15625 143.98046875 23.15625 146.25 23.5 C148.50396552 25.43850179 150.18930822 27.59745413 152.03515625 29.92578125 C155.7274228 34.21714572 160.2444654 37.84178132 165.25 40.5 C168.08881216 40.24662697 169.62676081 39.29959531 172.1875 37.9375 C175.24084508 36.50429721 176.942864 36.20819388 180.25 36.5 C180.25 34.85 180.25 33.2 180.25 31.5 C179.26 31.17 178.27 30.84 177.25 30.5 C175.80657253 27.61314507 175.9383965 24.90033313 175.75 21.6875 C175.50464577 17.52962199 175.1788832 13.56386398 174.25 9.5 C179.85148017 7.87047849 185.40573211 6.43428056 191.25 7.5 C193.875 9.375 193.875 9.375 195.25 12.5 C195.53892935 18.48781171 194.28288417 23.31882288 191.25 28.5 C189.91666667 31.5 189.91666667 31.5 191.25 34.5 C193.19271607 35.56718708 195.18049403 36.33430854 197.2421875 37.14453125 C200.33238827 39.23071737 201.01057308 40.95280577 202.25 44.5 C202.68284119 48.66390172 202.71047291 52.81627734 202.75 57 C202.9422255 65.92372227 203.4687514 74.61123405 204.8125 83.4375 C206.19831359 92.63448632 206.72032125 101.24323738 205.7421875 110.51953125 C205.1539524 116.85211653 205.10238103 123.14406858 205.125 129.5 C205.12113281 130.61761719 205.11726563 131.73523438 205.11328125 132.88671875 C205.11457031 133.95535156 205.11585938 135.02398437 205.1171875 136.125 C205.11831543 137.08664063 205.11944336 138.04828125 205.12060547 139.0390625 C205.14779157 141.63667338 205.14779157 141.63667338 206.25 144.5 C206.48677219 147.95329254 206.44031552 151.41443869 206.4375 154.875 C206.4362915 156.41353638 206.4362915 156.41353638 206.43505859 157.9831543 C206.35465517 168.24089655 205.41255083 178.31691585 204.25 188.5 C203.59 194.44 202.93 200.38 202.25 206.5 C224.36 206.5 246.47 206.5 269.25 206.5 C269.25 206.83 269.25 207.16 269.25 207.5 C127.02 207.5 -15.21 207.5 -161.75 207.5 C-161.75 207.17 -161.75 206.84 -161.75 206.5 C-126.605 206.005 -126.605 206.005 -90.75 205.5 C-92.07 203.19 -93.39 200.88 -94.75 198.5 C-94.56347656 195.45825195 -94.56347656 195.45825195 -93.75 192.5 C-93.41132927 190.38934362 -93.07279492 188.27866536 -92.734375 186.16796875 C-86.73571576 149.43540772 -86.73571576 149.43540772 -76.75 134.5 C-79.21553646 132.03446354 -85.6420044 132.20696825 -89.13671875 131.69335938 C-90.33361328 131.50676758 -90.33361328 131.50676758 -91.5546875 131.31640625 C-92.28671387 131.20756104 -93.01874023 131.09871582 -93.77294922 130.98657227 C-95.75 130.5 -95.75 130.5 -98.75 128.5 C-99.11328125 125.63671875 -99.11328125 125.63671875 -99.0625 122.1875 C-99.05863281 121.05699219 -99.05476563 119.92648438 -99.05078125 118.76171875 C-98.65221335 114.4395863 -97.83747223 111.58747223 -94.75 108.5 C-91.90702326 108.39909187 -89.12108823 108.56945445 -86.28125 108.72265625 C-85.4459375 108.64917969 -84.610625 108.57570313 -83.75 108.5 C-82.76 107.015 -82.76 107.015 -81.75 105.5 C-81.09 105.83 -80.43 106.16 -79.75 106.5 C-80.245 107.985 -80.245 107.985 -80.75 109.5 C-78.11 109.83 -75.47 110.16 -72.75 110.5 C-73.08 109.18 -73.41 107.86 -73.75 106.5 C-73.09 106.5 -72.43 106.5 -71.75 106.5 C-71.75 104.52 -71.75 102.54 -71.75 100.5 C-72.08 100.83 -72.41 101.16 -72.75 101.5 C-75.75 101.625 -75.75 101.625 -78.75 101.5 C-81.63237009 98.61762991 -80.60960391 91.21301009 -80.69970703 87.40600586 C-80.469445 77.00433241 -77.3855018 68.13079009 -73.625 58.5625 C-73.33977478 57.83016144 -73.05454956 57.09782288 -72.76068115 56.34329224 C-69.80521166 48.85148897 -66.76219459 41.72490548 -61.81469727 35.28857422 C-60.40877431 33.28289808 -60.40877431 33.28289808 -60.8125 29.5625 C-61.62036689 26.62108787 -61.62036689 26.62108787 -62.75 24.5 C-62.92252544 22.69272528 -63.01670538 20.87741317 -63.0625 19.0625 C-63.11857422 17.61037109 -63.11857422 17.61037109 -63.17578125 16.12890625 C-62.75 13.5 -62.75 13.5 -61.12109375 11.671875 C-58.09877925 10.17814461 -55.86684154 10.1992448 -52.5 10.1875 C-45.28104915 9.8355387 -39.73688071 7.90601134 -33.125 5.0703125 C-22.43595681 0.91664725 -11.36960923 -0.05895189 0 0 Z " fill="#EAF2F9" transform="translate(200.75,80.5)"/>
<path d="M0 0 C2.625 1.875 2.625 1.875 4 5 C4.28892935 10.98781171 3.03288417 15.81882288 0 21 C-1.33333333 24 -1.33333333 24 0 27 C1.94271607 28.06718708 3.93049403 28.83430854 5.9921875 29.64453125 C9.08238827 31.73071737 9.76057308 33.45280577 11 37 C11.43284119 41.16390172 11.46047291 45.31627734 11.5 49.5 C11.6922255 58.42372227 12.2187514 67.11123405 13.5625 75.9375 C14.94831359 85.13448632 15.47032125 93.74323738 14.4921875 103.01953125 C13.9039524 109.35211653 13.85238103 115.64406858 13.875 122 C13.87113281 123.11761719 13.86726563 124.23523438 13.86328125 125.38671875 C13.86457031 126.45535156 13.86585938 127.52398437 13.8671875 128.625 C13.86831543 129.58664063 13.86944336 130.54828125 13.87060547 131.5390625 C13.89779157 134.13667338 13.89779157 134.13667338 15 137 C15.23677219 140.45329254 15.19031552 143.91443869 15.1875 147.375 C15.1862915 148.91353638 15.1862915 148.91353638 15.18505859 150.4831543 C15.10465517 160.74089655 14.16255083 170.81691585 13 181 C12.34 186.94 11.68 192.88 11 199 C33.11 199 55.22 199 78 199 C78 199.33 78 199.66 78 200 C-64.23 200 -206.46 200 -353 200 C-353 199.67 -353 199.34 -353 199 C-317.855 198.505 -317.855 198.505 -282 198 C-283.32 195.69 -284.64 193.38 -286 191 C-285.81347656 187.95825195 -285.81347656 187.95825195 -285 185 C-284.66132927 182.88934362 -284.32279492 180.77866536 -283.984375 178.66796875 C-277.98571576 141.93540772 -277.98571576 141.93540772 -268 127 C-270.46553646 124.53446354 -276.8920044 124.70696825 -280.38671875 124.19335938 C-281.18464844 124.06896484 -281.98257813 123.94457031 -282.8046875 123.81640625 C-283.53671387 123.70756104 -284.26874023 123.59871582 -285.02294922 123.48657227 C-287 123 -287 123 -290 121 C-290.36328125 118.13671875 -290.36328125 118.13671875 -290.3125 114.6875 C-290.30863281 113.55699219 -290.30476563 112.42648438 -290.30078125 111.26171875 C-289.90221335 106.9395863 -289.08747223 104.08747223 -286 101 C-283.15702326 100.89909187 -280.37108823 101.06945445 -277.53125 101.22265625 C-276.6959375 101.14917969 -275.860625 101.07570313 -275 101 C-274.01 99.515 -274.01 99.515 -273 98 C-272.34 98.33 -271.68 98.66 -271 99 C-271.495 100.485 -271.495 100.485 -272 102 C-269.36 102.33 -266.72 102.66 -264 103 C-264.33 101.68 -264.66 100.36 -265 99 C-264.34 99 -263.68 99 -263 99 C-263 97.02 -263 95.04 -263 93 C-263.33 93.33 -263.66 93.66 -264 94 C-267 94.125 -267 94.125 -270 94 C-272.88237009 91.11762991 -271.85960391 83.71301009 -271.94970703 79.90600586 C-271.719445 69.50433241 -268.6355018 60.63079009 -264.875 51.0625 C-264.58977478 50.33016144 -264.30454956 49.59782288 -264.01068115 48.84329224 C-261.05521166 41.35148897 -258.01219459 34.22490548 -253.06469727 27.78857422 C-251.65877431 25.78289808 -251.65877431 25.78289808 -252.0625 22.0625 C-252.87036689 19.12108787 -252.87036689 19.12108787 -254 17 C-254.17252544 15.19272528 -254.26670538 13.37741317 -254.3125 11.5625 C-254.36857422 10.11037109 -254.36857422 10.11037109 -254.42578125 8.62890625 C-254 6 -254 6 -252.39453125 4.171875 C-249.25504912 2.63542371 -246.85873756 2.63638421 -243.375 2.6875 C-241.65410156 2.69330078 -241.65410156 2.69330078 -239.8984375 2.69921875 C-237 3 -237 3 -235 5 C-234.875 8.625 -234.875 8.625 -235 12 C-235.99 12.33 -236.98 12.66 -238 13 C-238 16.63 -238 20.26 -238 24 C-239.32 24.66 -240.64 25.32 -242 26 C-242 28.64 -242 31.28 -242 34 C-241.23945313 34.2578125 -240.47890625 34.515625 -239.6953125 34.78125 C-234.9905587 36.90861693 -233.00921267 40.33722075 -231 45 C-230.13271881 48.83204859 -229.59194849 52.70742582 -229.20068359 56.61523438 C-228.56426707 62.03699121 -227.44597305 64.48471731 -223 68 C-220.27681934 70.01301308 -217.5014891 71.92896306 -214.6875 73.8125 C-213.57665039 74.56563477 -213.57665039 74.56563477 -212.44335938 75.33398438 C-210.63215731 76.56092771 -208.81772622 77.78275266 -207 79 C-207.99 81.31 -208.98 83.62 -210 86 C-212.06266324 85.20875876 -214.12512379 84.41698909 -216.1875 83.625 C-217.91033203 82.96371094 -217.91033203 82.96371094 -219.66796875 82.2890625 C-222.45335994 81.21147857 -225.22997721 80.1163557 -228 79 C-227.99476318 79.57032959 -227.98952637 80.14065918 -227.98413086 80.72827148 C-227.96341779 83.29800323 -227.9503581 85.86771747 -227.9375 88.4375 C-227.92912109 89.33533203 -227.92074219 90.23316406 -227.91210938 91.15820312 C-227.90888672 92.01220703 -227.90566406 92.86621094 -227.90234375 93.74609375 C-227.89710693 94.53685303 -227.89187012 95.3276123 -227.88647461 96.14233398 C-228 98 -228 98 -229 99 C-229.30510928 101.83983087 -229.54934341 104.66364647 -229.75610352 107.51123047 C-229.85873505 108.85021393 -229.85873505 108.85021393 -229.96343994 110.21624756 C-230.18968659 113.18291054 -230.40935033 116.15002244 -230.62890625 119.1171875 C-230.78405114 121.17126193 -230.93956826 123.22530827 -231.09544373 125.27932739 C-231.42178419 129.59177708 -231.74515024 133.90443558 -232.06616211 138.21728516 C-232.47810986 143.7516518 -232.89497141 149.28563323 -233.31375217 154.81948662 C-233.71208126 160.08526588 -234.10815061 165.3512143 -234.50390625 170.6171875 C-234.61789859 172.13097803 -234.61789859 172.13097803 -234.7341938 173.67535019 C-234.94846263 176.5268029 -235.161149 179.37836884 -235.37329102 182.22998047 C-235.43717514 183.07789154 -235.50105927 183.92580261 -235.56687927 184.79940796 C-235.79427279 187.87378421 -236 190.91601324 -236 194 C-229.69307285 197.30818622 -224.59818744 198.59340355 -217.50390625 198.49609375 C-216.19352638 198.4982766 -216.19352638 198.4982766 -214.85667419 198.50050354 C-213.02217246 198.4988549 -211.18765538 198.48741087 -209.35327148 198.46655273 C-206.57279579 198.43760718 -203.79423371 198.44596469 -201.01367188 198.45898438 C-199.21874089 198.45274478 -197.42381584 198.44435211 -195.62890625 198.43359375 C-194.40343834 198.43799721 -194.40343834 198.43799721 -193.1532135 198.44248962 C-187.04716599 198.34458111 -181.75711122 196.99587774 -176 195 C-176.03758423 194.41691574 -176.07516846 193.83383148 -176.1138916 193.233078 C-178.55057992 155.07233797 -179.41579459 117.23393118 -179 79 C-180.42892578 79.6496875 -180.42892578 79.6496875 -181.88671875 80.3125 C-183.15343115 80.87548329 -184.42037035 81.43795648 -185.6875 82 C-186.62625977 82.42925781 -186.62625977 82.42925781 -187.58398438 82.8671875 C-191.19992767 84.45744528 -194.04190849 85.36326652 -198 85 C-198.66 83.02 -199.32 81.04 -200 79 C-199.43490723 78.62190186 -198.86981445 78.24380371 -198.28759766 77.85424805 C-195.72942521 76.1378359 -193.17718933 74.41279466 -190.625 72.6875 C-189.73554688 72.09259766 -188.84609375 71.49769531 -187.9296875 70.88476562 C-187.07890625 70.30791016 -186.228125 69.73105469 -185.3515625 69.13671875 C-184.56604004 68.60780029 -183.78051758 68.07888184 -182.97119141 67.53393555 C-178.57859404 64.1157179 -178.3833894 59.95788884 -177.625 54.8125 C-175.24255954 40.28311903 -175.24255954 40.28311903 -168.8125 35.4375 C-165.64609365 33.17760301 -165.64609365 33.17760301 -165.125 29.1875 C-165.08375 28.135625 -165.0425 27.08375 -165 26 C-165.99 26 -166.98 26 -168 26 C-169.32229189 23.35541621 -169.09677194 21.32238699 -169.0625 18.375 C-169.05347656 17.37210938 -169.04445312 16.36921875 -169.03515625 15.3359375 C-169.01775391 14.17964844 -169.01775391 14.17964844 -169 13 C-169.99 12.67 -170.98 12.34 -172 12 C-172.125 8.625 -172.125 8.625 -172 5 C-169.32848149 2.32848149 -167.90817468 2.70126328 -164.1875 2.6875 C-163.14980469 2.67074219 -162.11210937 2.65398437 -161.04296875 2.63671875 C-157.54147316 3.05474069 -155.6911749 3.71643006 -153 6 C-152.44140625 8.5234375 -152.44140625 8.5234375 -152.5625 11.375 C-152.59537109 12.77878906 -152.59537109 12.77878906 -152.62890625 14.2109375 C-153.01274052 17.09575503 -153.88030475 19.32891975 -155 22 C-155 27.24144226 -152.55798404 30.48244891 -149.5703125 34.55859375 C-148.04591234 36.92861887 -147.03127601 39.29802007 -145.96435547 41.89624023 C-143.3586236 47.58069378 -139.92171948 52.91196921 -136.73828125 58.28710938 C-131.80828965 66.81024131 -128.81238389 74.70996676 -128.25 84.5625 C-128.17265625 85.76003906 -128.0953125 86.95757812 -128.015625 88.19140625 C-128.00789063 89.58166016 -128.00789063 89.58166016 -128 91 C-129 92 -129 92 -132.5625 92.0625 C-133.696875 92.041875 -134.83125 92.02125 -136 92 C-136.31022095 91.05362671 -136.31022095 91.05362671 -136.62670898 90.08813477 C-137.56053426 87.24522551 -138.49895326 84.40385384 -139.4375 81.5625 C-139.76298828 80.56927734 -140.08847656 79.57605469 -140.42382812 78.55273438 C-140.73642578 77.60849609 -141.04902344 76.66425781 -141.37109375 75.69140625 C-141.65911865 74.81685791 -141.94714355 73.94230957 -142.24389648 73.04125977 C-142.82533284 71.03551105 -142.82533284 71.03551105 -144 70 C-144.02902996 74.24998566 -144.04680887 78.49994581 -144.0625 82.75 C-144.07087891 83.9565625 -144.07925781 85.163125 -144.08789062 86.40625 C-144.09111328 87.56640625 -144.09433594 88.7265625 -144.09765625 89.921875 C-144.10289307 90.99018555 -144.10812988 92.05849609 -144.11352539 93.15917969 C-144.01382657 95.65400857 -143.6225717 97.60747239 -143 100 C-142.90960572 101.65046316 -142.86936508 103.30409597 -142.8671875 104.95703125 C-142.86589844 105.90513672 -142.86460937 106.85324219 -142.86328125 107.83007812 C-142.86714844 108.81427734 -142.87101563 109.79847656 -142.875 110.8125 C-142.87113281 111.78509766 -142.86726562 112.75769531 -142.86328125 113.75976562 C-142.86865627 117.72922113 -142.93280118 121.53066649 -143.49609375 125.46484375 C-144.22251991 130.56108932 -144.18430277 135.60886029 -144.1875 140.75 C-144.19974609 141.7709375 -144.21199219 142.791875 -144.22460938 143.84375 C-144.23407948 148.81871258 -144.01111062 153.46264247 -143 158.33984375 C-141.62428498 165.15039908 -141.74541376 171.8884937 -141.8125 178.8125 C-141.8134668 180.73739258 -141.8134668 180.73739258 -141.81445312 182.70117188 C-141.84055295 188.27783439 -142.0367276 193.5020748 -143 199 C-128.16115215 198.96276062 -113.32253975 198.90279342 -98.4838953 198.81609726 C-91.59334508 198.77636297 -84.70290814 198.74394216 -77.81225586 198.72900391 C-71.1596269 198.7145608 -64.50731337 198.67938547 -57.85482597 198.63169098 C-55.31961562 198.61687931 -52.78435512 198.60895911 -50.24910164 198.60811615 C-46.69181207 198.60574425 -43.13549122 198.57864394 -39.57836914 198.54589844 C-38.53539169 198.5509288 -37.49241425 198.55595917 -36.41783142 198.56114197 C-30.07562377 198.47110323 -22.76326154 197.76326154 -18 193 C-17.65903218 188.21892567 -17.70488429 183.41696887 -17.6875 178.625 C-17.68388458 177.86988129 -17.68026917 177.11476257 -17.67654419 176.33676147 C-17.64462814 159.29073004 -18.7689988 142.30928255 -19.9375 125.3125 C-20.00609537 124.30340954 -20.00609537 124.30340954 -20.07607651 123.27393341 C-20.38287395 118.76128527 -20.70138769 114.2495948 -21.02734375 109.73828125 C-21.10970276 108.56698166 -21.19206177 107.39568207 -21.2769165 106.18888855 C-21.3568988 105.12277847 -21.4368811 104.0566684 -21.51928711 102.95825195 C-21.62254555 101.55226494 -21.62254555 101.55226494 -21.72789001 100.11787415 C-21.77839119 98.01786499 -21.77839119 98.01786499 -23 97 C-23.24997213 94.30585598 -23.43061042 91.63839285 -23.5625 88.9375 C-23.6049585 88.11145264 -23.64741699 87.28540527 -23.69116211 86.43432617 C-24.18681455 75.62870403 -24.09024269 64.81385128 -24 54 C-25.16917969 54.3609375 -26.33835937 54.721875 -27.54296875 55.09375 C-29.09103636 55.5628614 -30.6392196 56.03159137 -32.1875 56.5 C-32.95642578 56.73847656 -33.72535156 56.97695312 -34.51757812 57.22265625 C-42.43140851 59.60020186 -42.43140851 59.60020186 -46 59 C-53.92048877 52.5265236 -57.02230712 39.86508967 -59.32421875 30.375 C-59.91759091 27.98275771 -59.91759091 27.98275771 -61.10546875 25.890625 C-62.43010196 23.09096353 -61.66794927 20.93897679 -61 18 C-59.35 17.67 -57.7 17.34 -56 17 C-56 16.34 -56 15.68 -56 15 C-55.01 15 -54.02 15 -53 15 C-53 15.66 -53 16.32 -53 17 C-51.845 16.649375 -50.69 16.29875 -49.5 15.9375 C-47.26953125 15.65625 -47.26953125 15.65625 -45 16 C-42.74603448 17.93850179 -41.06069178 20.09745413 -39.21484375 22.42578125 C-35.5225772 26.71714572 -31.0055346 30.34178132 -26 33 C-23.16118784 32.74662697 -21.62323919 31.79959531 -19.0625 30.4375 C-16.00915492 29.00429721 -14.307136 28.70819388 -11 29 C-11 27.35 -11 25.7 -11 24 C-11.99 23.67 -12.98 23.34 -14 23 C-15.44342747 20.11314507 -15.3116035 17.40033313 -15.5 14.1875 C-15.74535423 10.02962199 -16.0711168 6.06386398 -17 2 C-11.39851983 0.37047849 -5.84426789 -1.06571944 0 0 Z " fill="#2A478A" transform="translate(392,88)"/>
<path d="M0 0 C1.30243652 0.00209473 2.60487305 0.00418945 3.94677734 0.00634766 C15.05856487 0.18692627 27.56439806 1.39282242 37.25 7.5 C38 10.125 38 10.125 38.25 12.5 C37.55390625 12.33757812 36.8578125 12.17515625 36.140625 12.0078125 C33.03898764 11.46293026 30.14737565 11.36724784 27 11.375 C25.94296875 11.37242188 24.8859375 11.36984375 23.796875 11.3671875 C21.31517749 11.21171462 21.31517749 11.21171462 20.25 12.5 C20.20907063 14.83297433 20.20758277 17.16705225 20.25 19.5 C20.91 19.83 21.57 20.16 22.25 20.5 C22.6640625 23.44140625 22.6640625 23.44140625 22.875 27.0625 C22.98714844 28.85880859 22.98714844 28.85880859 23.1015625 30.69140625 C23.15054688 31.61824219 23.19953125 32.54507813 23.25 33.5 C24.24 33.5 25.23 33.5 26.25 33.5 C26.625 36.6875 26.625 36.6875 26.25 40.5 C24.81912202 41.76827821 23.37596639 43.02943079 21.83984375 44.16796875 C15.93596258 49.11446378 15.37913223 57.27263954 14.46411133 64.42089844 C13.77968354 69.2080936 12.86478642 72.0463824 9.25 75.5 C6.41949185 77.58288794 3.48441155 79.4589973 0.5 81.3125 C-0.29277344 81.81458984 -1.08554688 82.31667969 -1.90234375 82.83398438 C-3.8467745 84.06389539 -5.79589742 85.28553735 -7.75 86.5 C-7.42 88.48 -7.09 90.46 -6.75 92.5 C-1.1001664 90.92563925 4.01412361 89.18179034 9.25 86.5 C10.24 86.5 11.23 86.5 12.25 86.5 C12.26213028 87.47216713 12.26213028 87.47216713 12.27450562 88.463974 C12.74398176 128.65283509 12.74398176 128.65283509 14.25 168.8125 C14.29179382 169.62878876 14.33358765 170.44507751 14.37664795 171.28610229 C14.49741678 173.60371234 14.62244981 175.92103521 14.75 178.23828125 C14.8074791 179.30008858 14.8074791 179.30008858 14.86611938 180.38334656 C15.06013089 183.79587122 15.30422953 187.19359936 15.640625 190.59521484 C15.75921875 191.85672363 15.8778125 193.11823242 16 194.41796875 C16.11859375 195.52293701 16.2371875 196.62790527 16.359375 197.76635742 C16.25 200.5 16.25 200.5 14.96817017 202.06721497 C9.45930327 206.66106847 2.68251794 206.96708059 -4.1484375 206.96875 C-5.02343903 206.97636353 -5.89844055 206.98397705 -6.79995728 206.99182129 C-8.64037237 207.00256584 -10.48084816 207.00549853 -12.32128906 207.00097656 C-15.1110783 207.00000485 -17.89810714 207.04167704 -20.6875 207.0859375 C-22.48697351 207.09114634 -24.28645645 207.09383266 -26.0859375 207.09375 C-27.31611099 207.1183429 -27.31611099 207.1183429 -28.57113647 207.14343262 C-35.23469832 207.06536479 -40.0354839 204.81807568 -45.75 201.5 C-44.98525942 191.03302572 -44.22024882 180.56607121 -43.4549036 170.09914112 C-43.09944433 165.23773444 -42.74407435 160.37632126 -42.38891602 155.51489258 C-42.04548405 150.81402208 -41.70180764 146.11316951 -41.35796928 141.41232872 C-41.22752811 139.62841095 -41.09717162 137.84448698 -40.96690559 136.06055641 C-40.66944306 131.98728817 -40.37075476 127.91412446 -40.06838989 123.84121704 C-39.8613117 121.04586174 -39.66369303 118.25013546 -39.47531128 115.45346069 C-39.35109299 113.67571762 -39.35109299 113.67571762 -39.22436523 111.86206055 C-39.15587875 110.84041306 -39.08739227 109.81876556 -39.01683044 108.76615906 C-38.75 106.5 -38.75 106.5 -37.75 105.5 C-37.59379445 104.08672053 -37.49943827 102.6664541 -37.43359375 101.24609375 C-37.39169922 100.39208984 -37.34980469 99.53808594 -37.30664062 98.65820312 C-37.26732422 97.76037109 -37.22800781 96.86253906 -37.1875 95.9375 C-37.14431641 95.03580078 -37.10113281 94.13410156 -37.05664062 93.20507812 C-36.95021858 90.97021515 -36.84820012 88.73523692 -36.75 86.5 C-32.57423832 87.18416434 -28.86919593 88.51365009 -24.9375 90.0625 C-23.77605469 90.51753906 -22.61460937 90.97257812 -21.41796875 91.44140625 C-20.09732422 91.96541016 -20.09732422 91.96541016 -18.75 92.5 C-18.09 90.52 -17.43 88.54 -16.75 86.5 C-17.27956299 86.15743164 -17.80912598 85.81486328 -18.35473633 85.46191406 C-20.76219631 83.89863521 -23.16234651 82.3244714 -25.5625 80.75 C-26.39587891 80.21117187 -27.22925781 79.67234375 -28.08789062 79.1171875 C-28.89033203 78.58867187 -29.69277344 78.06015625 -30.51953125 77.515625 C-31.25792236 77.03383789 -31.99631348 76.55205078 -32.75708008 76.05566406 C-35.48251577 73.92820158 -37.37190477 71.92570087 -38.27075195 68.53637695 C-38.34253662 67.86050537 -38.41432129 67.18463379 -38.48828125 66.48828125 C-38.58294678 65.73417969 -38.6776123 64.98007813 -38.77514648 64.203125 C-38.86997314 63.41421875 -38.9647998 62.6253125 -39.0625 61.8125 C-40.07238244 54.72560565 -41.37236522 48.65411451 -46.75 43.5 C-48.8447112 42.28738303 -48.8447112 42.28738303 -50.75 41.5 C-51.04296875 35.4453125 -51.04296875 35.4453125 -50.75 33.5 C-49.76 32.84 -48.77 32.18 -47.75 31.5 C-47.24140984 28.87472973 -47.24140984 28.87472973 -47.1875 25.9375 C-47.05859375 22.93359375 -47.05859375 22.93359375 -46.75 20.5 C-46.09 20.17 -45.43 19.84 -44.75 19.5 C-44.75 18.406875 -44.75 17.31375 -44.75 16.1875 C-44.75 13.95833333 -44.75 11.72916667 -44.75 9.5 C-42.37975789 8.54882492 -40.00473437 7.61441311 -37.625 6.6875 C-36.97917969 6.42646484 -36.33335937 6.16542969 -35.66796875 5.89648438 C-24.06647585 1.42162283 -12.37401883 -0.05940557 0 0 Z " fill="#EAF2F9" transform="translate(200.75,80.5)"/>
<path d="M0 0 C1.72089844 0.00580078 1.72089844 0.00580078 3.4765625 0.01171875 C6.375 0.3125 6.375 0.3125 8.375 2.3125 C8.5 5.9375 8.5 5.9375 8.375 9.3125 C7.385 9.6425 6.395 9.9725 5.375 10.3125 C5.375 13.9425 5.375 17.5725 5.375 21.3125 C3.395 22.3025 3.395 22.3025 1.375 23.3125 C1.375 25.9525 1.375 28.5925 1.375 31.3125 C2.13554687 31.5703125 2.89609375 31.828125 3.6796875 32.09375 C8.3844413 34.22111693 10.36578733 37.64972075 12.375 42.3125 C13.24228119 46.14454859 13.78305151 50.01992582 14.17431641 53.92773438 C14.81073293 59.34949121 15.92902695 61.79721731 20.375 65.3125 C23.09818066 67.32551308 25.8735109 69.24146306 28.6875 71.125 C29.79834961 71.87813477 29.79834961 71.87813477 30.93164062 72.64648438 C32.74284269 73.87342771 34.55727378 75.09525266 36.375 76.3125 C35.385 78.6225 34.395 80.9325 33.375 83.3125 C31.31233676 82.52125876 29.24987621 81.72948909 27.1875 80.9375 C26.03894531 80.49664062 24.89039063 80.05578125 23.70703125 79.6015625 C20.92164006 78.52397857 18.14502279 77.4288557 15.375 76.3125 C15.38023682 76.88282959 15.38547363 77.45315918 15.39086914 78.04077148 C15.41158221 80.61050323 15.4246419 83.18021747 15.4375 85.75 C15.44587891 86.64783203 15.45425781 87.54566406 15.46289062 88.47070312 C15.46611328 89.32470703 15.46933594 90.17871094 15.47265625 91.05859375 C15.47789307 91.84935303 15.48312988 92.6401123 15.48852539 93.45483398 C15.375 95.3125 15.375 95.3125 14.375 96.3125 C14.08582253 99.15789578 13.85749353 101.98702349 13.66650391 104.83959961 C13.57110069 106.18099251 13.57110069 106.18099251 13.47377014 107.54948425 C13.33550463 109.49789893 13.19920113 111.44645358 13.06459427 113.39512444 C12.85084153 116.47523263 12.62988797 119.55474081 12.40658569 122.63417053 C11.77206257 131.39196131 11.1445939 140.15020084 10.53710938 148.90991211 C10.16548009 154.2611721 9.78018644 159.61129823 9.38596725 164.96093941 C9.2380618 167.00477998 9.09540172 169.04900692 8.95799637 171.09358025 C8.76565371 173.94882236 8.55601306 176.80229657 8.34228516 179.65600586 C8.26263771 180.93326538 8.26263771 180.93326538 8.18138123 182.23632812 C7.99478149 184.58604431 7.99478149 184.58604431 7.375 188.3125 C3.9397952 190.60263653 2.389669 190.49092973 -1.625 190.3125 C-1.625 192.2925 -1.625 194.2725 -1.625 196.3125 C-6.02061039 196.42879782 -10.41582429 196.49978634 -14.8125 196.5625 C-16.05837891 196.59601563 -17.30425781 196.62953125 -18.58789062 196.6640625 C-19.78994141 196.67695313 -20.99199219 196.68984375 -22.23046875 196.703125 C-23.33543701 196.72407227 -24.44040527 196.74501953 -25.57885742 196.76660156 C-29.31852677 196.20911298 -30.96397733 194.94669293 -33.625 192.3125 C-34.27016342 189.48410356 -33.86977546 187.24980557 -33.625 184.3125 C-34.40875 184.003125 -35.1925 183.69375 -36 183.375 C-38.625 182.3125 -38.625 182.3125 -40.625 181.3125 C-38.91608705 161.62019724 -36.00782994 140.93690799 -24.625 124.3125 C-27.09053646 121.84696354 -33.5170044 122.01946825 -37.01171875 121.50585938 C-37.80964844 121.38146484 -38.60757813 121.25707031 -39.4296875 121.12890625 C-40.16171387 121.02006104 -40.89374023 120.91121582 -41.64794922 120.79907227 C-43.625 120.3125 -43.625 120.3125 -46.625 118.3125 C-46.98828125 115.44921875 -46.98828125 115.44921875 -46.9375 112 C-46.93363281 110.86949219 -46.92976563 109.73898438 -46.92578125 108.57421875 C-46.52721335 104.2520863 -45.71247223 101.39997223 -42.625 98.3125 C-39.78202326 98.21159187 -36.99608823 98.38195445 -34.15625 98.53515625 C-33.3209375 98.46167969 -32.485625 98.38820313 -31.625 98.3125 C-30.965 97.3225 -30.305 96.3325 -29.625 95.3125 C-28.965 95.6425 -28.305 95.9725 -27.625 96.3125 C-27.955 97.3025 -28.285 98.2925 -28.625 99.3125 C-25.985 99.6425 -23.345 99.9725 -20.625 100.3125 C-20.955 98.9925 -21.285 97.6725 -21.625 96.3125 C-20.965 96.3125 -20.305 96.3125 -19.625 96.3125 C-19.625 94.3325 -19.625 92.3525 -19.625 90.3125 C-19.955 90.6425 -20.285 90.9725 -20.625 91.3125 C-23.625 91.4375 -23.625 91.4375 -26.625 91.3125 C-29.50737009 88.43012991 -28.48460391 81.02551009 -28.57470703 77.21850586 C-28.344445 66.81683241 -25.2605018 57.94329009 -21.5 48.375 C-21.21477478 47.64266144 -20.92954956 46.91032288 -20.63568115 46.15579224 C-17.68021166 38.66398897 -14.63719459 31.53740548 -9.68969727 25.10107422 C-8.28377431 23.09539808 -8.28377431 23.09539808 -8.6875 19.375 C-9.49536689 16.43358787 -9.49536689 16.43358787 -10.625 14.3125 C-10.79752544 12.50522528 -10.89170538 10.68991317 -10.9375 8.875 C-10.99357422 7.42287109 -10.99357422 7.42287109 -11.05078125 5.94140625 C-10.625 3.3125 -10.625 3.3125 -9.01953125 1.484375 C-5.88004912 -0.05207629 -3.48373756 -0.05111579 0 0 Z " fill="#F99645" transform="translate(148.625,90.6875)"/>
<path d="M0 0 C2.625 1.875 2.625 1.875 4 5 C4.28892935 10.98781171 3.03288417 15.81882288 0 21 C-1.33333333 24 -1.33333333 24 0 27 C1.94271607 28.06718708 3.93049403 28.83430854 5.9921875 29.64453125 C9.08238827 31.73071737 9.76057308 33.45280577 11 37 C11.43284119 41.16390172 11.46047291 45.31627734 11.5 49.5 C11.71256 59.36771491 12.48748715 68.90346532 13.9777832 78.65478516 C14.95441793 85.17343926 15.37596357 91.39975064 15 98 C10.74460844 100.12769578 5.08661911 99.18585424 0.36132812 99.18530273 C-1.72807551 99.18747718 -3.81694066 99.20560219 -5.90625 99.22460938 C-7.24478987 99.22754591 -8.58333224 99.22952897 -9.921875 99.23046875 C-11.13456055 99.23457764 -12.34724609 99.23868652 -13.59667969 99.24291992 C-17.04750106 98.9966095 -19.78363039 98.23945056 -23 97 C-23.94730645 82.65507373 -24.11995 68.37370111 -24 54 C-25.75376953 54.54140625 -25.75376953 54.54140625 -27.54296875 55.09375 C-29.09103636 55.5628614 -30.6392196 56.03159137 -32.1875 56.5 C-32.95642578 56.73847656 -33.72535156 56.97695312 -34.51757812 57.22265625 C-42.43140851 59.60020186 -42.43140851 59.60020186 -46 59 C-53.92048877 52.5265236 -57.02230712 39.86508967 -59.32421875 30.375 C-59.91759091 27.98275771 -59.91759091 27.98275771 -61.10546875 25.890625 C-62.43010196 23.09096353 -61.66794927 20.93897679 -61 18 C-59.35 17.67 -57.7 17.34 -56 17 C-56 16.34 -56 15.68 -56 15 C-55.01 15 -54.02 15 -53 15 C-53 15.66 -53 16.32 -53 17 C-51.2675 16.4740625 -51.2675 16.4740625 -49.5 15.9375 C-47.26953125 15.65625 -47.26953125 15.65625 -45 16 C-42.74603448 17.93850179 -41.06069178 20.09745413 -39.21484375 22.42578125 C-35.5225772 26.71714572 -31.0055346 30.34178132 -26 33 C-23.16118784 32.74662697 -21.62323919 31.79959531 -19.0625 30.4375 C-16.00915492 29.00429721 -14.307136 28.70819388 -11 29 C-11 27.35 -11 25.7 -11 24 C-11.99 23.67 -12.98 23.34 -14 23 C-15.44342747 20.11314507 -15.3116035 17.40033313 -15.5 14.1875 C-15.74535423 10.02962199 -16.0711168 6.06386398 -17 2 C-11.39851983 0.37047849 -5.84426789 -1.06571944 0 0 Z " fill="#F99646" transform="translate(392,88)"/>
<path d="M0 0 C1.03769531 -0.01675781 2.07539063 -0.03351563 3.14453125 -0.05078125 C6.64602684 0.36724069 8.4963251 1.02893006 11.1875 3.3125 C11.74609375 5.8359375 11.74609375 5.8359375 11.625 8.6875 C11.60308594 9.62335938 11.58117187 10.55921875 11.55859375 11.5234375 C11.17475948 14.40825503 10.30719525 16.64141975 9.1875 19.3125 C9.1875 24.55394226 11.62951596 27.79494891 14.6171875 31.87109375 C16.14158766 34.24111887 17.15622399 36.61052007 18.22314453 39.20874023 C20.8288764 44.89319378 24.26578052 50.22446921 27.44921875 55.59960938 C32.37921035 64.12274131 35.37511611 72.02246676 35.9375 81.875 C36.05351562 83.67130859 36.05351562 83.67130859 36.171875 85.50390625 C36.17960937 86.89416016 36.17960937 86.89416016 36.1875 88.3125 C35.1875 89.3125 35.1875 89.3125 31.625 89.375 C30.490625 89.354375 29.35625 89.33375 28.1875 89.3125 C27.98068604 88.68158447 27.77387207 88.05066895 27.56079102 87.40063477 C26.62696574 84.55772551 25.68854674 81.71635384 24.75 78.875 C24.42451172 77.88177734 24.09902344 76.88855469 23.76367188 75.86523438 C23.45107422 74.92099609 23.13847656 73.97675781 22.81640625 73.00390625 C22.52838135 72.12935791 22.24035645 71.25480957 21.94360352 70.35375977 C21.36216716 68.34801105 21.36216716 68.34801105 20.1875 67.3125 C19.8575 75.5625 19.5275 83.8125 19.1875 92.3125 C5.04737261 97.4543645 5.04737261 97.4543645 -2.1875 97.4375 C-3.28835937 97.44007813 -4.38921875 97.44265625 -5.5234375 97.4453125 C-8.8125 97.3125 -8.8125 97.3125 -14.8125 96.3125 C-14.8125 89.7125 -14.8125 83.1125 -14.8125 76.3125 C-19.19932941 78.27689039 -19.19932941 78.27689039 -23.5769043 80.26171875 C-27.13700479 81.8217454 -29.92561721 82.66923112 -33.8125 82.3125 C-34.8025 79.3425 -34.8025 79.3425 -35.8125 76.3125 C-35.24740723 75.93440186 -34.68231445 75.55630371 -34.10009766 75.16674805 C-31.54192521 73.4503359 -28.98968933 71.72529466 -26.4375 70 C-25.54804688 69.40509766 -24.65859375 68.81019531 -23.7421875 68.19726562 C-22.89140625 67.62041016 -22.040625 67.04355469 -21.1640625 66.44921875 C-20.37854004 65.92030029 -19.59301758 65.39138184 -18.78369141 64.84643555 C-14.39109404 61.4282179 -14.1958894 57.27038884 -13.4375 52.125 C-11.05505954 37.59561903 -11.05505954 37.59561903 -4.625 32.75 C-1.45859365 30.49010301 -1.45859365 30.49010301 -0.9375 26.5 C-0.89625 25.448125 -0.855 24.39625 -0.8125 23.3125 C-1.8025 23.3125 -2.7925 23.3125 -3.8125 23.3125 C-5.13479189 20.66791621 -4.90927194 18.63488699 -4.875 15.6875 C-4.86597656 14.68460938 -4.85695312 13.68171875 -4.84765625 12.6484375 C-4.83605469 11.87757812 -4.82445312 11.10671875 -4.8125 10.3125 C-5.8025 9.9825 -6.7925 9.6525 -7.8125 9.3125 C-7.9375 5.9375 -7.9375 5.9375 -7.8125 2.3125 C-5.14098149 -0.35901851 -3.72067468 0.01376328 0 0 Z " fill="#BA4040" transform="translate(227.8125,90.6875)"/>
<path d="M0 0 C1.72089844 0.00580078 1.72089844 0.00580078 3.4765625 0.01171875 C6.375 0.3125 6.375 0.3125 8.375 2.3125 C8.5 5.9375 8.5 5.9375 8.375 9.3125 C7.385 9.6425 6.395 9.9725 5.375 10.3125 C5.375 13.9425 5.375 17.5725 5.375 21.3125 C3.395 22.3025 3.395 22.3025 1.375 23.3125 C1.375 25.9525 1.375 28.5925 1.375 31.3125 C2.13554687 31.5703125 2.89609375 31.828125 3.6796875 32.09375 C8.3844413 34.22111693 10.36578733 37.64972075 12.375 42.3125 C13.24228119 46.14454859 13.78305151 50.01992582 14.17431641 53.92773438 C14.81073293 59.34949121 15.92902695 61.79721731 20.375 65.3125 C23.09818066 67.32551308 25.8735109 69.24146306 28.6875 71.125 C29.42806641 71.62708984 30.16863281 72.12917969 30.93164062 72.64648438 C32.74284269 73.87342771 34.55727378 75.09525266 36.375 76.3125 C35.385 78.6225 34.395 80.9325 33.375 83.3125 C31.31233676 82.52125876 29.24987621 81.72948909 27.1875 80.9375 C25.46466797 80.27621094 25.46466797 80.27621094 23.70703125 79.6015625 C20.92164006 78.52397857 18.14502279 77.4288557 15.375 76.3125 C15.38023682 76.88282959 15.38547363 77.45315918 15.39086914 78.04077148 C15.41158221 80.61050323 15.4246419 83.18021747 15.4375 85.75 C15.44587891 86.64783203 15.45425781 87.54566406 15.46289062 88.47070312 C15.46611328 89.32470703 15.46933594 90.17871094 15.47265625 91.05859375 C15.47789307 91.84935303 15.48312988 92.6401123 15.48852539 93.45483398 C15.375 95.3125 15.375 95.3125 14.375 96.3125 C3.44070415 98.13488264 -6.37596875 98.04160547 -16.625 93.3125 C-18.46875 91.67578125 -18.46875 91.67578125 -19.625 90.3125 C-20.12 90.8075 -20.12 90.8075 -20.625 91.3125 C-23.625 91.4375 -23.625 91.4375 -26.625 91.3125 C-29.50737009 88.43012991 -28.48460391 81.02551009 -28.57470703 77.21850586 C-28.344445 66.81683241 -25.2605018 57.94329009 -21.5 48.375 C-21.07216217 47.27649216 -21.07216217 47.27649216 -20.63568115 46.15579224 C-17.68021166 38.66398897 -14.63719459 31.53740548 -9.68969727 25.10107422 C-8.28377431 23.09539808 -8.28377431 23.09539808 -8.6875 19.375 C-9.49536689 16.43358787 -9.49536689 16.43358787 -10.625 14.3125 C-10.79752544 12.50522528 -10.89170538 10.68991317 -10.9375 8.875 C-10.97488281 7.90691406 -11.01226562 6.93882813 -11.05078125 5.94140625 C-10.625 3.3125 -10.625 3.3125 -9.01953125 1.484375 C-5.88004912 -0.05207629 -3.48373756 -0.05111579 0 0 Z " fill="#2B488B" transform="translate(148.625,90.6875)"/>
<path d="M0 0 C2 0 2 0 3.48046875 1.43359375 C5.33501171 3.61066592 7.17532644 5.79780777 9 8 C9.58394531 8.67417969 10.16789062 9.34835938 10.76953125 10.04296875 C22.06382388 23.63181293 27.50915228 40.45752942 28 58 C28.03996094 59.30710938 28.07992188 60.61421875 28.12109375 61.9609375 C28.68808887 89.74049511 21.48775472 116.76836791 6 140 C3.375 140.1875 3.375 140.1875 1 140 C-0.23390578 132.96673704 0.42205012 126.90663734 1.453125 119.86328125 C2.86997543 109.85424503 3.09221389 99.9043763 3.125 89.8125 C3.12967285 88.79542969 3.1343457 87.77835937 3.13916016 86.73046875 C3.13706543 85.77398437 3.1349707 84.8175 3.1328125 83.83203125 C3.13168457 82.97327393 3.13055664 82.1145166 3.12939453 81.22973633 C3.08718132 78.82698434 3.08718132 78.82698434 2 76 C1.90589654 74.21025871 1.86928963 72.4172123 1.8671875 70.625 C1.86589844 69.55636719 1.86460937 68.48773438 1.86328125 67.38671875 C1.86714844 66.26910156 1.87101562 65.15148437 1.875 64 C1.87113281 62.91332031 1.86726563 61.82664063 1.86328125 60.70703125 C1.87059966 54.58152055 2.11880173 48.5605972 2.76123047 42.46801758 C3.70538244 32.70888434 2.51420778 23.38619443 1.06738281 13.7409668 C0.37925554 9.11408729 -0.18843653 4.6952103 0 0 Z " fill="#EAF2F9" transform="translate(403,146)"/>
<path d="M0 0 C2.31 0 4.62 0 7 0 C7.2040859 10.55207024 6.5705172 20.96414003 5.79296875 31.48046875 C5.66562475 33.22829623 5.53829033 34.97612441 5.41096497 36.72395325 C5.1447883 40.35735053 4.87423508 43.99039421 4.60131836 47.62329102 C4.2521587 52.28408538 3.9207751 56.94597138 3.59330273 61.60833263 C3.33766829 65.20431207 3.06946521 68.79927296 2.79772377 72.39406776 C2.6698634 74.11416946 2.54672012 75.83462849 2.42836571 77.55541039 C2.26263901 79.9472536 2.07927092 82.33710712 1.89135742 84.72729492 C1.84603882 85.43838913 1.80072021 86.14948334 1.75402832 86.88212585 C1.58854675 88.8478241 1.58854675 88.8478241 1 92 C-2.4352048 94.29013653 -3.985331 94.17842973 -8 94 C-8 95.98 -8 97.96 -8 100 C-12.39561039 100.11629782 -16.79082429 100.18728634 -21.1875 100.25 C-22.43337891 100.28351563 -23.67925781 100.31703125 -24.96289062 100.3515625 C-26.7659668 100.37089844 -26.7659668 100.37089844 -28.60546875 100.390625 C-30.26292114 100.4220459 -30.26292114 100.4220459 -31.95385742 100.45410156 C-35.72941972 99.89126227 -37.36359934 98.72370866 -40 96 C-41.09871241 89.18655614 -38.98445046 85.32788439 -35.375 79.6875 C-34.35660175 78.00976278 -33.34389336 76.32856277 -32.3359375 74.64453125 C-31.79420898 73.74041504 -31.25248047 72.83629883 -30.69433594 71.90478516 C-17.72379749 49.66797442 -7.24720292 25.9959063 2 2 C1.34 1.34 0.68 0.68 0 0 Z " fill="#F99646" transform="translate(155,187)"/>
<path d="M0 0 C1.13931396 2.94001974 1.12869479 5.83139566 1.1328125 8.95703125 C1.13474609 10.37918945 1.13474609 10.37918945 1.13671875 11.83007812 C1.13285156 12.81427734 1.12898438 13.79847656 1.125 14.8125 C1.13080078 16.27139648 1.13080078 16.27139648 1.13671875 17.75976562 C1.13134373 21.72922113 1.06719882 25.53066649 0.50390625 29.46484375 C-0.22251991 34.56108932 -0.18430277 39.60886029 -0.1875 44.75 C-0.20586914 46.28140625 -0.20586914 46.28140625 -0.22460938 47.84375 C-0.23407948 52.81871258 -0.01111062 57.46264247 1 62.33984375 C2.37571502 69.15039908 2.25458624 75.8884937 2.1875 82.8125 C2.18685547 84.09576172 2.18621094 85.37902344 2.18554688 86.70117188 C2.15915595 92.3400323 1.9322582 97.4064508 1 103 C-6.92 103 -14.84 103 -23 103 C-23 95.12943528 -23 95.12943528 -22.16015625 92.02734375 C-21.98419922 91.35509766 -21.80824219 90.68285156 -21.62695312 89.99023438 C-21.44068359 89.31283203 -21.25441406 88.63542969 -21.0625 87.9375 C-19.43330123 81.85247139 -17.87062125 75.89771657 -17.8125 69.5625 C-17.79832031 68.86253906 -17.78414062 68.16257812 -17.76953125 67.44140625 C-17.93449925 64.84254458 -17.93449925 64.84254458 -18.94970703 61.83081055 C-20.00538902 57.98034423 -20.6001644 54.22022548 -21.03515625 50.265625 C-21.11873886 49.54695251 -21.20232147 48.82828003 -21.28843689 48.08782959 C-21.55192653 45.80914219 -21.80719258 43.52961694 -22.0625 41.25 C-22.2371235 39.7369206 -22.41224983 38.22389915 -22.58789062 36.7109375 C-25.16912709 14.31675245 -25.16912709 14.31675245 -25 4 C-24.16597656 3.89042969 -23.33195313 3.78085938 -22.47265625 3.66796875 C-16.30856766 2.79948891 -10.60052216 1.79567958 -4.8046875 -0.51171875 C-3 -1 -3 -1 0 0 Z " fill="#2B488B" transform="translate(248,184)"/>
<path d="M0 0 C8.25 0.33 16.5 0.66 25 1 C24.57908959 7.38380786 24.11671305 13.63723829 23 19.9375 C21.83791291 26.97888697 21.58329102 34.01352448 21.34179688 41.13452148 C21.2019682 45.12142239 21.0173229 48.89741921 20.3515625 52.83984375 C19.54821264 58.6883788 20.95420727 64.49025943 21.9375 70.25 C25.32798111 90.23481603 25.32798111 90.23481603 24 96 C21.78491211 97.70800781 21.78491211 97.70800781 19 99 C18.17669189 99.38784668 17.35338379 99.77569336 16.50512695 100.17529297 C13.81837059 101.0597938 11.73864296 101.229922 8.91796875 101.1953125 C7.98662109 101.18886719 7.05527344 101.18242187 6.09570312 101.17578125 C4.65614258 101.15064453 4.65614258 101.15064453 3.1875 101.125 C2.20845703 101.11597656 1.22941406 101.10695313 0.22070312 101.09765625 C-2.18645061 101.07417182 -4.59309743 101.0413284 -7 101 C-4.08616689 99.05744459 -1.12736438 97.56368219 2 96 C4.82633862 93.17366138 3.24448963 83.79203819 3.25 79.6875 C3.25233643 78.90355865 3.25467285 78.11961731 3.25708008 77.31192017 C3.27456039 61.5341474 2.30190555 45.86543501 1.06738281 30.14135742 C0.28269502 20.04946415 -0.15292341 10.12480398 0 0 Z " fill="#35478B" transform="translate(371,186)"/>
<path d="M0 0 C0.495 0.99 0.495 0.99 1 2 C0.06553465 4.03144641 -0.93224776 6.03533587 -2 8 C-1.505 8.495 -1.505 8.495 -1 9 C-0.61070312 8.3503125 -0.22140625 7.700625 0.1796875 7.03125 C4.64149395 0.36938231 4.64149395 0.36938231 8.5859375 -0.703125 C14.85416574 -0.81341641 14.85416574 -0.81341641 17.77734375 1.26171875 C19.34598405 3.49189426 19.37045936 4.85624366 19.3125 7.5625 C19.30863281 8.34753906 19.30476563 9.13257813 19.30078125 9.94140625 C19 12 19 12 17 14 C14.65234375 14.37890625 14.65234375 14.37890625 11.9375 14.5625 C8.66160436 14.53981953 8.66160436 14.53981953 6 16 C10.455 16.99 10.455 16.99 15 18 C13.84414715 21.91211733 12.64465038 24.8745041 10 28 C11.32 28.99 12.64 29.98 14 31 C13.125 36.875 13.125 36.875 12 38 C9.32941149 38.14115161 6.67567762 38.04247107 4 38 C5.32 39.32 6.64 40.64 8 42 C6.3125 43.5625 6.3125 43.5625 4 45 C1.25 44.6875 1.25 44.6875 -1 44 C-1 44.66 -1 45.32 -1 46 C-6.29441695 46.50423019 -8.81413519 45.18923033 -13 42 C-14.32 43.32 -15.64 44.64 -17 46 C-10.73 46.33 -4.46 46.66 2 47 C0.87128713 56.02970297 0.87128713 56.02970297 -1.375 58.875 C-2.00535156 59.70644531 -2.00535156 59.70644531 -2.6484375 60.5546875 C-4 62 -4 62 -7 64 C-5.0509375 64.185625 -5.0509375 64.185625 -3.0625 64.375 C-0.84765625 64.5859375 -0.84765625 64.5859375 1 65 C1.33 65.66 1.66 66.32 2 67 C-10.87 67 -23.74 67 -37 67 C-36.505 66.01 -36.505 66.01 -36 65 C-33.35139573 64.40644386 -30.70802678 64.25790731 -28 64 C-28.48210937 63.52691406 -28.96421875 63.05382812 -29.4609375 62.56640625 C-34.283478 57.5175016 -36.02803127 53.91177764 -37 47 C-31.06 47 -25.12 47 -19 47 C-18.34 45.68 -17.68 44.36 -17 43 C-16.443125 42.525625 -15.88625 42.05125 -15.3125 41.5625 C-14.6628125 40.7890625 -14.6628125 40.7890625 -14 40 C-14.18068911 37.51176074 -14.18068911 37.51176074 -15 35 C-15.185625 34.236875 -15.37125 33.47375 -15.5625 32.6875 C-15.706875 32.130625 -15.85125 31.57375 -16 31 C-16.66 31.33 -17.32 31.66 -18 32 C-17.896875 30.948125 -17.79375 29.89625 -17.6875 28.8125 C-17.59105607 24.86508064 -17.59105607 24.86508064 -20.5 22.5625 C-23.07412624 19.9240206 -23.44864547 19.45370738 -23.6875 16 C-23.54169983 13.51669386 -23.26639165 12.33683564 -21.71484375 10.375 C-17.8125 7 -17.8125 7 -15 7 C-14.67 9.97 -14.34 12.94 -14 16 C-14.020625 15.25234375 -14.04125 14.5046875 -14.0625 13.734375 C-13.99791419 10.65040272 -13.80764871 7.98142663 -13 5 C-9.54079685 1.71860636 -4.64753088 0.58094136 0 0 Z " fill="#A7D19F" transform="translate(322,220)"/>
<path d="M0 0 C1.62580966 0.11398665 3.25067157 0.24155659 4.875 0.375 C5.77992187 0.44460937 6.68484375 0.51421875 7.6171875 0.5859375 C10 1 10 1 12 3 C11.32904297 4.00353516 11.32904297 4.00353516 10.64453125 5.02734375 C0.51879622 21.11193351 -1.54562904 39.45771531 -4.50683594 57.92651367 C-4.84654223 60.04362381 -5.21680599 62.15598152 -5.61206055 64.26342773 C-6.04866369 67.34327959 -5.7435336 68.32797939 -4.0625 70.875 C-3.0415625 72.421875 -3.0415625 72.421875 -2 74 C-5.31868591 75.02245821 -8.18283589 75.04443871 -11.640625 74.87890625 C-13.24550781 74.80639648 -13.24550781 74.80639648 -14.8828125 74.73242188 C-15.99398437 74.67634766 -17.10515625 74.62027344 -18.25 74.5625 C-19.37664062 74.51029297 -20.50328125 74.45808594 -21.6640625 74.40429688 C-24.44299972 74.27477014 -27.22156424 74.13980947 -30 74 C-31.30422858 68.25250772 -31.22273182 62.61947489 -31.25 56.75 C-31.270625 55.65558594 -31.29125 54.56117188 -31.3125 53.43359375 C-31.36782081 41.8853738 -28.44950265 32.35996259 -20.25 24 C-17.54505997 21.38555982 -14.75056938 18.92385159 -11.875 16.5 C-6.62500379 11.97342846 -2.09805421 6.71377348 0 0 Z " fill="#EAF2F9" transform="translate(113,212)"/>
<path d="M0 0 C1.72089844 0.00580078 1.72089844 0.00580078 3.4765625 0.01171875 C6.375 0.3125 6.375 0.3125 8.375 2.3125 C8.5 5.9375 8.5 5.9375 8.375 9.3125 C7.385 9.6425 6.395 9.9725 5.375 10.3125 C5.375 13.9425 5.375 17.5725 5.375 21.3125 C3.395 22.3025 3.395 22.3025 1.375 23.3125 C1.375 25.9525 1.375 28.5925 1.375 31.3125 C2.13554687 31.5703125 2.89609375 31.828125 3.6796875 32.09375 C8.39403016 34.22545277 10.34296617 37.65283622 12.375 42.3125 C14.13507619 49.06563443 15.375 56.3359354 15.375 63.3125 C14.715 63.9725 14.055 64.6325 13.375 65.3125 C14.365 66.3025 14.365 66.3025 15.375 67.3125 C15.045 67.910625 14.715 68.50875 14.375 69.125 C13.16712012 71.36636471 13.16712012 71.36636471 13.375 74.3125 C2.24021054 72.66666433 -5.9602708 64.84826998 -12.625 56.3125 C-14.32886458 54.00309532 -15.97570748 51.66149238 -17.625 49.3125 C-18.285 48.9825 -18.945 48.6525 -19.625 48.3125 C-18.81173629 40.58649475 -15.87490631 33.84260487 -11.3125 27.625 C-8.98298329 24.32387582 -8.62010559 23.6208481 -8.6875 19.375 C-9.49536689 16.43358787 -9.49536689 16.43358787 -10.625 14.3125 C-10.79752544 12.50522528 -10.89170538 10.68991317 -10.9375 8.875 C-10.97488281 7.90691406 -11.01226562 6.93882813 -11.05078125 5.94140625 C-10.625 3.3125 -10.625 3.3125 -9.01953125 1.484375 C-5.88004912 -0.05207629 -3.48373756 -0.05111579 0 0 Z " fill="#2A478B" transform="translate(148.625,90.6875)"/>
<path d="M0 0 C-0.00523682 1.07483643 -0.01047363 2.14967285 -0.01586914 3.25708008 C-0.03396401 7.24339974 -0.04544846 11.22971576 -0.05493164 15.21606445 C-0.05996158 16.9416566 -0.06678626 18.66724448 -0.07543945 20.39282227 C-0.08756361 22.8725693 -0.09324169 25.35226 -0.09765625 27.83203125 C-0.10281754 28.60400345 -0.10797882 29.37597565 -0.11329651 30.17134094 C-0.11363318 33.3830228 -0.02326578 35.93020266 1 39 C1.23677219 42.45329254 1.19031552 45.91443869 1.1875 49.375 C1.1862915 50.91353638 1.1862915 50.91353638 1.18505859 52.4831543 C1.10468334 62.73730368 0.16485459 72.82120351 -1 83 C-1.19371353 84.77072366 -1.38642501 86.54155723 -1.578125 88.3125 C-2.03880734 92.5432479 -2.51473553 96.77200426 -3 101 C-5.45862401 101.05383848 -7.9160755 101.09359038 -10.375 101.125 C-11.07367188 101.14175781 -11.77234375 101.15851563 -12.4921875 101.17578125 C-14.32897486 101.19344267 -16.16601963 101.10303261 -18 101 C-18.66 100.34 -19.32 99.68 -20 99 C-17.36 98.01 -14.72 97.02 -12 96 C-11.63854026 85.5213187 -13.057066 75.58060209 -14.66601562 65.25 C-14.84970703 64.01507813 -15.03339844 62.78015625 -15.22265625 61.5078125 C-15.39547119 60.40066895 -15.56828613 59.29352539 -15.74633789 58.15283203 C-16.01024201 54.87269947 -15.62660167 52.21775815 -15 49 C-14.90743965 47.50692668 -14.84733022 46.01138608 -14.82421875 44.515625 C-14.45001362 29.77617925 -12.50354893 15.52023583 -10 1 C-8.5209084 0.83266843 -7.04172444 0.66615314 -5.5625 0.5 C-4.73878906 0.4071875 -3.91507812 0.314375 -3.06640625 0.21875 C-1 0 -1 0 0 0 Z " fill="#35478B" transform="translate(406,186)"/>
<path d="M0 0 C0.33 0 0.66 0 1 0 C1.50721438 2.44743249 1.99988549 4.89491223 2.4609375 7.3515625 C2.98657961 10.15724385 2.98657961 10.15724385 4.0625 13.4375 C3.99036431 17.54923421 3.20666235 18.48199825 0.8984375 21.7734375 C-3.53653092 28.55254759 -6.57197395 35.65533707 -9.4375 43.1875 C-9.70413452 43.87900146 -9.97076904 44.57050293 -10.2454834 45.28295898 C-15.16007155 58.24482162 -16.55743994 70.1347911 -15 84 C-13.02 84 -11.04 84 -9 84 C-8.67 82.02 -8.34 80.04 -8 78 C-7.67 78 -7.34 78 -7 78 C-7 82.29 -7 86.58 -7 91 C-7.66 91 -8.32 91 -9 91 C-9 91.99 -9 92.98 -9 94 C-14.75 94.125 -14.75 94.125 -17 93 C-17.33 92.01 -17.66 91.02 -18 90 C-18.66 90.99 -19.32 91.98 -20 93 C-28.79835735 82.54941136 -25.9003974 61.6891974 -25 49 C-22.78674224 33.43238861 -15.60834325 20.0193057 -4.125 9.3125 C-1.09988283 6.41596723 -0.10505446 4.30723271 0 0 Z " fill="#E9F1F8" transform="translate(137,97)"/>
<path d="M0 0 C0.33 0 0.66 0 1 0 C1.10022461 0.85005615 1.20044922 1.7001123 1.30371094 2.57592773 C3.7450278 23.86560611 3.7450278 23.86560611 8.265625 44.78515625 C8.99653412 47.98482756 9.05356283 50.7335219 9 54 C4.60438961 54.11629782 0.20917571 54.18728634 -4.1875 54.25 C-5.43337891 54.28351563 -6.67925781 54.31703125 -7.96289062 54.3515625 C-9.16494141 54.36445313 -10.36699219 54.37734375 -11.60546875 54.390625 C-12.71043701 54.41157227 -13.81540527 54.43251953 -14.95385742 54.45410156 C-18.72906001 53.89131589 -20.36303655 52.72246381 -23 50 C-24.12965861 43.11342731 -21.88950262 39.14583719 -18.25 33.4375 C-17.2439803 31.78671995 -16.2428971 30.13292402 -15.24609375 28.4765625 C-14.71870605 27.60161133 -14.19131836 26.72666016 -13.64794922 25.82519531 C-10.68799964 20.75074546 -8.00624759 15.53173732 -5.3125 10.3125 C-4.78366211 9.29019287 -4.25482422 8.26788574 -3.70996094 7.21459961 C-2.46966493 4.81157752 -1.23281648 2.40686556 0 0 Z " fill="#EAF3F8" transform="translate(138,233)"/>
<path d="M0 0 C4.75 1.875 4.75 1.875 7 3 C7.19296593 4.99398127 7.37968978 6.99053919 7.4609375 8.9921875 C8.23174327 11.86315971 9.46777797 12.4907789 12 14 C14.9935686 14.50253145 14.9935686 14.50253145 18.296875 14.51171875 C19.50214844 14.54716797 20.70742187 14.58261719 21.94921875 14.61914062 C23.20347656 14.64169922 24.45773438 14.66425781 25.75 14.6875 C27.01972656 14.72166016 28.28945312 14.75582031 29.59765625 14.79101562 C32.73168274 14.87349001 35.86542955 14.94264484 39 15 C39 13.02 39 11.04 39 9 C44.27327813 8.04908099 44.27327813 8.04908099 47 8 C48.5625 9.25 48.5625 9.25 50 11 C55.5633578 13.92998394 60.07346512 14.4440367 66.30078125 14.3984375 C67.61540596 14.40274277 67.61540596 14.40274277 68.95658875 14.40713501 C70.80301564 14.40916756 72.64946446 14.40369457 74.49584961 14.39111328 C77.29395791 14.37510607 80.09060916 14.39095941 82.88867188 14.41015625 C95.8865428 14.87370888 95.8865428 14.87370888 108 11 C108.33 10.01 108.66 9.02 109 8 C111.31 8.33 113.62 8.66 116 9 C116 10.98 116 12.96 116 15 C117.1973024 14.83766876 118.3946048 14.67533752 119.62818909 14.50808716 C126.06273644 13.79885054 132.48232601 13.86043247 138.94897461 13.87060547 C140.34576366 13.86926831 141.74255236 13.86750882 143.1393404 13.86536407 C146.93206808 13.86086609 150.72476894 13.86266593 154.51749706 13.86577559 C157.73222643 13.86767882 160.94695017 13.86607234 164.16167939 13.86443865 C172.74796959 13.86009587 181.3342431 13.86296945 189.92053139 13.86943495 C196.14360535 13.87408602 202.36667668 13.87647884 208.5897522 13.87768555 C259.73142573 13.88953817 310.8654841 14.06220155 362 15 C362 15.33 362 15.66 362 16 C219.77 16 77.54 16 -69 16 C-69 15.67 -69 15.34 -69 15 C-33.855 14.505 -33.855 14.505 2 14 C0.68 11.69 -0.64 9.38 -2 7 C-1.70588235 1.70588235 -1.70588235 1.70588235 0 0 Z " fill="#1C2647" transform="translate(108,272)"/>
<path d="M0 0 C12.87 0 25.74 0 39 0 C37.87128713 9.02970297 37.87128713 9.02970297 35.625 11.875 C35.20476562 12.42929687 34.78453125 12.98359375 34.3515625 13.5546875 C33 15 33 15 30 17 C31.299375 17.12375 32.59875 17.2475 33.9375 17.375 C36.15234375 17.5859375 36.15234375 17.5859375 38 18 C38.495 18.99 38.495 18.99 39 20 C26.13 20 13.26 20 0 20 C0.33 19.34 0.66 18.68 1 18 C3.64860427 17.40644386 6.29197322 17.25790731 9 17 C8.51789063 16.52691406 8.03578125 16.05382812 7.5390625 15.56640625 C6.90742188 14.90511719 6.27578125 14.24382812 5.625 13.5625 C4.99851562 12.92441406 4.37203125 12.28632813 3.7265625 11.62890625 C2 9 2 9 0 0 Z " fill="#F0A04B" transform="translate(285,267)"/>
<path d="M0 0 C0.66 0.33 1.32 0.66 2 1 C1.67 1.99 1.34 2.98 1 4 C3.64 4.33 6.28 4.66 9 5 C8.67 3.68 8.34 2.36 8 1 C8.99 1.33 9.98 1.66 11 2 C12.00931371 11.33054453 9.01327888 19.3260615 6 28 C3.47715927 27.74256727 0.95761856 27.46948683 -1.5625 27.1875 C-2.26697266 27.11724609 -2.97144531 27.04699219 -3.69726562 26.97460938 C-8.63187965 26.40610545 -12.51848567 25.14947796 -17 23 C-17.054348 20.9377952 -17.09294961 18.87517184 -17.125 16.8125 C-17.14820312 15.66394531 -17.17140625 14.51539063 -17.1953125 13.33203125 C-16.93738682 8.93181909 -16.13095049 6.13095049 -13 3 C-10.15702326 2.89909187 -7.37108823 3.06945445 -4.53125 3.22265625 C-3.6959375 3.14917969 -2.860625 3.07570312 -2 3 C-1.34 2.01 -0.68 1.02 0 0 Z " fill="#243A62" transform="translate(119,186)"/>
<path d="M0 0 C2.16772463 2.06942686 3.60070551 4.36286808 5 7 C4.42415568 4.61435923 3.77772405 2.33317216 3 0 C6.9492568 0.55105909 10.34920174 1.38935371 14 3 C14 6.3 14 9.6 14 13 C14.66 13 15.32 13 16 13 C15.67 10.36 15.34 7.72 15 5 C18.65316671 6.24976756 19.78065836 6.67098753 22 10 C21.875 13.0625 21.875 13.0625 21 16 C18.9375 17.375 18.9375 17.375 17 18 C17.10613836 20.45224694 17.10613836 20.45224694 18 23 C20.47636012 24.37466625 20.47636012 24.37466625 23 25 C22.34 28.3 21.68 31.6 21 35 C20.34 35 19.68 35 19 35 C19 32.69 19 30.38 19 28 C18.34 28 17.68 28 17 28 C17 27.01 17 26.02 17 25 C12.05 25 7.1 25 2 25 C1.67 24.01 1.34 23.02 1 22 C1.33 21.67 1.66 21.34 2 21 C1.071875 20.9175 0.14375 20.835 -0.8125 20.75 C-4 20 -4 20 -5.875 18.0625 C-7 16 -7 16 -7 14 C-3.535 13.505 -3.535 13.505 0 13 C0 12.34 0 11.68 0 11 C-0.62648438 11.03480469 -1.25296875 11.06960937 -1.8984375 11.10546875 C-2.71570313 11.13253906 -3.53296875 11.15960938 -4.375 11.1875 C-5.18710937 11.22230469 -5.99921875 11.25710937 -6.8359375 11.29296875 C-7.55007813 11.19628906 -8.26421875 11.09960938 -9 11 C-11 8 -11 8 -10.75 4.375 C-10.5025 3.26125 -10.255 2.1475 -10 1 C-6.74869698 -0.62565151 -3.4845724 -0.85282078 0 0 Z " fill="#A0CC96" transform="translate(276,232)"/>
<path d="M0 0 C3.3 0.33 6.6 0.66 10 1 C10.14099121 2.36092773 10.28198242 3.72185547 10.42724609 5.12402344 C10.95655059 10.22353843 11.4907572 15.32253047 12.02636719 20.42138672 C12.25652443 22.61884042 12.48539182 24.81642964 12.71289062 27.01416016 C13.04209178 30.19210638 13.37609007 33.36951932 13.7109375 36.546875 C13.85950699 37.9960733 13.85950699 37.9960733 14.01107788 39.47454834 C14.76286064 51.07067851 14.76286064 51.07067851 18 62 C18.039992 63.99960012 18.04346799 66.00047242 18 68 C14.6892808 65.32875512 13.7421097 62.15166114 12.3359375 58.21484375 C12.09839752 57.55795059 11.86085754 56.90105743 11.61611938 56.22425842 C10.86111513 54.1314339 10.11776222 52.03469682 9.375 49.9375 C8.62261524 47.8376931 7.86789723 45.73873936 7.11245728 43.64002991 C6.42963739 41.73919792 5.75252272 39.8363194 5.07568359 37.93334961 C4.10456719 35.11585848 4.10456719 35.11585848 3 33 C2.67 39.6 2.34 46.2 2 53 C1.67 53 1.34 53 1 53 C-0.05919929 41.52434589 -0.11858428 30.13814991 -0.0625 18.625 C-0.05747067 16.80989708 -0.05291032 14.9947928 -0.04882812 13.1796875 C-0.03794598 8.78642392 -0.02076194 4.39322754 0 0 Z " fill="#263C66" transform="translate(213,187)"/>
<path d="M0 0 C-0.04416275 5.05435088 -0.11400429 10.10745366 -0.20751953 15.16113281 C-0.23572067 16.87978169 -0.25693954 18.59856005 -0.27099609 20.31738281 C-0.29243833 22.79038747 -0.33909156 25.26183675 -0.390625 27.734375 C-0.39246796 28.88459137 -0.39246796 28.88459137 -0.39434814 30.05804443 C-0.48999124 33.55248574 -0.6093161 35.53890505 -2.90869141 38.25268555 C-3.59882324 38.82929932 -4.28895508 39.40591309 -5 40 C-6.19539595 42.03752624 -6.19539595 42.03752624 -7.0703125 44.22265625 C-7.40933594 45.00833984 -7.74835938 45.79402344 -8.09765625 46.60351562 C-8.43667969 47.41498047 -8.77570313 48.22644531 -9.125 49.0625 C-9.81267129 50.67942227 -10.50268447 52.29535105 -11.1953125 53.91015625 C-11.49453613 54.62308838 -11.79375977 55.33602051 -12.10205078 56.07055664 C-13 58 -13 58 -15 61 C-15.65370863 57.94935971 -16.08565504 55.49177806 -15.546875 52.3984375 C-14.98079313 48.88064302 -14.84976268 45.52176655 -14.75952148 41.96728516 C-14.39225899 28.11090702 -12.3522469 14.64270509 -10 1 C-8.5209084 0.83266843 -7.04172444 0.66615314 -5.5625 0.5 C-4.73878906 0.4071875 -3.91507812 0.314375 -3.06640625 0.21875 C-1 0 -1 0 0 0 Z " fill="#2B3963" transform="translate(406,186)"/>
<path d="M0 0 C2.31 0 4.62 0 7 0 C7.08940456 6.24838531 7.13125664 12.50768243 6.8125 18.75 C6.77769531 19.54921875 6.74289063 20.3484375 6.70703125 21.171875 C4.54326675 29.826933 -1.88931486 37.6860466 -6.6875 45.0625 C-7.36361328 46.11888672 -8.03972656 47.17527344 -8.73632812 48.26367188 C-9.38408203 49.26076172 -10.03183594 50.25785156 -10.69921875 51.28515625 C-11.28533936 52.19144775 -11.87145996 53.09773926 -12.4753418 54.03149414 C-12.978479 54.68110107 -13.48161621 55.33070801 -14 56 C-14.66 56 -15.32 56 -16 56 C-17.83639763 44.84558479 -12.99256101 36.52793271 -8.30957031 26.81152344 C-6.00591918 21.86580263 -3.97800167 16.80866658 -1.9375 11.75 C-1.54377197 10.77885254 -1.15004395 9.80770508 -0.74438477 8.80712891 C0.17360322 6.53935173 1.08851901 4.27039851 2 2 C1.34 1.34 0.68 0.68 0 0 Z " fill="#EC7D2C" transform="translate(155,187)"/>
<path d="M0 0 C1.03769531 -0.01675781 2.07539063 -0.03351563 3.14453125 -0.05078125 C6.64602684 0.36724069 8.4963251 1.02893006 11.1875 3.3125 C11.74609375 5.8359375 11.74609375 5.8359375 11.625 8.6875 C11.60308594 9.62335938 11.58117187 10.55921875 11.55859375 11.5234375 C11.1750523 14.40605427 10.27719842 16.63291373 9.1875 19.3125 C9.50995706 22.53707063 10.16328049 25.23984147 11.1875 28.3125 C2.75892857 31.74107143 2.75892857 31.74107143 -1.8125 31.3125 C-1.4825 28.6725 -1.1525 26.0325 -0.8125 23.3125 C-1.8025 23.3125 -2.7925 23.3125 -3.8125 23.3125 C-5.13479189 20.66791621 -4.90927194 18.63488699 -4.875 15.6875 C-4.86597656 14.68460938 -4.85695312 13.68171875 -4.84765625 12.6484375 C-4.83025391 11.49214844 -4.83025391 11.49214844 -4.8125 10.3125 C-5.8025 9.9825 -6.7925 9.6525 -7.8125 9.3125 C-7.9375 5.9375 -7.9375 5.9375 -7.8125 2.3125 C-5.14098149 -0.35901851 -3.72067468 0.01376328 0 0 Z " fill="#FBB17C" transform="translate(227.8125,90.6875)"/>
<path d="M0 0 C1.72089844 0.00580078 1.72089844 0.00580078 3.4765625 0.01171875 C6.375 0.3125 6.375 0.3125 8.375 2.3125 C8.5 5.9375 8.5 5.9375 8.375 9.3125 C7.385 9.6425 6.395 9.9725 5.375 10.3125 C5.375 13.9425 5.375 17.5725 5.375 21.3125 C3.395 22.3025 3.395 22.3025 1.375 23.3125 C1.375 25.9525 1.375 28.5925 1.375 31.3125 C-2.81969571 30.71325776 -6.63499834 29.73750059 -10.625 28.3125 C-10.0990625 27.2915625 -10.0990625 27.2915625 -9.5625 26.25 C-8.23119531 22.07857862 -8.65979368 18.24291265 -10.625 14.3125 C-10.79752544 12.50522528 -10.89170538 10.68991317 -10.9375 8.875 C-10.97488281 7.90691406 -11.01226562 6.93882813 -11.05078125 5.94140625 C-10.625 3.3125 -10.625 3.3125 -9.01953125 1.484375 C-5.88004912 -0.05207629 -3.48373756 -0.05111579 0 0 Z " fill="#FCB27B" transform="translate(148.625,90.6875)"/>
<path d="M0 0 C3 1 3 1 5.25 3 C8.53976679 5.39255766 10.99382897 5.68579051 15 6 C14.14025084 10.51368309 12.67056707 12.54599769 9.0625 15.1875 C8.02802734 15.88939453 8.02802734 15.88939453 6.97265625 16.60546875 C4.96865677 17.89618339 4.96865677 17.89618339 3.6328125 19.6328125 C1.18184008 21.68506213 -1.04669196 21.51863935 -4.1875 21.6875 C-5.81751953 21.78611328 -5.81751953 21.78611328 -7.48046875 21.88671875 C-8.31191406 21.92410156 -9.14335937 21.96148437 -10 22 C-10 21.34 -10 20.68 -10 20 C-10.66 19.67 -11.32 19.34 -12 19 C-9.0534615 17.19933758 -6.11198065 15.49836105 -3 14 C-4.98 14 -6.96 14 -9 14 C-9.66 12.35 -10.32 10.7 -11 9 C-7.61791761 5.41897159 -4.30323854 2.43226526 0 0 Z " fill="#A9D2A1" transform="translate(322,232)"/>
<path d="M0 0 C0.33 0 0.66 0 1 0 C1.68226391 4.08088172 2.3428487 8.16500543 3 12.25 C3.19078125 13.38953125 3.3815625 14.5290625 3.578125 15.703125 C6.25509603 32.52980002 6.25509603 32.52980002 5 38 C1.10879962 40.89588921 -3.11225068 43 -8 43 C-8.17397479 37.42038004 -7.65867978 32.54115323 -6.25 27.125 C-5.88420578 25.65003936 -5.51966814 24.17476664 -5.15625 22.69921875 C-4.96675781 21.93786621 -4.77726562 21.17651367 -4.58203125 20.39208984 C-3.57532376 16.25462341 -2.66455085 12.09613367 -1.75 7.9375 C-1.57500977 7.14553223 -1.40001953 6.35356445 -1.21972656 5.53759766 C-0.81213536 3.69195578 -0.40590696 1.84601302 0 0 Z " fill="#E8F1F8" transform="translate(390,244)"/>
<path d="M0 0 C0.66 0.66 1.32 1.32 2 2 C1.43181818 7.56818182 1.43181818 7.56818182 0 9 C-2.67058851 9.14115161 -5.32432238 9.04247107 -8 9 C-6.68 10.32 -5.36 11.64 -4 13 C-5.6875 14.5625 -5.6875 14.5625 -8 16 C-10.75 15.6875 -10.75 15.6875 -13 15 C-13 15.66 -13 16.32 -13 17 C-18.29441695 17.50423019 -20.81413519 16.18923033 -25 13 C-27.97 15.475 -27.97 15.475 -31 18 C-30.01847904 15.81045325 -29.27362817 14.23532022 -27.4375 12.65625 C-25.52774277 10.45587754 -25.68787294 9.17892236 -25.8125 6.3125 C-25.83957031 5.50425781 -25.86664063 4.69601563 -25.89453125 3.86328125 C-25.92933594 3.24839844 -25.96414063 2.63351563 -26 2 C-24.68 2.33 -23.36 2.66 -22 3 C-22 3.66 -22 4.32 -22 5 C-21.34 4.67 -20.68 4.34 -20 4 C-17.9625237 3.77141886 -15.91959697 3.58975722 -13.875 3.4375 C-12.77929688 3.35371094 -11.68359375 3.26992187 -10.5546875 3.18359375 C-9.71164062 3.12300781 -8.86859375 3.06242188 -8 3 C-7.67 2.01 -7.34 1.02 -7 0 C-4.29393021 -1.35303489 -2.8671629 -0.7884698 0 0 Z " fill="#82B37A" transform="translate(334,249)"/>
<path d="M0 0 C0.66 0 1.32 0 2 0 C2.02489563 4.5532187 2.04295187 9.10639693 2.05493164 13.65966797 C2.05993092 15.20557344 2.06673253 16.75147425 2.07543945 18.29736328 C2.08769956 20.53158728 2.09327249 22.76574826 2.09765625 25 C2.10281754 25.68054443 2.10797882 26.36108887 2.11329651 27.06225586 C2.11383908 31.80387404 1.73033444 36.32380863 1 41 C0 42 0 42 -3 42.125 C-6 42 -6 42 -7 41 C-8.43846953 26.78522914 -7.54571176 13.7831767 -1 1 C-0.67 0.67 -0.34 0.34 0 0 Z " fill="#20365F" transform="translate(128,140)"/>
<path d="M0 0 C2.625 1.875 2.625 1.875 4 5 C4.2781515 10.76444997 3.32506378 16.1971301 0 21 C-1.9375 22.125 -1.9375 22.125 -4 22 C-6.3125 20.3125 -6.3125 20.3125 -8 18 C-7.75 15.75 -7.75 15.75 -7 14 C-7.99 14.33 -8.98 14.66 -10 15 C-16.70387244 6.738041 -16.70387244 6.738041 -17 2 C-11.39851983 0.37047849 -5.84426789 -1.06571944 0 0 Z " fill="#29458A" transform="translate(392,88)"/>
<path d="M0 0 C4.18430068 0.42354178 6.80422108 1.94886656 10.1875 4.375 C11.04730469 4.98085937 11.90710938 5.58671875 12.79296875 6.2109375 C15 8 15 8 17 11 C17 12.32 17 13.64 17 15 C19.97 15.495 19.97 15.495 23 16 C24.60080151 20.00200378 23.29279692 23.04556236 22 27 C21.34 27 20.68 27 20 27 C20 24.69 20 22.38 20 20 C19.34 20 18.68 20 18 20 C18 19.01 18 18.02 18 17 C13.05 17 8.1 17 3 17 C2.67 16.01 2.34 15.02 2 14 C2.33 13.67 2.66 13.34 3 13 C2.071875 12.9175 1.14375 12.835 0.1875 12.75 C-3 12 -3 12 -4.875 10.0625 C-6 8 -6 8 -6 6 C-2.535 5.505 -2.535 5.505 1 5 C1 4.01 1 3.02 1 2 C0.34 1.67 -0.32 1.34 -1 1 C-0.67 0.67 -0.34 0.34 0 0 Z " fill="#A8D2A0" transform="translate(275,240)"/>
<path d="M0 0 C0.99 0 1.98 0 3 0 C3 0.66 3 1.32 3 2 C4.27875 1.79375 5.5575 1.5875 6.875 1.375 C9.0546875 1.0234375 9.0546875 1.0234375 11 1 C13 3 13 3 13.23046875 5.12890625 C13.20919922 6.33353516 13.20919922 6.33353516 13.1875 7.5625 C13.18105469 8.36816406 13.17460937 9.17382812 13.16796875 10.00390625 C13 12 13 12 12 13 C9.67182036 13.36760731 7.3381615 13.70241581 5 14 C5 16.31 5 18.62 5 21 C3.02 21.66 1.04 22.32 -1 23 C-1.19335938 22.32453125 -1.38671875 21.6490625 -1.5859375 20.953125 C-1.84632813 20.06109375 -2.10671875 19.1690625 -2.375 18.25 C-2.75785156 16.92742187 -2.75785156 16.92742187 -3.1484375 15.578125 C-3.91395727 13.01941483 -3.91395727 13.01941483 -5.125 10.875 C-6.42680139 8.08542559 -5.66393088 5.92129586 -5 3 C-3.35 2.67 -1.7 2.34 0 2 C0 1.34 0 0.68 0 0 Z " fill="#F99644" transform="translate(336,103)"/>
<path d="M0 0 C1.54658967 2.89107055 2.58515836 5.69009896 3.47265625 8.84375 C3.86227539 10.21853516 3.86227539 10.21853516 4.25976562 11.62109375 C4.52466797 12.57113281 4.78957031 13.52117187 5.0625 14.5 C5.33126953 15.45003906 5.60003906 16.40007812 5.87695312 17.37890625 C6.96631385 21.24192608 8.0438936 25.10155327 9 29 C-0.22551253 33.59225513 -0.22551253 33.59225513 -6 33 C-6.2037256 27.76425219 -5.504752 23.20522244 -4.125 18.1875 C-3.75598563 16.78563587 -3.38879625 15.38329006 -3.0234375 13.98046875 C-2.84651367 13.30419434 -2.66958984 12.62791992 -2.48730469 11.93115234 C-1.49242475 7.98851691 -0.73054272 3.99876014 0 0 Z " fill="#E9F0F7" transform="translate(231,254)"/>
<path d="M0 0 C0.33 0 0.66 0 1 0 C1 4.95 1 9.9 1 15 C-1.39054107 16.1787322 -3.78645215 17.34302997 -6.1875 18.5 C-6.86103516 18.83386719 -7.53457031 19.16773438 -8.22851562 19.51171875 C-11.96303529 21.29700132 -14.75794549 22.46127195 -19 22 C-19.66 20.02 -20.32 18.04 -21 16 C-20.43490723 15.62190186 -19.86981445 15.24380371 -19.28759766 14.85424805 C-16.72942521 13.1378359 -14.17718933 11.41279466 -11.625 9.6875 C-10.73554688 9.09259766 -9.84609375 8.49769531 -8.9296875 7.88476562 C-7.65351563 7.01948242 -7.65351563 7.01948242 -6.3515625 6.13671875 C-5.56604004 5.60780029 -4.78051758 5.07888184 -3.97119141 4.53393555 C-1.75666343 2.97731971 -1.75666343 2.97731971 0 0 Z " fill="#902D2F" transform="translate(213,151)"/>
<path d="M0 0 C2 0 2 0 3.91015625 1.65576172 C10.62281157 9.13744856 11.14600634 15.31337411 11 25.125 C11.00811083 26.47658897 11.01980542 27.82816137 11.03515625 29.1796875 C11.05854924 32.45470587 11.04598696 35.72534502 11 39 C10.67 39 10.34 39 10 39 C9.773125 38.01 9.54625 37.02 9.3125 36 C8.49119465 33.03743429 7.38252668 31.02392162 5.5625 28.5625 C2.96417639 24.63426519 2.03337773 20.57258236 1.1875 16 C1.06383057 15.33556885 0.94016113 14.6711377 0.81274414 13.98657227 C0.02551418 9.27996667 -0.101134 4.7692665 0 0 Z " fill="#912D2E" transform="translate(236,144)"/>
<path d="M0 0 C1.72089844 0.00580078 1.72089844 0.00580078 3.4765625 0.01171875 C6.375 0.3125 6.375 0.3125 8.375 2.3125 C8.5625 5.875 8.5625 5.875 8.375 9.3125 C6.37522142 11.31227858 2.53170096 10.74782807 -0.1796875 10.93359375 C-2.87568778 11.1757494 -2.87568778 11.1757494 -5.625 13.3125 C-6.285 12.9825 -6.945 12.6525 -7.625 12.3125 C-7.625 13.9625 -7.625 15.6125 -7.625 17.3125 C-9.90429022 15.52292466 -10.57259712 14.62597309 -11.05859375 11.71875 C-11.05988281 10.7596875 -11.06117188 9.800625 -11.0625 8.8125 C-11.08183594 7.8534375 -11.10117188 6.894375 -11.12109375 5.90625 C-10.625 3.3125 -10.625 3.3125 -9.01171875 1.48828125 C-5.87633169 -0.05632023 -3.48325808 -0.05110875 0 0 Z " fill="#2B478A" transform="translate(148.625,90.6875)"/>
<path d="M0 0 C1.03769531 -0.01675781 2.07539063 -0.03351563 3.14453125 -0.05078125 C6.65030449 0.36775137 8.49543883 1.02253176 11.1875 3.3125 C11.78125 5.90625 11.78125 5.90625 11.6875 8.8125 C11.6771875 9.7715625 11.666875 10.730625 11.65625 11.71875 C11.13404385 14.6082907 10.4568287 15.52600719 8.1875 17.3125 C8.1875 15.6625 8.1875 14.0125 8.1875 12.3125 C7.1975 12.6425 6.2075 12.9725 5.1875 13.3125 C4.5275 12.6525 3.8675 11.9925 3.1875 11.3125 C0.78756644 10.88807555 0.78756644 10.88807555 -1.875 10.75 C-6.71527778 10.40972222 -6.71527778 10.40972222 -7.8125 9.3125 C-8 5.875 -8 5.875 -7.8125 2.3125 C-5.14098149 -0.35901851 -3.72067468 0.01376328 0 0 Z " fill="#243861" transform="translate(227.8125,90.6875)"/>
<path d="M0 0 C0.66 -0.33 1.32 -0.66 2 -1 C2.33 0.32 2.66 1.64 3 3 C3.66 2.67 4.32 2.34 5 2 C6.61767644 6.09176982 7.57382686 8.80312838 6 13 C3.8125 16.3125 3.8125 16.3125 1 19 C-2.3125 19.375 -2.3125 19.375 -5 19 C-5.08004482 15.4780279 -5.04005702 12.38018531 -4 9 C-6.475 8.01 -6.475 8.01 -9 7 C-9.25 4.6875 -9.25 4.6875 -9 2 C-5.99067284 -1.34369684 -4.1553421 -1.09351108 0 0 Z " fill="#EAF3F8" transform="translate(302,248)"/>
<path d="M0 0 C2.140625 2.3828125 2.140625 2.3828125 4.25 5.125 C4.95640625 6.03507812 5.6628125 6.94515625 6.390625 7.8828125 C7.18726563 8.93082031 7.18726563 8.93082031 8 10 C5.18143601 12.90252121 2.5990615 15.10575711 -1 17 C-1.66 17 -2.32 17 -3 17 C-4.50332378 14.18926431 -6.00209735 11.37612794 -7.5 8.5625 C-7.92925781 7.76005859 -8.35851562 6.95761719 -8.80078125 6.13085938 C-9.20683594 5.36708984 -9.61289062 4.60332031 -10.03125 3.81640625 C-10.40830078 3.10943604 -10.78535156 2.40246582 -11.17382812 1.67407227 C-12 0 -12 0 -12 -1 C-3.57763975 -2.40372671 -3.57763975 -2.40372671 0 0 Z " fill="#EAF3F6" transform="translate(352,117)"/>
<path d="M0 0 C2.24609375 1.953125 2.24609375 1.953125 4.4921875 3.90625 C5.95936421 5.19572458 5.95936421 5.19572458 8 5 C8.12375 6.423125 8.12375 6.423125 8.25 7.875 C8.4975 8.90625 8.745 9.9375 9 11 C10.32467746 11.6837045 11.65863633 12.34964186 13 13 C14.25 16.125 14.25 16.125 15 19 C11.37 19.33 7.74 19.66 4 20 C4 18.35 4 16.7 4 15 C3.01 14.67 2.02 14.34 1 14 C-0.38226016 11.23547967 -0.09525387 8.9538637 -0.0625 5.875 C-0.05347656 4.77929688 -0.04445313 3.68359375 -0.03515625 2.5546875 C-0.02355469 1.71164063 -0.01195312 0.86859375 0 0 Z " fill="#F2A972" transform="translate(377,97)"/>
<path d="M0 0 C0.33 0 0.66 0 1 0 C1.14695313 0.54527344 1.29390625 1.09054688 1.4453125 1.65234375 C3.04803447 7.04080553 5.24492932 11.28193185 8.5 15.859375 C10 18 10 18 11.3515625 20.4765625 C13.32854741 23.50294224 15.55241509 25.37466518 18.375 27.625 C19.77878906 28.75808594 19.77878906 28.75808594 21.2109375 29.9140625 C23.73194374 31.79952095 26.26853668 33.44058276 29 35 C28.01 35.495 28.01 35.495 27 36 C14.48434358 30.4651878 6.77754355 22.07710748 -1 11 C-1.66 10.67 -2.32 10.34 -3 10 C-2.49287967 6.28111761 -1.88391785 3.26545761 0 0 Z " fill="#213762" transform="translate(132,129)"/>
<path d="M0 0 C6.12352638 4.51567309 12.0805035 9.22073438 18 14 C15.75 16.5625 15.75 16.5625 13 19 C9.87809214 18.96105728 8.909389 17.9106073 6.67578125 15.70703125 C5.89589844 14.75183594 5.11601562 13.79664062 4.3125 12.8125 C3.52488281 11.87019531 2.73726563 10.92789063 1.92578125 9.95703125 C-0.11358787 6.82558617 -0.76944905 4.7049002 -1 1 C-0.67 0.67 -0.34 0.34 0 0 Z " fill="#EC7C2A" transform="translate(349,108)"/>
<path d="M0 0 C0.03738281 0.61488281 0.07476562 1.22976562 0.11328125 1.86328125 C0.21189453 3.07564453 0.21189453 3.07564453 0.3125 4.3125 C0.39951172 5.51326172 0.39951172 5.51326172 0.48828125 6.73828125 C1.08206694 9.36272334 1.95780294 10.30820672 4 12 C1.6875 14.5 1.6875 14.5 -1 17 C-4 17 -4 17 -6.1875 15.5 C-8.26175158 12.63896334 -8.68963973 10.50342723 -8.53125 6.97265625 C-7.51009065 3.1808513 -4.04615994 0 0 0 Z " fill="#A9D2A1" transform="translate(307,227)"/>
<path d="M0 0 C-0.60730496 7.13583323 -2.9349622 14.70473321 -8 20 C-8.66 20 -9.32 20 -10 20 C-10 14.72 -10 9.44 -10 4 C-2.25 0 -2.25 0 0 0 Z " fill="#EC7B28" transform="translate(378,137)"/>
<path d="M0 0 C0.66 0.33 1.32 0.66 2 1 C1.50628906 1.32613281 1.01257813 1.65226563 0.50390625 1.98828125 C-0.13675781 2.42527344 -0.77742188 2.86226562 -1.4375 3.3125 C-2.07558594 3.74175781 -2.71367187 4.17101562 -3.37109375 4.61328125 C-5.2885684 6.0034052 -5.2885684 6.0034052 -6 9 C-5.67 9.99 -5.34 10.98 -5 12 C-2.03 12.495 -2.03 12.495 1 13 C-0.58923168 16.17846337 -3.37629802 16.77724929 -6.625 17.9375 C-9.30799602 18.88458824 -9.30799602 18.88458824 -11 22 C-11.33 20.68 -11.66 19.36 -12 18 C-12.66 18.33 -13.32 18.66 -14 19 C-13.61571608 13.33181216 -13.27229181 10.05867722 -9 6 C-6.06965193 3.88307614 -3.06949937 1.90859897 0 0 Z " fill="#9FCA96" transform="translate(318,233)"/>
<path d="M0 0 C0.33 0 0.66 0 1 0 C1 12.54 1 25.08 1 38 C2.98 38 4.96 38 7 38 C7 39.98 7 41.96 7 44 C1.06 44 -4.88 44 -11 44 C-8.08616689 42.05744459 -5.12736438 40.56368219 -2 39 C0.08204358 36.91795642 -0.74178708 32.4661444 -0.68359375 29.58984375 C-0.66281265 28.74780899 -0.64203156 27.90577423 -0.62062073 27.03822327 C-0.55503188 24.33806821 -0.49619724 21.63781283 -0.4375 18.9375 C-0.39432363 17.11131759 -0.35070964 15.28514546 -0.30664062 13.45898438 C-0.19934106 8.97276008 -0.09810034 4.4864345 0 0 Z " fill="#29386D" transform="translate(375,243)"/>
<path d="M0 0 C2.31 0 4.62 0 7 0 C5.97563167 4.4047838 4.49397252 7.33518642 0.86328125 10.1640625 C-2.69397043 11.75997835 -6.31180644 10.82779455 -10 10 C-9.01 9.34 -8.02 8.68 -7 8 C-7.99 7.34 -8.98 6.68 -10 6 C-9.34 5.67 -8.68 5.34 -8 5 C-7.34 4.01 -6.68 3.02 -6 2 C-4.35 2.33 -2.7 2.66 -1 3 C-0.67 2.01 -0.34 1.02 0 0 Z " fill="#A7D19F" transform="translate(330,238)"/>
<path d="M0 0 C0.99 0 1.98 0 3 0 C3 0.66 3 1.32 3 2 C4.27875 1.79375 5.5575 1.5875 6.875 1.375 C9.0546875 1.0234375 9.0546875 1.0234375 11 1 C13 3 13 3 13.23046875 5.12890625 C13.20919922 6.33353516 13.20919922 6.33353516 13.1875 7.5625 C13.18105469 8.36816406 13.17460937 9.17382812 13.16796875 10.00390625 C13 12 13 12 12 13 C9.32941149 13.14115161 6.67567762 13.04247107 4 13 C3.67 12.34 3.34 11.68 3 11 C4.98 11 6.96 11 9 11 C9 8.69 9 6.38 9 4 C8.07767578 4.12568359 8.07767578 4.12568359 7.13671875 4.25390625 C6.32847656 4.35574219 5.52023437 4.45757812 4.6875 4.5625 C3.88699219 4.66691406 3.08648437 4.77132812 2.26171875 4.87890625 C0 5 0 5 -3 4 C-3 6.97 -3 9.94 -3 13 C-3.66 12.67 -4.32 12.34 -5 12 C-5.75 8.625 -5.75 8.625 -6 5 C-5.34 4.01 -4.68 3.02 -4 2 C-2.68 2 -1.36 2 0 2 C0 1.34 0 0.68 0 0 Z " fill="#495B8A" transform="translate(336,103)"/>
<path d="M0 0 C8.57142857 -0.28571429 8.57142857 -0.28571429 12 2 C11.67 2.33 11.34 2.66 11 3 C12.65 3.33 14.3 3.66 16 4 C14.25 7.875 14.25 7.875 12 9 C9.9625237 9.22858114 7.91959697 9.41024278 5.875 9.5625 C4.77929688 9.64628906 3.68359375 9.73007813 2.5546875 9.81640625 C1.71164062 9.87699219 0.86859375 9.93757812 0 10 C0 9.34 0 8.68 0 8 C-0.66 7.67 -1.32 7.34 -2 7 C0.9465385 5.19933758 3.88801935 3.49836105 7 2 C5.02 2 3.04 2 1 2 C0.67 1.34 0.34 0.68 0 0 Z " fill="#B8DAB4" transform="translate(312,244)"/>
<path d="M0 0 C0.33 0 0.66 0 1 0 C1.50378767 3.10356432 2.00237413 6.20794223 2.5 9.3125 C2.64308594 10.19357422 2.78617187 11.07464844 2.93359375 11.98242188 C3.06894531 12.82998047 3.20429688 13.67753906 3.34375 14.55078125 C3.53227539 15.72120972 3.53227539 15.72120972 3.72460938 16.9152832 C4 19 4 19 4 22 C1.36 21.67 -1.28 21.34 -4 21 C-2.98208077 13.89622327 -1.90094901 6.92488567 0 0 Z " fill="#E4ECF5" transform="translate(390,244)"/>
<path d="M0 0 C1.61767644 4.09176982 2.57382686 6.80312838 1 11 C-0.51139091 13.29709593 -2.05073671 15.00432568 -4 17 C-4.99 17 -5.98 17 -7 17 C-7.34649648 11.22505861 -7.29726646 7.00696018 -4 2 C-1 0 -1 0 0 0 Z " fill="#D5E6DD" transform="translate(307,250)"/>
<path d="M0 0 C2.25 3.125 2.25 3.125 4 6 C0.87819599 6.96661363 -1.52083795 6.98988909 -4.75 6.5625 C-5.54921875 6.46066406 -6.3484375 6.35882813 -7.171875 6.25390625 C-7.77515625 6.17011719 -8.3784375 6.08632812 -9 6 C-9.99 3.69 -10.98 1.38 -12 -1 C-3.03614458 -2.4939759 -3.03614458 -2.4939759 0 0 Z " fill="#FCFCFA" transform="translate(352,117)"/>
<path d="M0 0 C2.31 0.33 4.62 0.66 7 1 C7 2.98 7 4.96 7 7 C0.93303301 7.77040851 -4.88514973 8.09706112 -11 8 C-11 7.34 -11 6.68 -11 6 C-10.28972656 5.81824219 -9.57945312 5.63648438 -8.84765625 5.44921875 C-7.46900391 5.07216797 -7.46900391 5.07216797 -6.0625 4.6875 C-5.14597656 4.44386719 -4.22945312 4.20023437 -3.28515625 3.94921875 C-2.53105469 3.63597656 -1.77695313 3.32273437 -1 3 C-0.67 2.01 -0.34 1.02 0 0 Z " fill="#223761" transform="translate(217,280)"/>
<path d="M0 0 C1.65 0 3.3 0 5 0 C5.3403125 1.794375 5.3403125 1.794375 5.6875 3.625 C7.2005522 9.68793965 10.80787474 13.53858316 16 17 C10.07771837 16.6446631 7.14979733 15.24411091 3 11 C0.62156922 7.19451075 -0.39605306 4.48860134 0 0 Z " fill="#FDB873" transform="translate(288,268)"/>
<path d="M0 0 C0.33 0 0.66 0 1 0 C1 4.29 1 8.58 1 13 C0.34 13 -0.32 13 -1 13 C-1 13.99 -1 14.98 -1 16 C-6.75 16.125 -6.75 16.125 -9 15 C-8.67 12.69 -8.34 10.38 -8 8 C-5.69 7.34 -3.38 6.68 -1 6 C-0.67 4.02 -0.34 2.04 0 0 Z " fill="#F7C29C" transform="translate(129,175)"/>
<path d="M0 0 C0.61875 0.680625 0.61875 0.680625 1.25 1.375 C3.58139465 3.53986646 5.97828036 4.12705877 9 5 C7 7 7 7 3.5234375 7.1953125 C2.14049032 7.18201493 0.75761346 7.15816232 -0.625 7.125 C-1.33140625 7.11597656 -2.0378125 7.10695313 -2.765625 7.09765625 C-4.51056098 7.07407603 -6.25532295 7.03820461 -8 7 C-8 5.02 -8 3.04 -8 1 C-2.25 0 -2.25 0 0 0 Z " fill="#293D65" transform="translate(155,280)"/>
<path d="M0 0 C2.05078125 0.03255208 4.1015625 0.06510417 6.15234375 0.09765625 C6.15234375 2.07765625 6.15234375 4.05765625 6.15234375 6.09765625 C3.69371974 6.15149473 1.23626825 6.19124663 -1.22265625 6.22265625 C-2.27066406 6.24779297 -2.27066406 6.24779297 -3.33984375 6.2734375 C-5.17663111 6.29109892 -7.01367588 6.20068886 -8.84765625 6.09765625 C-9.50765625 5.43765625 -10.16765625 4.77765625 -10.84765625 4.09765625 C-10.28175781 3.89269531 -9.71585937 3.68773437 -9.1328125 3.4765625 C-8.39933594 3.20714844 -7.66585938 2.93773437 -6.91015625 2.66015625 C-6.17925781 2.39332031 -5.44835937 2.12648438 -4.6953125 1.8515625 C-0.18098958 0.00956605 -0.18098958 0.00956605 0 0 Z " fill="#2F3C66" transform="translate(396.84765625,280.90234375)"/>
<path d="M0 0 C3 1 3 1 4.16796875 2.84765625 C4.50441406 3.57855469 4.84085937 4.30945313 5.1875 5.0625 C5.53167969 5.79597656 5.87585938 6.52945312 6.23046875 7.28515625 C6.48441406 7.85105469 6.73835938 8.41695313 7 9 C1.70558305 9.50423019 -0.81413519 8.18923033 -5 5 C-7.97 7.475 -7.97 7.475 -11 10 C-9.55424733 6.6265771 -7.7950914 4.38404854 -5 2 C-2.8125 1.3125 -2.8125 1.3125 -1 1 C-0.67 0.67 -0.34 0.34 0 0 Z " fill="#89B781" transform="translate(314,257)"/>
<path d="M0 0 C0.33 0.66 0.66 1.32 1 2 C3.31 2 5.62 2 8 2 C8.33 1.34 8.66 0.68 9 0 C9.75 2.75 9.75 2.75 10 6 C8.375 8.4375 8.375 8.4375 6 10 C3.375 9.9375 3.375 9.9375 1 9 C-1 6 -1 6 -0.625 2.8125 C-0.41875 1.884375 -0.2125 0.95625 0 0 Z " fill="#F2A975" transform="translate(184,168)"/>
<path d="M0 0 C3.49831816 2.30152511 4.86591472 3.64650244 6.375 7.625 C7 11 7 11 6 13 C6.66 13.33 7.32 13.66 8 14 C6.02 14.33 4.04 14.66 2 15 C-0.35119399 11.47320901 -0.21443452 9.97120515 -0.125 5.8125 C-0.10695313 4.72582031 -0.08890625 3.63914062 -0.0703125 2.51953125 C-0.04710937 1.68808594 -0.02390625 0.85664062 0 0 Z " fill="#FCB17B" transform="translate(377,97)"/>
<path d="M0 0 C3.65316671 1.24976756 4.78065836 1.67098753 7 5 C6.55555556 10.44444444 6.55555556 10.44444444 4 13 C3.01 13 2.02 13 1 13 C0.34 11.35 -0.32 9.7 -1 8 C-0.34 8 0.32 8 1 8 C0.67 5.36 0.34 2.72 0 0 Z " fill="#A8D2A0" transform="translate(291,237)"/>
<path d="M0 0 C1.134375 0.020625 2.26875 0.04125 3.4375 0.0625 C3.4375 2.0425 3.4375 4.0225 3.4375 6.0625 C-1.5125 6.0625 -6.4625 6.0625 -11.5625 6.0625 C-11.8925 5.4025 -12.2225 4.7425 -12.5625 4.0625 C-11.99660156 3.85753906 -11.43070313 3.65257812 -10.84765625 3.44140625 C-10.11417969 3.17199219 -9.38070312 2.90257812 -8.625 2.625 C-7.89410156 2.35816406 -7.16320312 2.09132813 -6.41015625 1.81640625 C-2.04654255 0.03590426 -2.04654255 0.03590426 0 0 Z " fill="#273C66" transform="translate(244.5625,280.9375)"/>
<path d="M0 0 C0.99 0.33 1.98 0.66 3 1 C3 1.66 3 2.32 3 3 C3.99 3.33 4.98 3.66 6 4 C5.01 4.66 4.02 5.32 3 6 C2.74969023 8.58380177 2.74969023 8.58380177 3 11 C1.35 10.67 -0.3 10.34 -2 10 C-2.6875 6.6875 -2.6875 6.6875 -3 3 C-1.5625 1.0625 -1.5625 1.0625 0 0 Z " fill="#ABD3A4" transform="translate(268,232)"/>
<path d="M0 0 C0.33 0.66 0.66 1.32 1 2 C1.99 2 2.98 2 4 2 C4.66 3.32 5.32 4.64 6 6 C3 8 3 8 0 7.875 C-3 7 -3 7 -4.875 5.0625 C-6 3 -6 3 -6 1 C-3.92446352 0.4465236 -2.15634036 0 0 0 Z " fill="#A7D19F" transform="translate(275,245)"/>
<path d="M0 0 C0.33 3.3 0.66 6.6 1 10 C-3.75 9.25 -3.75 9.25 -6 7 C-5.625 4.375 -5.625 4.375 -5 2 C-5.66 1.67 -6.32 1.34 -7 1 C-1.125 0 -1.125 0 0 0 Z " fill="#F6A777" transform="translate(264,179)"/>
<path d="M0 0 C1.670625 0.061875 1.670625 0.061875 3.375 0.125 C2.735625 0.393125 2.09625 0.66125 1.4375 0.9375 C-0.95631686 2.01167752 -0.95631686 2.01167752 -1.625 5.125 C0.85 7.105 0.85 7.105 3.375 9.125 C-2.77734375 10.00390625 -2.77734375 10.00390625 -4.625 10.125 C-5.625 9.125 -5.625 9.125 -5.8125 5.6875 C-5.55408081 0.77753534 -4.91598639 0.16951677 0 0 Z " fill="#1B325C" transform="translate(225.625,90.875)"/>
<path d="M0 0 C1.75 2.375 1.75 2.375 3 5 C2.67 5.99 2.34 6.98 2 8 C-1.37462715 7.45276317 -3.08235 6.9451 -6 5 C-6.1875 2.375 -6.1875 2.375 -6 0 C-3 -1 -3 -1 0 0 Z " fill="#F79C50" transform="translate(114,267)"/>
<path d="M0 0 C2.64 1.98 5.28 3.96 8 6 C7.34 7.32 6.68 8.64 6 10 C5.01 10.33 4.02 10.66 3 11 C-0.22265625 5.921875 -0.22265625 5.921875 -1 4 C-0.67 2.68 -0.34 1.36 0 0 Z " fill="#F08C41" transform="translate(349,108)"/>
<path d="M0 0 C2.64 0 5.28 0 8 0 C8 1.98 8 3.96 8 6 C5.36 6 2.72 6 0 6 C0 4.02 0 2.04 0 0 Z " fill="#F4F4F4" transform="translate(337,107)"/>
<path d="M0 0 C1.32 0.66 2.64 1.32 4 2 C4 3.65 4 5.3 4 7 C6.64 7 9.28 7 12 7 C12 7.33 12 7.66 12 8 C6.06 8.495 6.06 8.495 0 9 C-1.36623674 6.26752652 -1.128426 4.01801098 -1 1 C-0.67 0.67 -0.34 0.34 0 0 Z " fill="#EAAE84" transform="translate(333,106)"/>
<path d="M0 0 C0.66 1.65 1.32 3.3 2 5 C-1.3 5 -4.6 5 -8 5 C-8.33 4.01 -8.66 3.02 -9 2 C-5.5647952 -0.29013653 -4.014669 -0.17842973 0 0 Z " fill="#A8D1A0" transform="translate(286,252)"/>
<path d="M0 0 C1.32 0.66 2.64 1.32 4 2 C3.34 5.3 2.68 8.6 2 12 C1.34 12 0.68 12 0 12 C0 9.69 0 7.38 0 5 C-0.66 5 -1.32 5 -2 5 C-1.34 3.35 -0.68 1.7 0 0 Z " fill="#CADFD2" transform="translate(295,255)"/>
<path d="M0 0 C1.98 0.99 1.98 0.99 4 2 C4.33 2.99 4.66 3.98 5 5 C4.67 5.66 4.34 6.32 4 7 C3.34 7 2.68 7 2 7 C1.67 9.97 1.34 12.94 1 16 C0.67 16 0.34 16 0 16 C0 10.72 0 5.44 0 0 Z " fill="#F79D4D" transform="translate(130,182)"/>
<path d="M0 0 C0.66 0 1.32 0 2 0 C2.38063221 2.3260857 2.71269945 4.66055264 3 7 C2 8 2 8 0.15234375 8.09765625 C-1.8984375 8.06510417 -3.94921875 8.03255208 -6 8 C-6.33 7.34 -6.66 6.68 -7 6 C-5.02 5.67 -3.04 5.34 -1 5 C-0.67 3.35 -0.34 1.7 0 0 Z " fill="#334D8A" transform="translate(346,108)"/>
<path d="M0 0 C0.33 1.32 0.66 2.64 1 4 C1.99 4 2.98 4 4 4 C4 4.66 4 5.32 4 6 C4.66 6.33 5.32 6.66 6 7 C5.67 7.66 5.34 8.32 5 9 C4.34 8.67 3.68 8.34 3 8 C3 9.65 3 11.3 3 13 C0.75393573 11.22555028 0.04918998 10.41647515 -0.29296875 7.51953125 C-0.25816406 6.62621094 -0.22335938 5.73289062 -0.1875 4.8125 C-0.16042969 3.91144531 -0.13335937 3.01039062 -0.10546875 2.08203125 C-0.07066406 1.39496094 -0.03585938 0.70789063 0 0 Z " fill="#224089" transform="translate(138,95)"/>
<path d="M0 0 C3.19376532 1.59688266 4.57591496 4.83383035 6 8 C6 8.99 6 9.98 6 11 C4.35 10.67 2.7 10.34 1 10 C1.020625 9.278125 1.04125 8.55625 1.0625 7.8125 C1.00179441 5.08074862 0.60741465 2.65743909 0 0 Z " fill="#E1EAF1" transform="translate(104,275)"/>
<path d="M0 0 C0.05391993 1.79133978 0.09275571 3.58313899 0.125 5.375 C0.14820313 6.37273437 0.17140625 7.37046875 0.1953125 8.3984375 C0 11 0 11 -2 13 C-2.03738281 12.30132812 -2.07476562 11.60265625 -2.11328125 10.8828125 C-2.17902344 9.97273437 -2.24476563 9.06265625 -2.3125 8.125 C-2.37050781 7.22007812 -2.42851562 6.31515625 -2.48828125 5.3828125 C-2.7882039 2.63778399 -2.7882039 2.63778399 -6 1 C-1.125 0 -1.125 0 0 0 Z " fill="#34446D" transform="translate(406,186)"/>
<path d="M0 0 C1.98 0.66 3.96 1.32 6 2 C5.360625 2.28875 4.72125 2.5775 4.0625 2.875 C1.84793921 3.82823451 1.84793921 3.82823451 1 6 C-0.32 5.67 -1.64 5.34 -3 5 C-2.01 3.35 -1.02 1.7 0 0 Z " fill="#9ECA95" transform="translate(323,227)"/>
<path d="M0 0 C0.33 0 0.66 0 1 0 C1.24954005 1.43410368 1.47392642 2.87260072 1.6875 4.3125 C1.87892578 5.51326172 1.87892578 5.51326172 2.07421875 6.73828125 C2 9 2 9 0.51953125 10.79296875 C0.01808594 11.19128906 -0.48335938 11.58960938 -1 12 C-2.45606519 7.47907032 -1.27032841 4.48351204 0 0 Z " fill="#DAE2ED" transform="translate(390,244)"/>
<path d="M0 0 C0.66 0.33 1.32 0.66 2 1 C1.54625 1.515625 1.0925 2.03125 0.625 2.5625 C-1.37327809 5.55991714 -2.02429802 8.55251967 -3 12 C-3.99 12.495 -3.99 12.495 -5 13 C-4.61271765 7.28758534 -4.12989477 4.26311718 0 0 Z " fill="#85B57C" transform="translate(309,239)"/>
<path d="M0 0 C0 0.99 0 1.98 0 3 C0.99 2.67 1.98 2.34 3 2 C3.33 2.66 3.66 3.32 4 4 C0.37 4.33 -3.26 4.66 -7 5 C-7 4.01 -7 3.02 -7 2 C-2.25 0 -2.25 0 0 0 Z " fill="#FCB07A" transform="translate(388,112)"/>
<path d="M0 0 C0.33 1.65 0.66 3.3 1 5 C-4.53846154 4.38461538 -4.53846154 4.38461538 -6.875 2.4375 C-7.24625 1.963125 -7.6175 1.48875 -8 1 C-5.29120665 -0.35439668 -2.99066732 -0.06501451 0 0 Z " fill="#C5DFC2" transform="translate(288,250)"/>
<path d="M0 0 C0 1.98 0 3.96 0 6 C-1.65 5.67 -3.3 5.34 -5 5 C-4.6875 3.0625 -4.6875 3.0625 -4 1 C-1 0 -1 0 0 0 Z " fill="#203560" transform="translate(248,281)"/>
<path d="M0 0 C0.33 0 0.66 0 1 0 C1 4.29 1 8.58 1 13 C-2 10 -2 10 -3 7 C-2.34 6.67 -1.68 6.34 -1 6 C-0.34227572 2.97065509 -0.34227572 2.97065509 0 0 Z " fill="#E4EDF1" transform="translate(129,175)"/>
<path d="M0 0 C1.8125 0.125 1.8125 0.125 4 1 C5.75 4.0625 5.75 4.0625 7 7 C5.02 7 3.04 7 1 7 C1.20625 6.21625 1.4125 5.4325 1.625 4.625 C1.74875 3.75875 1.8725 2.8925 2 2 C1.34 1.34 0.68 0.68 0 0 Z " fill="#9FC69B" transform="translate(314,259)"/>
<path d="M0 0 C2.97 0.495 2.97 0.495 6 1 C6 2.32 6 3.64 6 5 C5.34 5 4.68 5 4 5 C3.67 5.66 3.34 6.32 3 7 C2.01 4.69 1.02 2.38 0 0 Z " fill="#ACD2A5" transform="translate(279,232)"/>
<path d="M0 0 C2.475 0.99 2.475 0.99 5 2 C5 2.99 5 3.98 5 5 C2.69 4.67 0.38 4.34 -2 4 C-2 3.34 -2 2.68 -2 2 C-1.34 2 -0.68 2 0 2 C0 1.34 0 0.68 0 0 Z " fill="#293E66" transform="translate(114,283)"/>
<path d="M0 0 C0 1.65 0 3.3 0 5 C-0.66 5 -1.32 5 -2 5 C-2 7.31 -2 9.62 -2 12 C-2.33 12 -2.66 12 -3 12 C-3.83220851 8.02389268 -4.23098442 4.9167686 -3 1 C-1 0 -1 0 0 0 Z " fill="#ADD3A8" transform="translate(310,243)"/>
<path d="M0 0 C3.375 -0.125 3.375 -0.125 7 0 C7.66 0.66 8.32 1.32 9 2 C8.625 4.125 8.625 4.125 8 6 C8 5.34 8 4.68 8 4 C7.05125 3.896875 6.1025 3.79375 5.125 3.6875 C2 3 2 3 0 0 Z " fill="#1F3C86" transform="translate(148,91)"/>
<path d="M0 0 C0.33 0 0.66 0 1 0 C1 2.31 1 4.62 1 7 C1.66 7.33 2.32 7.66 3 8 C1.68 8.33 0.36 8.66 -1 9 C-1.09765625 2.84765625 -1.09765625 2.84765625 -1 1 C-0.67 0.67 -0.34 0.34 0 0 Z " fill="#DDE6EF" transform="translate(383,278)"/>
<path d="M0 0 C0.66 0.33 1.32 0.66 2 1 C2 2.32 2 3.64 2 5 C2.66 5 3.32 5 4 5 C3.67 5.66 3.34 6.32 3 7 C0.03 6.505 0.03 6.505 -3 6 C-2.34 5.67 -1.68 5.34 -1 5 C-0.34444881 2.47266765 -0.34444881 2.47266765 0 0 Z " fill="#AED4AA" transform="translate(290,250)"/>
<path d="M0 0 C0.99 0.33 1.98 0.66 3 1 C3 3.31 3 5.62 3 8 C1.68 7.01 0.36 6.02 -1 5 C-0.67 3.35 -0.34 1.7 0 0 Z " fill="#FBB784" transform="translate(259,181)"/>
<path d="M0 0 C-4.75 4 -4.75 4 -7 4 C-7 2.68 -7 1.36 -7 0 C-3.98968256 -0.93423645 -3.13349732 -1.04449911 0 0 Z " fill="#EC9558" transform="translate(234,114)"/>
<path d="M0 0 C1.2065625 0.0309375 1.2065625 0.0309375 2.4375 0.0625 C0.81410195 1.77134005 -0.85569053 3.43696717 -2.5625 5.0625 C-3.2225 5.0625 -3.8825 5.0625 -4.5625 5.0625 C-3.43829114 0.08386076 -3.43829114 0.08386076 0 0 Z " fill="#E6E8EC" transform="translate(209.5625,152.9375)"/>
<path d="M0 0 C2.31 0.33 4.62 0.66 7 1 C7 2.32 7 3.64 7 5 C3.34683329 3.75023244 2.21934164 3.32901247 0 0 Z " fill="#EC9357" transform="translate(143,113)"/>
<path d="M0 0 C2.0625 0.6875 2.0625 0.6875 5.0625 2.6875 C2.0925 2.6875 -0.8775 2.6875 -3.9375 2.6875 C-3.9375 2.0275 -3.9375 1.3675 -3.9375 0.6875 C-1.9375 -0.3125 -1.9375 -0.3125 0 0 Z " fill="#233256" transform="translate(209.9375,285.3125)"/>
<path d="M0 0 C3.465 1.98 3.465 1.98 7 4 C6.34 4.66 5.68 5.32 5 6 C1.875 5.625 1.875 5.625 -1 5 C-0.34 4.34 0.32 3.68 1 3 C0.67 2.01 0.34 1.02 0 0 Z " fill="#DDEAE3" transform="translate(319,262)"/>
<path d="M0 0 C0.99 0.33 1.98 0.66 3 1 C2.67 2.32 2.34 3.64 2 5 C0.35 4.67 -1.3 4.34 -3 4 C-2.34 3.67 -1.68 3.34 -1 3 C-0.67 2.01 -0.34 1.02 0 0 Z " fill="#A9D2A1" transform="translate(287,235)"/>
<path d="M0 0 C1.32 0.66 2.64 1.32 4 2 C2.35 3.32 0.7 4.64 -1 6 C-1.66 5.67 -2.32 5.34 -3 5 C-2.01 3.35 -1.02 1.7 0 0 Z " fill="#F1AE80" transform="translate(141,113)"/>
<path d="M0 0 C0.66 0.33 1.32 0.66 2 1 C1.67 4.3 1.34 7.6 1 11 C0.67 11 0.34 11 0 11 C-0.19406478 9.35492782 -0.38007935 7.70890406 -0.5625 6.0625 C-0.66691406 5.14597656 -0.77132813 4.22945312 -0.87890625 3.28515625 C-0.91886719 2.53105469 -0.95882813 1.77695313 -1 1 C-0.67 0.67 -0.34 0.34 0 0 Z " fill="#EBECEA" transform="translate(405,157)"/>
<path d="M0 0 C3.67420866 0.30618405 4.78135513 0.75771784 7.3125 3.5625 C8.1478125 4.7690625 8.1478125 4.7690625 9 6 C6 6 6 6 3.9375 4.125 C3.298125 3.42375 2.65875 2.7225 2 2 C1.34 1.34 0.68 0.68 0 0 Z " fill="#E3EAF2" transform="translate(150,121)"/>
<path d="M0 0 C0 0.66 0 1.32 0 2 C2.31 2 4.62 2 7 2 C7 2.33 7 2.66 7 3 C2.545 3.495 2.545 3.495 -2 4 C-2.66 3.01 -3.32 2.02 -4 1 C-2 0 -2 0 0 0 Z " fill="#1B377C" transform="translate(338,104)"/>
<path d="M0 0 C3.96 0.33 7.92 0.66 12 1 C12 1.33 12 1.66 12 2 C10.02 2 8.04 2 6 2 C6 2.66 6 3.32 6 4 C4 3 4 3 0 0 Z " fill="#3E5994" transform="translate(142,91)"/>
</svg>
