<?xml version="1.0" encoding="UTF-8"?>
<!-- Generator: visioncortex VTracer 0.6.3 -->
<svg version="1.1" xmlns="http://www.w3.org/2000/svg" width="1280" height="1049">
<path d="M0 0 C0.33 0.99 0.66 1.98 1 3 C1.58 3.12 2.15 3.25 2.75 3.38 C6.15 4.32 7.74 6.37 10 9 C10.81 11.31 10.81 11.31 11 13 C11.99 12.67 12.98 12.34 14 12 C15.67 14.75 17.29 17.51 18.88 20.31 C20.43 23.04 22.01 25.75 23.62 28.44 C24.23 29.46 24.23 29.46 24.85 30.5 C25.23 30.99 25.61 31.49 26 32 C26.66 32 27.32 32 28 32 C28.19 32.93 28.19 32.93 28.38 33.88 C28.87 36.19 28.87 36.19 31 38 C31 40 31 42 31 44 C31.59 46.48 32.26 48.94 33 51.38 C33.37 52.62 33.74 53.87 34.12 55.15 C34.41 56.09 34.7 57.03 35 58 C35.66 58 36.32 58 37 58 C37.73 65.84 38.21 73.2 37 81 C36.34 81 35.68 81 35 81 C34.79 81.99 34.58 82.99 34.37 84.01 C31.06 98.94 25.22 110.44 15 122 C14.52 122.62 14.04 123.24 13.55 123.88 C5 134.93 -7.59 141.3 -20 147 C-20 147.33 -20 147.66 -20 148 C13.66 148.5 13.66 148.5 48 149 C48.33 146.36 48.66 143.72 49 141 C49.36 139.32 49.76 137.65 50.21 135.98 C50.57 134.63 50.57 134.63 50.94 133.24 C51.34 131.79 51.34 131.79 51.74 130.32 C52.02 129.29 52.29 128.26 52.58 127.2 C53.48 123.84 54.4 120.48 55.31 117.12 C55.95 114.79 56.58 112.45 57.21 110.11 C64.44 83.48 72.04 56.96 79.83 30.5 C81.77 23.87 83.57 17.22 85.27 10.54 C86 8 86 8 87 7 C89.24 6.9 91.48 6.88 93.73 6.88 C94.79 6.88 94.79 6.88 95.88 6.88 C98.28 6.88 100.68 6.88 103.09 6.89 C104.8 6.89 106.52 6.89 108.23 6.89 C112.9 6.89 117.57 6.89 122.24 6.9 C127.11 6.9 131.99 6.91 136.86 6.91 C146.1 6.91 155.33 6.92 164.57 6.93 C175.08 6.94 185.59 6.94 196.11 6.95 C217.74 6.96 239.37 6.98 261 7 C261.03 11.48 261.05 15.96 261.06 20.44 C261.07 21.72 261.08 23 261.09 24.31 C261.09 25.53 261.09 26.74 261.1 28 C261.1 29.12 261.11 30.25 261.11 31.41 C261 34 261 34 260 35 C258.28 35.12 256.56 35.18 254.84 35.21 C253.19 35.24 253.19 35.24 251.5 35.27 C249.7 35.29 249.7 35.29 247.87 35.32 C246.65 35.34 245.43 35.36 244.18 35.38 C240.26 35.45 236.35 35.5 232.44 35.56 C229.79 35.61 227.15 35.65 224.5 35.69 C218 35.8 211.5 35.9 205 36 C205 35.67 205 35.34 205 35 C192.74 34.03 192.74 34.03 182 39 C177.96 44.87 177.91 51.76 177.68 58.7 C177.66 59.34 177.64 59.99 177.62 60.65 C177.55 62.81 177.49 64.97 177.44 67.12 C177.42 67.88 177.4 68.63 177.37 69.4 C176.95 85.02 176.89 100.63 176.88 116.25 C176.87 117.42 176.87 118.59 176.87 119.8 C176.86 123.16 176.86 126.53 176.87 129.89 C176.87 130.89 176.86 131.9 176.86 132.93 C176.87 134.35 176.87 134.35 176.87 135.8 C176.87 136.61 176.87 137.43 176.87 138.27 C177.04 141.86 177.55 145.43 178 149 C226.51 149.33 275.02 149.66 325 150 C327 154 327 154 326.45 156.81 C326.08 157.86 325.71 158.92 325.33 160.01 C324.93 161.16 324.53 162.31 324.12 163.5 C323.69 164.69 323.26 165.89 322.81 167.12 C322.4 168.33 321.99 169.54 321.56 170.78 C318.4 179.73 318.4 179.73 315 182 C312.13 182.21 309.35 182.31 306.48 182.32 C305.17 182.33 305.17 182.33 303.84 182.35 C300.93 182.38 298.02 182.4 295.11 182.41 C293.06 182.43 291.01 182.45 288.96 182.47 C283.51 182.52 278.07 182.56 272.62 182.6 C268.31 182.63 263.99 182.67 259.68 182.71 C246.12 182.84 232.56 182.93 219 183 C217.99 183.01 216.99 183.01 215.95 183.02 C210.18 183.04 204.41 183.07 198.64 183.08 C196.88 183.08 195.12 183.09 193.36 183.1 C190.97 183.11 188.57 183.11 186.18 183.11 C185.12 183.12 185.12 183.12 184.04 183.12 C179.23 183.11 179.23 183.11 177 182 C177.11 190.02 177.22 198.03 177.34 206.05 C177.39 209.77 177.45 213.5 177.5 217.22 C177.71 233.16 177.94 249.09 179 265 C180.15 265.01 180.15 265.01 181.32 265.02 C188.54 265.1 195.77 265.19 202.99 265.29 C206.71 265.34 210.42 265.38 214.13 265.42 C217.72 265.46 221.3 265.51 224.89 265.56 C226.26 265.58 227.62 265.59 228.99 265.6 C230.91 265.62 232.82 265.65 234.74 265.68 C235.83 265.69 236.92 265.71 238.04 265.72 C241.05 266.01 243.27 266.73 246 268 C245.41 281.96 239.02 291.48 231.48 302.78 C229.17 306.25 226.89 309.75 224.62 313.25 C224.18 313.94 223.73 314.64 223.26 315.35 C217.94 323.59 212.81 331.95 207.66 340.31 C206.02 342.97 204.36 345.64 202.71 348.3 C196.7 357.96 190.77 367.65 184.96 377.43 C184.5 378.2 184.03 378.98 183.56 379.78 C183.16 380.45 182.76 381.12 182.35 381.82 C181 384 181 384 178.87 386.62 C176.29 391.28 176.48 395.05 176.57 400.29 C176.58 401.33 176.58 402.38 176.58 403.46 C176.6 407 176.64 410.53 176.69 414.06 C176.71 416.58 176.73 419.09 176.74 421.6 C176.78 426.46 176.83 431.33 176.88 436.19 C176.98 444.68 177.03 453.17 177.06 461.66 C177.09 469.33 177.14 476.99 177.19 484.66 C177.23 489.41 177.25 494.17 177.27 498.92 C177.28 503.45 177.32 507.99 177.37 512.52 C177.38 514.19 177.39 515.87 177.39 517.54 C177.4 528.06 178.5 537.03 182 547 C186.5 544.81 190.49 542.38 194.44 539.31 C195.01 538.87 195.58 538.43 196.16 537.98 C200.68 534.4 204.48 530.57 208 526 C208.48 525.41 208.97 524.82 209.47 524.22 C227.27 501.87 235.58 471.84 240.67 444.22 C241.08 442.16 241.08 442.16 242 439 C244.84 438.05 246.68 437.87 249.62 437.88 C250.82 437.87 250.82 437.87 252.04 437.87 C254 438 254 438 255 439 C255.39 446.18 254.89 453.42 254.47 460.59 C254.41 461.58 254.35 462.58 254.29 463.6 C254.11 466.86 253.91 470.11 253.72 473.37 C253.59 475.65 253.46 477.94 253.33 480.22 C253.05 485 252.77 489.77 252.49 494.55 C252.13 500.64 251.78 506.73 251.43 512.82 C251.16 517.54 250.88 522.25 250.61 526.97 C250.48 529.21 250.35 531.46 250.22 533.7 C249.92 538.76 249.62 543.82 249.31 548.88 C249.11 552.02 248.95 555.15 248.83 558.28 C248.75 560.05 248.75 560.05 248.66 561.85 C248.63 562.82 248.59 563.79 248.56 564.79 C248 567 248 567 246.2 568.3 C242.67 569.42 239.1 569.32 235.44 569.34 C234.61 569.36 233.78 569.37 232.93 569.39 C229.39 569.45 225.85 569.49 222.32 569.53 C219.73 569.57 217.15 569.61 214.56 569.66 C213.76 569.66 212.97 569.67 212.14 569.67 C208.3 569.74 205.25 569.83 202 572 C206.17 573.16 210.24 573.19 214.54 573.25 C216.25 573.28 217.96 573.31 219.68 573.35 C222.36 573.39 225.04 573.44 227.73 573.48 C252.8 573.86 252.8 573.86 259 578 C259 578.66 259 579.32 259 580 C259.02 581.43 259.05 582.85 259.07 584.28 C259.09 586.02 259.11 587.76 259.12 589.5 C259.14 590.38 259.16 591.26 259.18 592.17 C259.19 593.43 259.19 593.43 259.2 594.72 C259.21 595.88 259.21 595.88 259.23 597.06 C259 599 259 599 257 601 C254.49 601.28 252.07 601.47 249.56 601.56 C244.21 601.77 244.21 601.77 239 603 C236.08 603.1 233.18 603.13 230.26 603.13 C229.35 603.13 228.45 603.13 227.52 603.13 C224.47 603.14 221.43 603.13 218.39 603.13 C216.21 603.13 214.04 603.13 211.86 603.13 C205.94 603.14 200.02 603.14 194.1 603.13 C187.92 603.13 181.74 603.13 175.55 603.14 C165.17 603.14 154.79 603.14 144.41 603.13 C132.39 603.12 120.36 603.13 108.34 603.13 C98.04 603.14 87.73 603.14 77.43 603.13 C71.27 603.13 65.1 603.13 58.94 603.14 C53.15 603.14 47.36 603.14 41.57 603.13 C39.44 603.13 37.31 603.13 35.18 603.13 C32.28 603.14 29.39 603.13 26.49 603.13 C25.64 603.13 24.78 603.13 23.9 603.13 C18.11 603.11 18.11 603.11 17 602 C16.75 597.53 16.81 593.04 16.81 588.56 C16.8 587.3 16.79 586.03 16.78 584.72 C16.77 583.52 16.77 582.31 16.77 581.07 C16.77 579.95 16.76 578.84 16.76 577.69 C17 575 17 575 19 573 C21.87 572.79 21.87 572.79 25.51 572.84 C26.83 572.85 28.14 572.86 29.5 572.87 C30.89 572.89 32.29 572.92 33.69 572.94 C35.74 572.97 37.8 572.99 39.85 573.01 C41.73 573.03 43.61 573.05 45.48 573.08 C49.06 573 52.47 572.58 56 572 C53.17 571.06 51.24 570.84 48.29 570.75 C47.37 570.72 46.46 570.69 45.52 570.65 C43.6 570.59 41.68 570.54 39.76 570.48 C30.65 570.14 30.65 570.14 27 568 C24.54 564.32 24.78 562.84 25.41 558.62 C27.36 549.92 33.35 541.99 38.06 534.56 C38.72 533.52 39.38 532.47 40.06 531.4 C41.4 529.27 42.74 527.15 44.08 525.03 C45.83 522.27 47.56 519.51 49.3 516.74 C54.18 508.95 59.14 501.21 64.27 493.57 C67.97 488.07 71.58 482.5 75.17 476.93 C77.51 473.3 79.87 469.69 82.31 466.12 C84.92 462.23 87.15 458.18 89.35 454.05 C90.57 451.78 91.83 449.55 93.12 447.33 C93.48 446.7 93.85 446.08 94.22 445.43 C94.93 444.21 95.65 442.99 96.37 441.77 C99.4 436.57 100.13 432.92 100.12 426.94 C100.12 425.7 100.12 424.45 100.12 423.17 C100.12 421.8 100.12 420.43 100.11 419.05 C100.11 417.6 100.11 416.15 100.11 414.71 C100.11 410.77 100.11 406.84 100.1 402.91 C100.1 398.8 100.09 394.69 100.09 390.58 C100.09 382.8 100.08 375.02 100.07 367.24 C100.06 358.38 100.06 349.52 100.05 340.67 C100.04 322.44 100.02 304.22 100 286 C95.05 286.76 92.51 288.84 89 292.25 C88.49 292.73 87.98 293.21 87.46 293.7 C77.62 303.01 69.81 312.21 63 324 C62.55 324.76 62.1 325.52 61.64 326.3 C59.41 330.34 58.79 333.52 58.47 338.18 C57.56 343.63 55.39 348.75 53.47 353.91 C51.14 360.29 49.75 366.19 49.34 372.96 C49.23 373.63 49.12 374.31 49 375 C46.53 376.24 44.82 376.13 42.06 376.12 C41.19 376.13 40.31 376.13 39.41 376.13 C37 376 37 376 34 375 C32.68 370.45 33.42 366.57 34.27 362.02 C36.35 349.95 37.33 337.79 38.36 325.6 C38.69 321.71 39.03 317.83 39.37 313.95 C39.58 311.46 39.8 308.97 40.01 306.48 C40.11 305.33 40.21 304.18 40.31 303 C40.76 297.64 41.12 292.37 41 287 C40.32 288.14 40.32 288.14 39.62 289.31 C38.46 291.24 37.25 293.13 36 295 C34.51 297.73 33.52 300.35 32.72 303.35 C32.49 304.21 32.26 305.07 32.02 305.95 C31.78 306.88 31.53 307.81 31.28 308.77 C30.89 310.23 30.89 310.23 30.49 311.71 C29.92 313.8 29.37 315.9 28.81 317.99 C27.34 323.48 25.87 328.96 24.39 334.45 C23.95 336.08 23.95 336.08 23.5 337.74 C21.13 346.56 18.68 355.35 16.19 364.12 C13.34 374.14 10.6 384.18 7.94 394.25 C3.97 409.23 -0.28 424.12 -4.58 439.01 C-9.57 456.25 -14.45 473.5 -18.99 490.86 C-22.13 502.87 -25.46 514.81 -28.86 526.75 C-31.89 537.36 -34.82 547.99 -37.67 558.65 C-37.98 559.82 -38.3 560.99 -38.62 562.19 C-40.16 567.97 -41.7 573.74 -43.23 579.52 C-43.8 581.66 -44.37 583.79 -44.93 585.92 C-45.18 586.88 -45.43 587.84 -45.69 588.82 C-50.39 606.39 -50.39 606.39 -54 610 C-56.85 610.15 -59.59 610.19 -62.44 610.12 C-63.21 610.12 -63.99 610.11 -64.79 610.1 C-66.86 610.07 -68.93 610.04 -71 610 C-71.99 610 -72.98 610 -74 610 C-74.33 608.72 -74.65 607.44 -74.99 606.12 C-75.43 604.42 -75.87 602.71 -76.31 601 C-76.53 600.16 -76.74 599.32 -76.96 598.46 C-78.15 593.88 -79.51 589.49 -81.23 585.09 C-82.75 580.96 -83.92 576.73 -85.12 572.5 C-85.39 571.6 -85.65 570.7 -85.93 569.78 C-87.44 564.51 -88.48 559.46 -89 554 C-89.66 554 -90.32 554 -91 554 C-91.23 553.16 -91.46 552.32 -91.7 551.46 C-95.91 536.2 -100.21 521 -105.12 505.96 C-107.38 499.01 -109.48 492.02 -111.5 485 C-113.76 477.12 -116.15 469.3 -118.69 461.5 C-122.3 450.36 -125.7 439.16 -129.06 427.94 C-129.32 427.07 -129.58 426.21 -129.85 425.31 C-133.24 413.99 -136.6 402.65 -139.86 391.29 C-140.97 387.44 -142.11 383.62 -143.39 379.83 C-145.64 373.16 -147.65 366.42 -149.69 359.69 C-149.9 358.97 -150.12 358.26 -150.35 357.52 C-153.85 345.96 -157.23 334.36 -160.49 322.72 C-160.94 321.1 -160.94 321.1 -161.41 319.45 C-161.8 318.05 -161.8 318.05 -162.2 316.61 C-162.97 313.97 -162.97 313.97 -164.05 311.37 C-165.71 307.24 -166.29 302.83 -167.12 298.47 C-168.01 294.96 -169.35 292.21 -171 289 C-171.72 286.83 -172.39 284.64 -173 282.44 C-173.34 281.21 -173.68 279.99 -174.03 278.73 C-174.94 275.25 -175.73 271.76 -176.5 268.25 C-177.59 263.35 -179.13 258.94 -181.09 254.34 C-182.26 251.32 -182.88 248.31 -183.5 245.14 C-184 243.01 -184.68 241.09 -185.5 239.06 C-187 235.3 -187.74 231.58 -188.38 227.59 C-189.03 224.9 -190.06 222.53 -191.19 220.01 C-192.76 216.11 -193.77 212.04 -194.88 208 C-197.06 200.15 -199.44 192.43 -202.12 184.74 C-203 182 -203 182 -203 180 C-214.22 180 -225.44 180 -237 180 C-236.67 180.66 -236.34 181.32 -236 182 C-235.91 183.43 -235.88 184.87 -235.88 186.3 C-235.88 187.66 -235.88 187.66 -235.88 189.04 C-235.88 190.03 -235.88 191.03 -235.89 192.05 C-235.89 193.09 -235.89 194.14 -235.89 195.21 C-235.89 198.68 -235.89 202.14 -235.9 205.6 C-235.9 208 -235.91 210.39 -235.91 212.79 C-235.91 219.11 -235.92 225.42 -235.93 231.74 C-235.94 238.18 -235.95 244.62 -235.95 251.06 C-235.96 263.71 -235.98 276.35 -236 289 C-235.67 289 -235.34 289 -235 289 C-234.99 290.77 -234.99 290.77 -234.99 292.58 C-234.89 320.64 -234.78 348.71 -234.67 376.77 C-234.66 380.23 -234.64 383.69 -234.63 387.14 C-234.62 387.83 -234.62 388.52 -234.62 389.23 C-234.58 400.36 -234.53 411.49 -234.5 422.63 C-234.45 434.05 -234.41 445.48 -234.36 456.91 C-234.34 463.33 -234.31 469.75 -234.29 476.16 C-234.27 482.21 -234.25 488.25 -234.22 494.29 C-234.21 496.5 -234.2 498.72 -234.2 500.93 C-234.19 503.97 -234.17 507 -234.16 510.03 C-234.16 511.33 -234.16 511.33 -234.16 512.66 C-234.12 517.75 -233.8 522.74 -233.24 527.79 C-233.02 529.79 -232.85 531.8 -232.69 533.81 C-231.89 537.53 -230.5 539.2 -228 542 C-226.02 545.23 -225.57 548.28 -225 552 C-223.62 554.75 -221.63 555.51 -219 557 C-219.33 557.99 -219.66 558.98 -220 560 C-219.34 560 -218.68 560 -218 560 C-218 560.66 -218 561.32 -218 562 C-217.24 562.1 -216.47 562.21 -215.69 562.31 C-213 563 -213 563 -211.7 564.38 C-209.43 566.55 -207.08 567.44 -204.19 568.62 C-202.66 569.26 -202.66 569.26 -201.11 569.91 C-195.24 571.96 -189.53 572.16 -183.39 572.25 C-181.73 572.28 -180.08 572.31 -178.42 572.35 C-175.82 572.39 -173.23 572.44 -170.63 572.48 C-168.11 572.52 -165.6 572.57 -163.08 572.62 C-162.3 572.63 -161.52 572.64 -160.71 572.65 C-155.23 572.77 -155.23 572.77 -153 575 C-152.85 577.41 -152.85 577.41 -152.99 580.41 C-153.06 582.02 -153.06 582.02 -153.13 583.66 C-153.22 585.34 -153.22 585.34 -153.31 587.06 C-153.36 588.19 -153.41 589.32 -153.46 590.48 C-153.86 598.86 -153.86 598.86 -155 600 C-157.14 600.23 -159.29 600.4 -161.44 600.54 C-163.4 600.67 -163.4 600.67 -165.4 600.8 C-166.79 600.89 -168.17 600.97 -169.56 601.06 C-170.96 601.15 -172.35 601.25 -173.74 601.34 C-177.16 601.56 -180.58 601.78 -184 602 C-184 602.33 -184 602.66 -184 603 C-205.87 603.02 -227.74 603.04 -249.61 603.05 C-259.76 603.06 -269.92 603.06 -280.07 603.08 C-288.92 603.09 -297.77 603.09 -306.61 603.09 C-311.3 603.1 -315.99 603.1 -320.68 603.11 C-325.08 603.11 -329.49 603.11 -333.9 603.11 C-335.52 603.11 -337.14 603.12 -338.76 603.12 C-340.97 603.12 -343.18 603.12 -345.38 603.12 C-346.62 603.12 -347.86 603.12 -349.13 603.12 C-352 603 -352 603 -354 602 C-354.26 581.33 -354.26 581.33 -353 574 C-349.69 572.35 -346.01 572.95 -342.38 573 C-322.4 573.12 -303.62 572.76 -288.2 558.42 C-268.71 536.99 -271.69 506.7 -271.68 479.75 C-271.68 475.73 -271.66 471.7 -271.65 467.68 C-271.63 460.74 -271.61 453.79 -271.6 446.85 C-271.59 436.81 -271.56 426.77 -271.54 416.73 C-271.49 400.44 -271.45 384.15 -271.42 367.85 C-271.39 352.04 -271.36 336.22 -271.32 320.41 C-271.31 319.42 -271.31 318.44 -271.31 317.42 C-271.29 309.7 -271.27 301.98 -271.25 294.25 C-271.15 256.5 -271.08 218.75 -271 181 C-343.93 181 -416.86 181 -492 181 C-491.27 173.74 -490.4 168.57 -488 162 C-486.98 158.87 -485.97 155.74 -484.96 152.6 C-484 150 -484 150 -482 147 C-479.19 146.71 -476.6 146.61 -473.79 146.64 C-472.5 146.64 -472.5 146.64 -471.18 146.63 C-468.29 146.63 -465.39 146.64 -462.5 146.66 C-460.43 146.66 -458.36 146.66 -456.29 146.66 C-450.66 146.66 -445.02 146.67 -439.39 146.7 C-433.51 146.71 -427.63 146.72 -421.75 146.72 C-410.61 146.73 -399.47 146.75 -388.33 146.78 C-375.64 146.82 -362.96 146.83 -350.28 146.85 C-324.19 146.88 -298.09 146.93 -272 147 C-271.95 134.66 -271.92 122.31 -271.9 109.97 C-271.89 104.24 -271.87 98.5 -271.85 92.77 C-271.83 87.23 -271.82 81.7 -271.81 76.16 C-271.81 74.05 -271.8 71.94 -271.79 69.84 C-271.77 66.87 -271.77 63.91 -271.77 60.95 C-271.76 59.66 -271.76 59.66 -271.75 58.34 C-271.77 52.36 -272.64 46.82 -274 41 C-274.99 40.67 -275.98 40.34 -277 40 C-277.33 39.01 -277.66 38.02 -278 37 C-281.98 34.79 -285.49 34.79 -289.98 34.88 C-290.66 34.89 -291.34 34.9 -292.04 34.91 C-294.28 34.95 -296.53 35.01 -298.77 35.06 C-300.33 35.09 -301.89 35.11 -303.45 35.14 C-307.54 35.21 -311.64 35.3 -315.73 35.38 C-322.31 35.52 -328.88 35.65 -335.45 35.76 C-337.75 35.81 -340.04 35.86 -342.34 35.91 C-343.74 35.94 -345.14 35.96 -346.54 35.99 C-347.77 36.02 -348.99 36.04 -350.26 36.07 C-353 36 -353 36 -354 35 C-354.03 33.01 -353.99 31.02 -353.91 29.03 C-353.85 27.22 -353.85 27.22 -353.78 25.36 C-353.73 24.09 -353.68 22.81 -353.62 21.5 C-353.56 19.59 -353.56 19.59 -353.49 17.64 C-353.13 8.13 -353.13 8.13 -352 7 C-350.66 6.89 -349.31 6.85 -347.97 6.84 C-347.1 6.83 -346.23 6.82 -345.33 6.81 C-344.36 6.81 -343.4 6.8 -342.41 6.79 C-340.89 6.78 -340.89 6.78 -339.33 6.76 C-335.94 6.73 -332.54 6.71 -329.14 6.68 C-326.76 6.66 -324.37 6.64 -321.98 6.62 C-315.58 6.56 -309.18 6.52 -302.78 6.47 C-298.83 6.44 -294.89 6.41 -290.94 6.37 C-252.63 6.06 -214.32 5.84 -176 6 C-174.34 11.51 -172.69 17.03 -171.11 22.56 C-170.77 23.75 -170.43 24.95 -170.08 26.18 C-169.14 29.49 -168.2 32.81 -167.27 36.13 C-163.19 50.55 -159.11 64.95 -154.47 79.21 C-152 86.85 -149.84 94.56 -147.71 102.29 C-145.45 110.45 -143.09 118.57 -140.69 126.69 C-140.35 127.83 -140.01 128.97 -139.66 130.14 C-138.35 134.58 -138.35 134.58 -137 139 C-136.51 140.6 -136.51 140.6 -136.02 142.23 C-135.19 145.09 -135.19 145.09 -133 147 C-130.31 147.23 -127.71 147.35 -125.01 147.38 C-124.2 147.4 -123.4 147.41 -122.57 147.43 C-119.94 147.48 -117.31 147.52 -114.69 147.56 C-111.13 147.63 -107.57 147.71 -104.01 147.78 C-103.14 147.8 -102.26 147.82 -101.37 147.83 C-91.9 148.03 -82.45 148.46 -73 149 C-73 148.34 -73 147.68 -73 147 C-73.91 146.71 -74.82 146.42 -75.75 146.12 C-82.06 143.94 -82.06 143.94 -84.41 141.59 C-87.01 139 -90.02 137 -93 134.88 C-93.63 134.42 -94.26 133.96 -94.91 133.5 C-97.58 131.59 -99.86 130.05 -103 129 C-104.38 127.75 -104.38 127.75 -106 126 C-106.72 125.34 -107.44 124.68 -108.19 124 C-115.64 116.46 -120.43 107.9 -124 98 C-124.3 97.23 -124.59 96.46 -124.9 95.66 C-132.38 75.13 -129.68 52.52 -120.62 33.04 C-109.84 12.1 -90.83 -3.29 -68.81 -11.14 C-46.01 -17.64 -19.28 -14.25 0 0 Z M-47 2 C-47 2.33 -47 2.66 -47 3 C-44.69 3 -42.38 3 -40 3 C-40 2.67 -40 2.34 -40 2 C-42.31 2 -44.62 2 -47 2 Z M-58 3 C-58 3.33 -58 3.66 -58 4 C-56.02 4 -54.04 4 -52 4 C-52 3.67 -52 3.34 -52 3 C-53.98 3 -55.96 3 -58 3 Z M-40 3 C-40 3.33 -40 3.66 -40 4 C-37.69 4 -35.38 4 -33 4 C-33 3.67 -33 3.34 -33 3 C-35.31 3 -37.62 3 -40 3 Z M-62 4 C-58 5 -58 5 -58 5 Z M-62 5 C-63.44 5.17 -63.44 5.17 -64.9 5.35 C-79.81 8.49 -93.16 20.13 -101.62 32.34 C-109.82 45.28 -115.37 62.61 -113 78 C-110.78 89.89 -110.78 89.89 -105 100 C-104.31 101.32 -103.64 102.66 -103 104 C-100.25 109.03 -98.15 112.22 -93 115 C-92.32 116.33 -91.65 117.66 -91 119 C-89.07 120.09 -89.07 120.09 -87 121 C-86.57 121.5 -86.13 121.99 -85.69 122.5 C-83.17 124.74 -80.21 125.11 -77 126 C-76.67 126.66 -76.34 127.32 -76 128 C-59.19 135.48 -42.11 137.2 -24.56 131.31 C-6.46 124.32 6.31 113 14.45 95.55 C20.62 81.39 21.64 63.56 16 49 C15.48 47.63 15.48 47.63 14.95 46.23 C14.27 44.51 13.58 42.8 12.87 41.09 C12.18 39.42 11.57 37.72 11 36 C10.5 35.5 10.01 35.01 9.5 34.5 C8 33 8 33 7 30 C5.71 28.62 4.37 27.29 3 26 C0.84 23.91 -1.09 21.88 -2.94 19.5 C-9.39 11.68 -19.93 5.47 -30 4 C-40.61 3.36 -51.46 3.67 -62 5 Z M-349 33 C-349 33.33 -349 33.66 -349 34 C-332.17 34 -315.34 34 -298 34 C-298 33.67 -298 33.34 -298 33 C-314.83 33 -331.66 33 -349 33 Z M206 33 C206 33.33 206 33.66 206 34 C209.3 34 212.6 34 216 34 C216 33.67 216 33.34 216 33 C212.7 33 209.4 33 206 33 Z M258 8 C258.5 20.38 258.5 20.38 259 33 C245.14 33 231.28 33 217 33 C217 33.33 217 33.66 217 34 C231.19 34 245.38 34 260 34 C260 25.42 260 16.84 260 8 C259.34 8 258.68 8 258 8 Z M97 70 C98 72 98 72 98 72 Z M96 72 C90.76 90.51 85.52 109.03 80.38 127.56 C80.04 128.74 79.72 129.92 79.38 131.14 C79.07 132.23 78.77 133.32 78.46 134.44 C78.2 135.38 77.94 136.31 77.67 137.28 C76.02 142.72 76.02 142.72 77 148 C76.01 148.5 76.01 148.5 75 149 C78.6 149.2 82.21 149.38 85.81 149.56 C86.84 149.62 87.86 149.67 88.92 149.73 C89.9 149.78 90.88 149.83 91.89 149.88 C92.8 149.93 93.71 149.97 94.64 150.02 C97.15 150.12 97.15 150.12 100 149 C100.07 139.4 100.12 129.81 100.16 120.21 C100.17 115.75 100.19 111.3 100.23 106.84 C100.26 102.54 100.28 98.25 100.28 93.95 C100.29 92.3 100.3 90.66 100.32 89.02 C100.34 86.73 100.34 84.43 100.34 82.13 C100.35 80.83 100.35 79.52 100.36 78.17 C100.27 75.02 100.27 75.02 98.54 73.05 C97.17 71.91 97.17 71.91 96 72 Z M-236 81 C-235.67 81.66 -235.34 82.32 -235 83 C-234.67 82.34 -234.34 81.68 -234 81 C-234.66 81 -235.32 81 -236 81 Z M-237 83 C-237 97.85 -237 112.7 -237 128 C-236.67 128 -236.34 128 -236 128 C-236 113.15 -236 98.3 -236 83 C-236.33 83 -236.66 83 -237 83 Z M-234 84 C-235.78 85.78 -235.17 88.4 -235.21 90.8 C-235.23 92.05 -235.25 93.29 -235.27 94.57 C-235.28 95.93 -235.3 97.3 -235.32 98.66 C-235.34 100.05 -235.36 101.44 -235.38 102.83 C-235.43 106.49 -235.48 110.15 -235.53 113.81 C-235.58 117.54 -235.64 121.28 -235.69 125.01 C-235.8 132.34 -235.9 139.67 -236 147 C-234.58 147.17 -233.16 147.33 -231.75 147.49 C-230.56 147.63 -230.56 147.63 -229.35 147.77 C-226.04 148.09 -222.76 148.09 -219.44 148.06 C-218.22 148.05 -217 148.04 -215.75 148.04 C-214.39 148.02 -214.39 148.02 -213 148 C-213.61 142.2 -215.19 137.11 -217.12 131.62 C-220.3 122.41 -223.01 113.12 -225.51 103.7 C-227.23 97.34 -228.99 90.89 -232 85 C-232.66 84.67 -233.32 84.34 -234 84 Z M-238 128 C-237 130 -237 130 -237 130 Z M-238 131 C-238 135.62 -238 140.24 -238 145 C-237.67 145 -237.34 145 -237 145 C-237 140.38 -237 135.76 -237 131 C-237.33 131 -237.66 131 -238 131 Z M-491 178 C-491 178.33 -491 178.66 -491 179 C-475.49 179 -459.98 179 -444 179 C-444 178.67 -444 178.34 -444 178 C-459.51 178 -475.02 178 -491 178 Z M-441 178 C-437 179 -437 179 -437 179 Z M-430 179 C-430 179.33 -430 179.66 -430 180 C-377.86 180 -325.72 180 -272 180 C-272 179.67 -272 179.34 -272 179 C-324.14 179 -376.28 179 -430 179 Z M-119 180 C-119 180.33 -119 180.66 -119 181 C-86.33 181 -53.66 181 -20 181 C-20 180.67 -20 180.34 -20 180 C-52.67 180 -85.34 180 -119 180 Z M67 181 C63.79 187.99 63.79 187.99 61.45 195.06 C61.09 196.39 61.09 196.39 60.72 197.75 C60.35 199.15 60.35 199.15 59.98 200.57 C59.71 201.57 59.44 202.57 59.16 203.59 C58.31 206.77 57.47 209.95 56.62 213.12 C56.07 215.2 55.51 217.28 54.95 219.36 C53.84 223.49 52.74 227.63 51.65 231.77 C50.53 236.02 49.38 240.27 48.21 244.51 C47.65 246.59 47.09 248.66 46.52 250.74 C46.25 251.7 45.99 252.66 45.71 253.65 C45.47 254.54 45.23 255.43 44.98 256.35 C44.77 257.13 44.55 257.91 44.33 258.72 C43.95 261.38 44.34 263.41 45 266 C51.69 266.03 58.38 266.04 65.07 266.05 C67.34 266.06 69.62 266.07 71.89 266.08 C75.17 266.09 78.44 266.09 81.72 266.1 C82.73 266.1 83.74 266.11 84.78 266.11 C85.74 266.11 86.7 266.11 87.69 266.11 C88.94 266.12 88.94 266.12 90.22 266.12 C93.85 265.96 97.39 265.48 101 265 C100.89 254.34 100.78 243.69 100.66 233.03 C100.61 228.08 100.55 223.13 100.5 218.19 C100.46 213.41 100.4 208.64 100.35 203.87 C100.33 202.04 100.31 200.22 100.29 198.4 C100.27 195.85 100.24 193.3 100.21 190.75 C100.2 189.62 100.2 189.62 100.19 188.45 C100.2 184.6 100.2 184.6 99 181 C88.44 181 77.88 181 67 181 Z M179 181 C179 181.33 179 181.66 179 182 C184.94 182 190.88 182 197 182 C197 181.67 197 181.34 197 181 C191.06 181 185.12 181 179 181 Z M198 181 C198 181.33 198 181.66 198 182 C199.98 182 201.96 182 204 182 C204 181.67 204 181.34 204 181 C202.02 181 200.04 181 198 181 Z M205 181 C205 181.33 205 181.66 205 182 C206.65 182 208.3 182 210 182 C210 181.67 210 181.34 210 181 C208.35 181 206.7 181 205 181 Z M211 181 C215 182 215 182 215 182 Z M-238 182 C-238 190.91 -238 199.82 -238 209 C-237.67 209 -237.34 209 -237 209 C-237 200.09 -237 191.18 -237 182 C-237.33 182 -237.66 182 -238 182 Z M-74.62 181.5 C-75.8 181.51 -76.97 181.52 -78.17 181.54 C-92.78 181.69 -107.39 181.84 -122 182 C-122.18 183.26 -122.35 184.52 -122.53 185.82 C-122.63 186.52 -122.73 187.23 -122.83 187.96 C-123.06 190.78 -122.48 192.99 -121.6 195.67 C-121.29 196.67 -120.97 197.66 -120.65 198.68 C-120.31 199.7 -119.97 200.71 -119.62 201.75 C-118.97 203.79 -118.32 205.82 -117.66 207.86 C-117.22 209.2 -117.22 209.2 -116.77 210.56 C-116.1 212.7 -115.54 214.83 -115 217 C-114.32 219.29 -113.63 221.58 -112.93 223.87 C-112.5 225.27 -112.08 226.66 -111.65 228.06 C-110.99 230.22 -110.33 232.38 -109.67 234.54 C-107.06 243.08 -104.52 251.63 -102.08 260.23 C-98.98 271.17 -95.69 282.06 -92.38 292.94 C-91.53 295.71 -90.69 298.49 -89.84 301.26 C-89.3 303.04 -88.76 304.82 -88.22 306.6 C-87.03 310.52 -85.87 314.44 -84.82 318.4 C-84.48 319.67 -84.14 320.94 -83.79 322.25 C-83.51 323.35 -83.23 324.45 -82.94 325.58 C-82.48 326.78 -82.48 326.78 -82 328 C-81.01 328.33 -80.02 328.66 -79 329 C-79.2 329.69 -79.4 330.38 -79.6 331.09 C-80.1 334.69 -79.42 337.08 -78.41 340.57 C-78.23 341.21 -78.05 341.84 -77.87 342.49 C-77.28 344.56 -76.67 346.62 -76.06 348.69 C-75.64 350.15 -75.22 351.61 -74.8 353.07 C-72.08 362.49 -69.25 371.87 -66.32 381.23 C-64.02 388.58 -61.83 395.96 -59.68 403.36 C-59.09 405.39 -58.5 407.42 -57.91 409.45 C-57.02 412.5 -56.13 415.55 -55.25 418.61 C-54.43 421.47 -53.59 424.33 -52.76 427.19 C-52.51 428.07 -52.26 428.94 -52 429.84 C-51.4 431.91 -50.71 433.96 -50 436 C-49.34 436.33 -48.68 436.66 -48 437 C-47.79 439.01 -47.59 441.03 -47.41 443.04 C-46.9 446.74 -46.05 450.33 -45.12 453.94 C-44.96 454.6 -44.8 455.26 -44.64 455.95 C-43.65 459.67 -43.33 460.78 -40 463 C-36 455.09 -33.98 446.89 -31.83 438.34 C-28.96 426.99 -26.09 415.67 -22.38 404.56 C-19.03 394.54 -16.41 384.37 -13.84 374.13 C-12 366.83 -10.05 359.59 -7.96 352.36 C-6.47 347.13 -5.08 341.88 -3.69 336.62 C-1.07 326.8 1.71 317.04 4.58 307.29 C6.85 299.56 8.97 291.8 11 284 C13.57 274.19 16.27 264.43 19.01 254.67 C20.84 248.15 22.66 241.64 24.46 235.12 C24.68 234.35 24.89 233.59 25.11 232.8 C26.19 228.89 27.27 224.98 28.36 221.07 C30.19 214.45 32.03 207.83 33.97 201.24 C34.26 200.27 34.54 199.3 34.83 198.31 C35.34 196.59 35.85 194.87 36.38 193.16 C36.7 192.05 36.7 192.05 37.04 190.91 C37.23 190.29 37.41 189.68 37.61 189.04 C38.13 186.34 38.06 183.74 38 181 C0.45 180.84 -37.08 181.12 -74.62 181.5 Z M-124 183 C-123 186 -123 186 -123 186 Z M-238 210 C-238 216.93 -238 223.86 -238 231 C-237.67 231 -237.34 231 -237 231 C-237 224.07 -237 217.14 -237 210 C-237.33 210 -237.66 210 -238 210 Z M-238 232 C-238 247.18 -238 262.36 -238 278 C-237.67 278 -237.34 278 -237 278 C-237 262.82 -237 247.64 -237 232 C-237.33 232 -237.66 232 -238 232 Z M176 246 C176 251.94 176 257.88 176 264 C176.33 264 176.66 264 177 264 C177 258.06 177 252.12 177 246 C176.67 246 176.34 246 176 246 Z M175 279 C175.66 279.66 176.32 280.32 177 281 C177 280.34 177 279.68 177 279 C176.34 279 175.68 279 175 279 Z M177 281 C177.33 290.9 177.66 300.8 178 311 C181.9 309.05 182.55 308.66 184.56 305.19 C184.96 304.52 185.35 303.85 185.75 303.17 C186.17 302.45 186.58 301.74 187 301 C189.69 296.45 192.57 292.04 195.48 287.62 C196.83 285.28 197.43 283.59 198 281 C194.88 280.8 191.75 280.62 188.62 280.44 C187.74 280.38 186.85 280.33 185.93 280.27 C185.08 280.22 184.23 280.17 183.35 280.12 C182.17 280.05 182.17 280.05 180.97 279.98 C178.92 279.86 178.92 279.86 177 281 Z M98 283 C99 285 99 285 99 285 Z M37 284 C38 287 38 287 38 287 Z M176 284 C176 292.91 176 301.82 176 311 C176.33 311 176.66 311 177 311 C177 302.09 177 293.18 177 284 C176.67 284 176.34 284 176 284 Z M36 287 C37 291 37 291 37 291 Z M57 335 C58 337 58 337 58 337 Z M56 337 C57 340 57 340 57 340 Z M55 340 C56 342 56 342 56 342 Z M54 342 C55 345 55 345 55 345 Z M53 345 C54 348 54 348 54 348 Z M52 348 C53 350 53 350 53 350 Z M51 350 C52 353 52 353 52 353 Z M50 353 C51 356 51 356 51 356 Z M49 356 C50 360 50 360 50 360 Z M48 360 C49 363 49 363 49 363 Z M47 363 C48 365 48 365 48 365 Z M47 371 C47 371.66 47 372.32 47 373 C45.02 373 43.04 373 41 373 C41 373.33 41 373.66 41 374 C43.31 374 45.62 374 48 374 C47.67 373.01 47.34 372.02 47 371 Z M175 390 C176 393 176 393 176 393 Z M253 440 C254 444 254 444 254 444 Z M252 445 C253 449 253 449 253 449 Z M252 455 C252 457.97 252 460.94 252 464 C252.33 464 252.66 464 253 464 C253 461.03 253 458.06 253 455 C252.67 455 252.34 455 252 455 Z M251 464 C251 469.28 251 474.56 251 480 C251.33 480 251.66 480 252 480 C252 474.72 252 469.44 252 464 C251.67 464 251.34 464 251 464 Z M250 480 C250 485.94 250 491.88 250 498 C250.33 498 250.66 498 251 498 C251 492.06 251 486.12 251 480 C250.67 480 250.34 480 250 480 Z M249 499 C249 504.61 249 510.22 249 516 C249.33 516 249.66 516 250 516 C250 510.39 250 504.78 250 499 C249.67 499 249.34 499 249 499 Z M97 514 C91.11 522.61 85.51 531.31 80.31 540.36 C78.37 543.73 76.44 546.96 74 550 C74.83 552.17 74.83 552.17 77 553 C78.67 553.08 80.34 553.11 82.01 553.1 C82.99 553.09 83.98 553.09 85 553.09 C86.54 553.08 86.54 553.08 88.12 553.06 C89.17 553.06 90.21 553.05 91.28 553.05 C93.85 553.04 96.43 553.02 99 553 C100.25 540.34 100.1 527.7 100 515 C99.01 514.67 98.02 514.34 97 514 Z M248 517 C248 522.28 248 527.56 248 533 C248.33 533 248.66 533 249 533 C249 527.72 249 522.44 249 517 C248.67 517 248.34 517 248 517 Z M-237 518 C-236 522 -236 522 -236 522 Z M-236 522 C-236 523.65 -236 525.3 -236 527 C-235.67 527 -235.34 527 -235 527 C-235 525.35 -235 523.7 -235 522 C-235.33 522 -235.66 522 -236 522 Z M-235 527 C-234 530 -234 530 -234 530 Z M247 533 C248 536 248 536 248 536 Z M247 540 C247 543.63 247 547.26 247 551 C247.33 551 247.66 551 248 551 C248 547.37 248 543.74 248 540 C247.67 540 247.34 540 247 540 Z M-229 545 C-228 547 -228 547 -228 547 Z M-228 547 C-227 549 -227 549 -227 549 Z M246 551 C246 553.64 246 556.28 246 559 C246.33 559 246.66 559 247 559 C247 556.36 247 553.72 247 551 C246.67 551 246.34 551 246 551 Z M246 560 C246 561.65 246 563.3 246 565 C244.35 565 242.7 565 241 565 C241 565.33 241 565.66 241 566 C242.98 566 244.96 566 247 566 C247 564.02 247 562.04 247 560 C246.67 560 246.34 560 246 560 Z M-351 600 C-351 600.33 -351 600.66 -351 601 C-349.35 601 -347.7 601 -346 601 C-346 600.67 -346 600.34 -346 600 C-347.65 600 -349.3 600 -351 600 Z M-344 600 C-344 600.33 -344 600.66 -344 601 C-327.17 601 -310.34 601 -293 601 C-293 600.67 -293 600.34 -293 600 C-309.83 600 -326.66 600 -344 600 Z M-259 600 C-259 600.33 -259 600.66 -259 601 C-257.02 601 -255.04 601 -253 601 C-253 600.67 -253 600.34 -253 600 C-254.98 600 -256.96 600 -259 600 Z M-242 600 C-242 600.33 -242 600.66 -242 601 C-240.35 601 -238.7 601 -237 601 C-237 600.67 -237 600.34 -237 600 C-238.65 600 -240.3 600 -242 600 Z M77 600 C77 600.33 77 600.66 77 601 C82.94 601 88.88 601 95 601 C95 600.67 95 600.34 95 600 C89.06 600 83.12 600 77 600 Z M96 600 C96 600.33 96 600.66 96 601 C101.28 601 106.56 601 112 601 C112 600.67 112 600.34 112 600 C106.72 600 101.44 600 96 600 Z M136 600 C136 600.33 136 600.66 136 601 C140.29 601 144.58 601 149 601 C149 600.67 149 600.34 149 600 C144.71 600 140.42 600 136 600 Z M166 600 C166 600.33 166 600.66 166 601 C188.77 601 211.54 601 235 601 C235 600.67 235 600.34 235 600 C212.23 600 189.46 600 166 600 Z M236 600 C236 600.33 236 600.66 236 601 C237.65 601 239.3 601 241 601 C241 600.67 241 600.34 241 600 C239.35 600 237.7 600 236 600 Z M-237 601 C-237 601.33 -237 601.66 -237 602 C-229.41 602 -221.82 602 -214 602 C-214 601.67 -214 601.34 -214 601 C-221.59 601 -229.18 601 -237 601 Z M20 601 C20 601.33 20 601.66 20 602 C28.25 602 36.5 602 45 602 C45 601.67 45 601.34 45 601 C36.75 601 28.5 601 20 601 Z M46 601 C46 601.33 46 601.66 46 602 C48.97 602 51.94 602 55 602 C55 601.67 55 601.34 55 601 C52.03 601 49.06 601 46 601 Z M59 601 C59 601.33 59 601.66 59 602 C63.95 602 68.9 602 74 602 C74 601.67 74 601.34 74 601 C69.05 601 64.1 601 59 601 Z " fill="#000" transform="translate(689,208)"/>
<path d="M0 0 C0.33 0 0.66 0 1 0 C1.33 6.27 1.66 12.54 2 19 C4.78 19.03 4.78 19.03 7.61 19.06 C13.74 19.13 19.87 19.2 25.99 19.29 C29.71 19.34 33.42 19.38 37.13 19.42 C40.72 19.46 44.3 19.51 47.89 19.56 C49.26 19.58 50.62 19.59 51.99 19.6 C53.91 19.62 55.82 19.65 57.74 19.68 C58.83 19.69 59.92 19.71 61.04 19.72 C64.05 20.01 66.27 20.73 69 22 C68.41 35.96 62.02 45.48 54.48 56.78 C52.17 60.25 49.89 63.75 47.62 67.25 C47.18 67.94 46.73 68.64 46.26 69.35 C40.94 77.59 35.81 85.95 30.66 94.31 C29.02 96.97 27.36 99.64 25.71 102.3 C19.7 111.96 13.77 121.65 7.96 131.43 C7.5 132.2 7.03 132.98 6.56 133.78 C6.16 134.45 5.76 135.12 5.35 135.82 C4 138 4 138 1.87 140.62 C-0.71 145.28 -0.52 149.05 -0.43 154.29 C-0.42 155.86 -0.42 155.86 -0.42 157.46 C-0.4 161 -0.36 164.53 -0.31 168.06 C-0.29 170.58 -0.27 173.09 -0.26 175.6 C-0.22 180.46 -0.17 185.33 -0.12 190.19 C-0.02 198.68 0.03 207.17 0.06 215.66 C0.09 223.33 0.14 230.99 0.19 238.66 C0.23 243.41 0.25 248.17 0.27 252.92 C0.28 257.45 0.32 261.99 0.37 266.52 C0.38 268.19 0.39 269.87 0.39 271.54 C0.4 282.06 1.5 291.03 5 301 C9.5 298.81 13.49 296.38 17.44 293.31 C18.01 292.87 18.58 292.43 19.16 291.98 C23.68 288.4 27.48 284.57 31 280 C31.48 279.41 31.97 278.82 32.47 278.22 C50.27 255.87 58.58 225.84 63.67 198.22 C64.08 196.16 64.08 196.16 65 193 C67.84 192.05 69.68 191.87 72.62 191.88 C73.82 191.87 73.82 191.87 75.04 191.87 C77 192 77 192 78 193 C78.39 200.18 77.89 207.42 77.47 214.59 C77.38 216.08 77.38 216.08 77.29 217.6 C77.11 220.86 76.91 224.11 76.72 227.37 C76.59 229.65 76.46 231.94 76.33 234.22 C76.05 239 75.77 243.77 75.49 248.55 C75.13 254.64 74.78 260.73 74.43 266.82 C74.16 271.54 73.88 276.25 73.61 280.97 C73.48 283.21 73.35 285.46 73.22 287.7 C72.92 292.76 72.62 297.82 72.31 302.88 C72.11 306.02 71.95 309.15 71.83 312.28 C71.78 313.46 71.72 314.64 71.66 315.85 C71.63 316.82 71.59 317.79 71.56 318.79 C71 321 71 321 69.2 322.3 C65.67 323.42 62.1 323.32 58.44 323.34 C57.61 323.36 56.78 323.37 55.93 323.39 C52.39 323.45 48.85 323.49 45.32 323.53 C42.73 323.57 40.15 323.61 37.56 323.66 C36.37 323.66 36.37 323.66 35.14 323.67 C31.3 323.74 28.25 323.83 25 326 C29.17 327.16 33.24 327.19 37.54 327.25 C39.25 327.28 40.96 327.31 42.68 327.35 C45.36 327.39 48.04 327.44 50.73 327.48 C75.8 327.86 75.8 327.86 82 332 C82 332.66 82 333.32 82 334 C82.02 335.43 82.05 336.85 82.07 338.28 C82.09 340.02 82.11 341.76 82.12 343.5 C82.14 344.38 82.16 345.26 82.18 346.17 C82.18 347.01 82.19 347.85 82.2 348.72 C82.21 349.88 82.21 349.88 82.23 351.06 C82 353 82 353 80 355 C77.49 355.28 75.07 355.47 72.56 355.56 C67.21 355.77 67.21 355.77 62 357 C59.08 357.1 56.18 357.13 53.26 357.13 C52.35 357.13 51.45 357.13 50.52 357.13 C47.47 357.14 44.43 357.13 41.39 357.13 C39.21 357.13 37.04 357.13 34.86 357.13 C28.94 357.14 23.02 357.14 17.1 357.13 C10.92 357.13 4.74 357.13 -1.45 357.14 C-11.83 357.14 -22.21 357.14 -32.59 357.13 C-44.61 357.12 -56.64 357.13 -68.66 357.13 C-78.96 357.14 -89.27 357.14 -99.57 357.13 C-105.73 357.13 -111.9 357.13 -118.06 357.14 C-123.85 357.14 -129.64 357.14 -135.43 357.13 C-137.56 357.13 -139.69 357.13 -141.82 357.13 C-144.72 357.14 -147.61 357.13 -150.51 357.13 C-151.36 357.13 -152.22 357.13 -153.1 357.13 C-158.89 357.11 -158.89 357.11 -160 356 C-160.25 351.53 -160.19 347.04 -160.19 342.56 C-160.21 340.66 -160.21 340.66 -160.22 338.72 C-160.23 337.52 -160.23 336.31 -160.23 335.07 C-160.23 333.95 -160.24 332.84 -160.24 331.69 C-160 329 -160 329 -158 327 C-155.13 326.79 -155.13 326.79 -151.49 326.84 C-150.17 326.85 -148.86 326.86 -147.5 326.87 C-146.11 326.89 -144.71 326.92 -143.31 326.94 C-141.26 326.97 -139.2 326.99 -137.15 327.01 C-135.27 327.03 -133.39 327.05 -131.52 327.08 C-127.94 327 -124.53 326.58 -121 326 C-123.83 325.06 -125.76 324.84 -128.71 324.75 C-129.63 324.72 -130.54 324.69 -131.48 324.65 C-133.4 324.59 -135.32 324.54 -137.24 324.48 C-146.35 324.14 -146.35 324.14 -150 322 C-152.46 318.32 -152.22 316.84 -151.59 312.62 C-149.64 303.92 -143.65 295.99 -138.94 288.56 C-137.95 287 -137.95 287 -136.94 285.4 C-135.6 283.27 -134.26 281.15 -132.92 279.03 C-131.17 276.27 -129.44 273.51 -127.7 270.74 C-122.82 262.95 -117.86 255.21 -112.73 247.57 C-109.03 242.07 -105.42 236.5 -101.83 230.93 C-99.49 227.3 -97.13 223.69 -94.69 220.12 C-92.08 216.23 -89.85 212.18 -87.65 208.05 C-85.41 203.91 -83.07 199.84 -80.72 195.77 C-79.05 192.89 -77.44 190 -76 187 C-75.34 187 -74.68 187 -74 187 C-72.46 184.98 -72.46 184.98 -70.91 182.35 C-69.99 180.85 -69.99 180.85 -69.05 179.33 C-68.39 178.25 -67.74 177.17 -67.06 176.06 C-65.69 173.83 -64.32 171.61 -62.94 169.38 C-62.27 168.28 -61.59 167.19 -60.9 166.06 C-58.48 162.17 -56.01 158.33 -53.5 154.5 C-47.1 144.68 -40.92 134.72 -34.72 124.77 C-32.38 121.01 -30.04 117.25 -27.69 113.5 C-26.9 112.24 -26.11 110.98 -25.33 109.72 C-23.72 107.14 -22.1 104.57 -20.48 102 C-16.27 95.28 -12.09 88.55 -8 81.75 C-7.44 80.82 -7.44 80.82 -6.87 79.87 C-2.48 72.54 -0.97 67.12 -0.68 58.51 C-0.64 57.31 -0.6 56.11 -0.56 54.88 C-0.52 53.64 -0.48 52.4 -0.44 51.12 C-0.39 49.86 -0.35 48.6 -0.31 47.3 C-0.2 44.2 -0.1 41.1 0 38 C0.33 38 0.66 38 1 38 C1 46.91 1 55.82 1 65 C4.89 61.11 7.6 57.35 10.4 52.66 C12.65 48.93 15.02 45.28 17.38 41.62 C18.72 39.45 19.91 37.3 21 35 C20.21 35.01 19.43 35.02 18.62 35.04 C12.96 35.08 7.57 35.01 2 34 C1.67 34.99 1.34 35.98 1 37 C0.67 35.68 0.34 34.36 0 33 C-2.31 32.34 -4.62 31.68 -7 31 C-7.22 29.54 -7.43 28.08 -7.62 26.62 C-7.74 25.81 -7.86 25 -7.98 24.16 C-7.98 23.45 -7.99 22.74 -8 22 C-7.34 21.34 -6.68 20.68 -6 20 C-4.35 20 -2.7 20 -1 20 C-0.67 13.4 -0.34 6.8 0 0 Z M-2 144 C-1 147 -1 147 -1 147 Z M76 194 C77 198 77 198 77 198 Z M75 199 C76 203 76 203 76 203 Z M75 209 C75 211.97 75 214.94 75 218 C75.33 218 75.66 218 76 218 C76 215.03 76 212.06 76 209 C75.67 209 75.34 209 75 209 Z M74 218 C74 223.28 74 228.56 74 234 C74.33 234 74.66 234 75 234 C75 228.72 75 223.44 75 218 C74.67 218 74.34 218 74 218 Z M73 234 C73 239.94 73 245.88 73 252 C73.33 252 73.66 252 74 252 C74 246.06 74 240.12 74 234 C73.67 234 73.34 234 73 234 Z M72 253 C72 258.61 72 264.22 72 270 C72.33 270 72.66 270 73 270 C73 264.39 73 258.78 73 253 C72.67 253 72.34 253 72 253 Z M-80 268 C-85.89 276.61 -91.49 285.31 -96.69 294.36 C-98.63 297.73 -100.56 300.96 -103 304 C-102.17 306.17 -102.17 306.17 -100 307 C-98.33 307.08 -96.66 307.11 -94.99 307.1 C-94.01 307.09 -93.02 307.09 -92 307.09 C-90.46 307.08 -90.46 307.08 -88.88 307.06 C-87.83 307.06 -86.79 307.05 -85.72 307.05 C-83.15 307.04 -80.57 307.02 -78 307 C-76.75 294.34 -76.9 281.7 -77 269 C-77.99 268.67 -78.98 268.34 -80 268 Z M71 271 C71 276.28 71 281.56 71 287 C71.33 287 71.66 287 72 287 C72 281.72 72 276.44 72 271 C71.67 271 71.34 271 71 271 Z M70 287 C71 290 71 290 71 290 Z M70 294 C70 297.63 70 301.26 70 305 C70.33 305 70.66 305 71 305 C71 301.37 71 297.74 71 294 C70.67 294 70.34 294 70 294 Z M69 305 C69 307.64 69 310.28 69 313 C69.33 313 69.66 313 70 313 C70 310.36 70 307.72 70 305 C69.67 305 69.34 305 69 305 Z M69 314 C69 315.65 69 317.3 69 319 C67.35 319 65.7 319 64 319 C64 319.33 64 319.66 64 320 C65.98 320 67.96 320 70 320 C70 318.02 70 316.04 70 314 C69.67 314 69.34 314 69 314 Z M-100 354 C-100 354.33 -100 354.66 -100 355 C-94.06 355 -88.12 355 -82 355 C-82 354.67 -82 354.34 -82 354 C-87.94 354 -93.88 354 -100 354 Z M-81 354 C-81 354.33 -81 354.66 -81 355 C-75.72 355 -70.44 355 -65 355 C-65 354.67 -65 354.34 -65 354 C-70.28 354 -75.56 354 -81 354 Z M-41 354 C-41 354.33 -41 354.66 -41 355 C-36.71 355 -32.42 355 -28 355 C-28 354.67 -28 354.34 -28 354 C-32.29 354 -36.58 354 -41 354 Z M-11 354 C-11 354.33 -11 354.66 -11 355 C11.77 355 34.54 355 58 355 C58 354.67 58 354.34 58 354 C35.23 354 12.46 354 -11 354 Z M59 354 C59 354.33 59 354.66 59 355 C60.65 355 62.3 355 64 355 C64 354.67 64 354.34 64 354 C62.35 354 60.7 354 59 354 Z M-157 355 C-157 355.33 -157 355.66 -157 356 C-148.75 356 -140.5 356 -132 356 C-132 355.67 -132 355.34 -132 355 C-140.25 355 -148.5 355 -157 355 Z M-131 355 C-131 355.33 -131 355.66 -131 356 C-128.03 356 -125.06 356 -122 356 C-122 355.67 -122 355.34 -122 355 C-124.97 355 -127.94 355 -131 355 Z M-118 355 C-118 355.33 -118 355.66 -118 356 C-113.05 356 -108.1 356 -103 356 C-103 355.67 -103 355.34 -103 355 C-107.95 355 -112.9 355 -118 355 Z " fill="#000" transform="translate(866,454)"/>
<path d="M0 0 C0.33 0 0.66 0 1 0 C1.33 6.27 1.66 12.54 2 19 C4.78 19.03 4.78 19.03 7.61 19.06 C13.74 19.13 19.87 19.2 25.99 19.29 C29.71 19.34 33.42 19.38 37.13 19.42 C40.72 19.46 44.3 19.51 47.89 19.56 C49.26 19.58 50.62 19.59 51.99 19.6 C53.91 19.62 55.82 19.65 57.74 19.68 C58.83 19.69 59.92 19.71 61.04 19.72 C64.05 20.01 66.27 20.73 69 22 C68.41 35.96 62.02 45.48 54.48 56.78 C52.17 60.25 49.89 63.75 47.62 67.25 C47.18 67.94 46.73 68.64 46.26 69.35 C40.94 77.59 35.81 85.95 30.66 94.31 C29.02 96.97 27.36 99.64 25.71 102.3 C19.2 112.77 12.78 123.29 6.46 133.88 C6.03 134.6 5.6 135.32 5.15 136.06 C4.2 137.66 3.27 139.26 2.35 140.88 C1 143 1 143 -0.45 144.42 C-2 146 -3.04 147.49 -4.17 149.39 C-4.58 150.07 -4.99 150.74 -5.41 151.44 C-5.85 152.18 -6.3 152.92 -6.75 153.69 C-7.73 155.32 -8.72 156.95 -9.71 158.58 C-10.24 159.45 -10.77 160.33 -11.31 161.23 C-14.31 166.16 -17.38 171.05 -20.44 175.94 C-21.08 176.96 -21.72 177.98 -22.38 179.04 C-26.28 185.26 -30.19 191.48 -34.12 197.69 C-40.49 207.75 -46.75 217.87 -53 228 C-53.4 228.65 -53.8 229.31 -54.22 229.98 C-55.87 232.66 -57.52 235.34 -59.17 238.02 C-60.46 240.12 -61.75 242.2 -63.05 244.29 C-71.27 256.41 -71.27 256.41 -76 270 C-77.12 270.09 -77.12 270.09 -78.27 270.19 C-81.94 271.28 -82.67 272.78 -84.69 276 C-85.37 277.07 -86.04 278.15 -86.74 279.25 C-87.5 280.5 -88.25 281.75 -89 283 C-89.43 283.71 -89.85 284.42 -90.29 285.15 C-92.87 289.48 -95.42 293.83 -97.94 298.19 C-99.27 300.47 -100.63 302.74 -102 305 C-99.54 306.23 -97.74 306.21 -94.99 306.32 C-94.01 306.36 -93.02 306.4 -92 306.44 C-90.46 306.5 -90.46 306.5 -88.88 306.56 C-87.83 306.61 -86.79 306.65 -85.72 306.69 C-83.15 306.8 -80.57 306.9 -78 307 C-77.96 309 -77.96 311 -78 313 C-78.33 313.33 -78.66 313.66 -79 314 C-78.5 315.49 -78.5 315.49 -78 317 C-80.01 322.1 -84.16 324.8 -89 327 C-93.62 327.97 -98.11 328.13 -102.8 328.1 C-103.53 328.1 -104.25 328.09 -105 328.09 C-107.29 328.09 -109.58 328.08 -111.88 328.06 C-113.44 328.06 -115 328.05 -116.56 328.05 C-120.38 328.04 -124.19 328.02 -128 328 C-128 327.67 -128 327.34 -128 327 C-125.69 326.67 -123.38 326.34 -121 326 C-123.83 325.06 -125.76 324.84 -128.71 324.75 C-129.63 324.72 -130.54 324.69 -131.48 324.65 C-133.4 324.59 -135.32 324.54 -137.24 324.48 C-146.35 324.14 -146.35 324.14 -150 322 C-152.46 318.32 -152.22 316.84 -151.59 312.62 C-149.64 303.92 -143.65 295.99 -138.94 288.56 C-137.95 287 -137.95 287 -136.94 285.4 C-135.6 283.27 -134.26 281.15 -132.92 279.03 C-131.17 276.27 -129.44 273.51 -127.7 270.74 C-122.82 262.95 -117.86 255.21 -112.73 247.57 C-109.03 242.07 -105.42 236.5 -101.83 230.93 C-99.49 227.3 -97.13 223.69 -94.69 220.12 C-92.08 216.23 -89.85 212.18 -87.65 208.05 C-85.41 203.91 -83.07 199.84 -80.72 195.77 C-79.05 192.89 -77.44 190 -76 187 C-75.34 187 -74.68 187 -74 187 C-72.46 184.98 -72.46 184.98 -70.91 182.35 C-69.99 180.85 -69.99 180.85 -69.05 179.33 C-68.39 178.25 -67.74 177.17 -67.06 176.06 C-65.69 173.83 -64.32 171.61 -62.94 169.38 C-62.27 168.28 -61.59 167.19 -60.9 166.06 C-58.48 162.17 -56.01 158.33 -53.5 154.5 C-47.1 144.68 -40.92 134.72 -34.72 124.77 C-32.38 121.01 -30.04 117.25 -27.69 113.5 C-26.9 112.24 -26.11 110.98 -25.33 109.72 C-23.72 107.14 -22.1 104.57 -20.48 102 C-16.27 95.28 -12.09 88.55 -8 81.75 C-7.44 80.82 -7.44 80.82 -6.87 79.87 C-2.48 72.54 -0.97 67.12 -0.68 58.51 C-0.64 57.31 -0.6 56.11 -0.56 54.88 C-0.52 53.64 -0.48 52.4 -0.44 51.12 C-0.39 49.86 -0.35 48.6 -0.31 47.3 C-0.2 44.2 -0.1 41.1 0 38 C0.33 38 0.66 38 1 38 C1 46.91 1 55.82 1 65 C4.89 61.11 7.6 57.35 10.4 52.66 C12.65 48.93 15.02 45.28 17.38 41.62 C18.72 39.45 19.91 37.3 21 35 C20.21 35.01 19.43 35.02 18.62 35.04 C12.96 35.08 7.57 35.01 2 34 C1.67 34.99 1.34 35.98 1 37 C0.67 35.68 0.34 34.36 0 33 C-2.31 32.34 -4.62 31.68 -7 31 C-7.22 29.54 -7.43 28.08 -7.62 26.62 C-7.74 25.81 -7.86 25 -7.98 24.16 C-7.98 23.45 -7.99 22.74 -8 22 C-7.34 21.34 -6.68 20.68 -6 20 C-4.35 20 -2.7 20 -1 20 C-0.67 13.4 -0.34 6.8 0 0 Z " fill="#4E91DE" transform="translate(866,454)"/>
<path d="M0 0 C1.35 -0 1.35 -0 2.72 -0.01 C4.94 0.12 4.94 0.12 5.94 1.12 C6.33 8.3 5.83 15.55 5.4 22.71 C5.32 24.21 5.32 24.21 5.23 25.73 C5.04 28.98 4.85 32.24 4.66 35.49 C4.53 37.78 4.4 40.06 4.26 42.35 C3.99 47.12 3.71 51.9 3.43 56.67 C3.07 62.77 2.72 68.86 2.37 74.95 C2.09 79.66 1.82 84.38 1.55 89.09 C1.41 91.34 1.28 93.58 1.15 95.83 C0.86 100.89 0.56 105.95 0.24 111.01 C0.05 114.14 -0.12 117.27 -0.23 120.41 C-0.29 121.59 -0.34 122.76 -0.4 123.98 C-0.43 124.95 -0.47 125.92 -0.5 126.92 C-1.06 129.12 -1.06 129.12 -2.86 130.43 C-6.39 131.54 -9.96 131.44 -13.62 131.47 C-14.45 131.48 -15.28 131.5 -16.14 131.51 C-19.67 131.58 -23.21 131.61 -26.75 131.66 C-29.33 131.69 -31.92 131.74 -34.5 131.78 C-35.7 131.79 -35.7 131.79 -36.92 131.8 C-40.76 131.87 -43.81 131.95 -47.06 134.12 C-45.74 134.78 -44.42 135.44 -43.06 136.12 C-45.98 136.18 -48.9 136.22 -51.81 136.25 C-52.64 136.27 -53.46 136.28 -54.31 136.3 C-55.11 136.31 -55.91 136.31 -56.73 136.32 C-57.47 136.33 -58.2 136.34 -58.96 136.35 C-61.43 136.09 -62.98 135.49 -65.06 134.12 C-65.39 133.13 -65.72 132.14 -66.06 131.12 C-66.72 130.79 -67.38 130.47 -68.06 130.12 C-70.42 124.11 -71.89 118.4 -70.06 112.12 C-68.44 109.74 -66.98 109.09 -64.35 107.84 C-60.84 106.01 -57.74 103.86 -54.62 101.44 C-53.77 100.78 -53.77 100.78 -52.9 100.1 C-48.38 96.53 -44.58 92.69 -41.06 88.12 C-40.34 87.24 -40.34 87.24 -39.59 86.34 C-21.72 63.9 -13.71 33.99 -8.3 6.34 C-7.95 4.59 -7.51 2.85 -7.06 1.12 C-4.56 -0.13 -2.79 -0.01 0 0 Z M3.94 2.12 C4.94 6.12 4.94 6.12 4.94 6.12 Z M2.94 7.12 C3.94 11.12 3.94 11.12 3.94 11.12 Z M2.94 17.12 C2.94 20.1 2.94 23.07 2.94 26.12 C3.27 26.12 3.6 26.12 3.94 26.12 C3.94 23.15 3.94 20.18 3.94 17.12 C3.61 17.12 3.28 17.12 2.94 17.12 Z M1.94 26.12 C1.94 31.4 1.94 36.68 1.94 42.12 C2.27 42.12 2.6 42.12 2.94 42.12 C2.94 36.85 2.94 31.57 2.94 26.12 C2.61 26.12 2.28 26.12 1.94 26.12 Z M0.94 42.12 C0.94 48.07 0.94 54 0.94 60.12 C1.27 60.12 1.6 60.12 1.94 60.12 C1.94 54.18 1.94 48.25 1.94 42.12 C1.61 42.12 1.28 42.12 0.94 42.12 Z M-0.06 61.12 C-0.06 66.74 -0.06 72.35 -0.06 78.12 C0.27 78.12 0.6 78.12 0.94 78.12 C0.94 72.51 0.94 66.9 0.94 61.12 C0.61 61.12 0.28 61.12 -0.06 61.12 Z M-1.06 79.12 C-1.06 84.4 -1.06 89.68 -1.06 95.12 C-0.73 95.12 -0.4 95.12 -0.06 95.12 C-0.06 89.85 -0.06 84.57 -0.06 79.12 C-0.39 79.12 -0.72 79.12 -1.06 79.12 Z M-2.06 95.12 C-1.06 98.12 -1.06 98.12 -1.06 98.12 Z M-2.06 102.12 C-2.06 105.75 -2.06 109.38 -2.06 113.12 C-1.73 113.12 -1.4 113.12 -1.06 113.12 C-1.06 109.5 -1.06 105.87 -1.06 102.12 C-1.39 102.12 -1.72 102.12 -2.06 102.12 Z M-3.06 113.12 C-3.06 115.76 -3.06 118.4 -3.06 121.12 C-2.73 121.12 -2.4 121.12 -2.06 121.12 C-2.06 118.49 -2.06 115.85 -2.06 113.12 C-2.39 113.12 -2.72 113.12 -3.06 113.12 Z M-3.06 122.12 C-3.06 123.77 -3.06 125.42 -3.06 127.12 C-4.71 127.12 -6.36 127.12 -8.06 127.12 C-8.06 127.46 -8.06 127.78 -8.06 128.12 C-6.08 128.12 -4.1 128.12 -2.06 128.12 C-2.06 126.14 -2.06 124.16 -2.06 122.12 C-2.39 122.12 -2.72 122.12 -3.06 122.12 Z " fill="#4E91DC" transform="translate(938.0625,645.875)"/>
<path d="M0 0 C0.33 0.66 0.66 1.32 1 2 C7.67 1.88 14.34 1.76 21.01 1.63 C23.28 1.58 25.55 1.54 27.81 1.5 C31.08 1.44 34.35 1.38 37.62 1.32 C38.62 1.3 39.63 1.28 40.66 1.27 C46.5 1.14 52.2 0.73 58 0 C60.73 4.09 60.51 7.19 60 12 C59.18 15.4 58.16 18.7 57 22 C56.14 22.06 55.27 22.11 54.38 22.17 C50.19 23.2 47.91 25.31 44.94 28.25 C44.43 28.73 43.93 29.21 43.41 29.7 C33.62 39.05 25.8 48.23 19 60 C18.55 60.76 18.1 61.52 17.64 62.3 C15.41 66.34 14.79 69.52 14.47 74.18 C13.56 79.63 11.39 84.75 9.47 89.91 C7.14 96.29 5.75 102.19 5.34 108.96 C5.23 109.63 5.12 110.31 5 111 C2.53 112.24 0.82 112.13 -1.94 112.12 C-2.81 112.13 -3.69 112.13 -4.59 112.13 C-7 112 -7 112 -10 111 C-11.32 106.45 -10.58 102.57 -9.73 98.02 C-7.65 85.95 -6.67 73.79 -5.64 61.6 C-5.31 57.71 -4.97 53.83 -4.63 49.95 C-4.42 47.46 -4.2 44.97 -3.99 42.48 C-3.89 41.33 -3.79 40.18 -3.69 39 C-3.24 33.64 -2.88 28.37 -3 23 C-3.45 23.76 -3.91 24.53 -4.38 25.31 C-5.54 27.24 -6.75 29.13 -8 31 C-6.92 20.25 -5.03 9.65 0 0 Z M54 19 C55 21 55 21 55 21 Z M13 71 C14 73 14 73 14 73 Z M12 73 C13 76 13 76 13 76 Z M11 76 C12 78 12 78 12 78 Z M10 78 C11 81 11 81 11 81 Z M9 81 C10 84 10 84 10 84 Z M8 84 C9 86 9 86 9 86 Z M7 86 C8 89 8 89 8 89 Z M6 89 C7 92 7 92 7 92 Z M5 92 C6 96 6 96 6 96 Z M4 96 C5 99 5 99 5 99 Z M3 99 C4 101 4 101 4 101 Z M3 107 C3 107.66 3 108.32 3 109 C1.02 109 -0.96 109 -3 109 C-3 109.33 -3 109.66 -3 110 C-0.69 110 1.62 110 4 110 C3.67 109.01 3.34 108.02 3 107 Z " fill="#4E91DD" transform="translate(733,472)"/>
<path d="M0 0 C0.99 0.5 0.99 0.5 2 1 C2 1.66 2 2.32 2 3 C21.8 3 41.6 3 62 3 C62 3.66 62 4.32 62 5 C114.8 5 167.6 5 222 5 C222 112.58 222 220.16 222 331 C221.67 331 221.34 331 221 331 C221 223.75 221 116.5 221 6 C148.07 6 75.14 6 0 6 C0 4.02 0 2.04 0 0 Z " fill="#000" transform="translate(197,383)"/>
<path d="M0 0 C1.32 0.33 2.64 0.66 4 1 C4.07 8.22 3.9 15.38 3.47 22.59 C3.38 24.08 3.38 24.08 3.29 25.6 C3.11 28.86 2.91 32.11 2.72 35.37 C2.59 37.65 2.46 39.94 2.33 42.22 C2.05 47 1.77 51.77 1.49 56.55 C1.13 62.64 0.78 68.73 0.43 74.82 C0.16 79.54 -0.12 84.25 -0.39 88.97 C-0.52 91.21 -0.65 93.46 -0.78 95.7 C-1.08 100.76 -1.38 105.82 -1.69 110.88 C-1.89 114.02 -2.05 117.15 -2.17 120.28 C-2.22 121.46 -2.28 122.64 -2.34 123.85 C-2.37 124.82 -2.41 125.79 -2.44 126.79 C-3 129 -3 129 -4.8 130.3 C-8.33 131.42 -11.9 131.32 -15.56 131.34 C-16.39 131.36 -17.22 131.37 -18.07 131.39 C-21.61 131.45 -25.15 131.49 -28.68 131.53 C-31.27 131.57 -33.85 131.61 -36.44 131.66 C-37.63 131.66 -37.63 131.66 -38.86 131.67 C-42.7 131.74 -45.75 131.83 -49 134 C-47.68 134.66 -46.36 135.32 -45 136 C-47.92 136.05 -50.83 136.09 -53.75 136.12 C-54.99 136.15 -54.99 136.15 -56.25 136.18 C-57.05 136.18 -57.85 136.19 -58.67 136.2 C-59.41 136.21 -60.14 136.22 -60.89 136.23 C-63.37 135.96 -64.92 135.36 -67 134 C-67.33 133.01 -67.66 132.02 -68 131 C-68.66 130.67 -69.32 130.34 -70 130 C-70 128.68 -70 127.36 -70 126 C-69.28 126.03 -68.57 126.06 -67.83 126.09 C-51.9 126.75 -36.02 127.11 -20.08 126.96 C-18.85 126.95 -17.62 126.95 -16.35 126.94 C-15.26 126.93 -14.18 126.91 -13.07 126.9 C-9.96 127 -7.05 127.42 -4 128 C-4.19 127.01 -4.37 126.02 -4.56 125 C-5.03 121.7 -4.77 118.83 -4.25 115.52 C-3.78 110.8 -3.99 106.03 -4.06 101.29 C-4 98 -4 98 -3 95 C-2.92 93.66 -2.89 92.33 -2.9 90.99 C-2.91 90.23 -2.91 89.47 -2.91 88.69 C-2.92 87.91 -2.93 87.12 -2.94 86.31 C-2.94 85.52 -2.95 84.72 -2.95 83.9 C-2.96 81.93 -2.98 79.97 -3 78 C-2.34 78 -1.68 78 -1 78 C-1.5 69.09 -1.5 69.09 -2 60 C-1.34 60 -0.68 60 0 60 C-0.01 58.99 -0.02 57.98 -0.04 56.94 C-0.11 46.59 0.17 36.28 0.64 25.95 C0.94 19.29 1.06 12.66 1 6 C1.66 6 2.32 6 3 6 C2.43 3.13 2.14 2.14 0 0 Z " fill="#000" transform="translate(940,646)"/>
<path d="M0 0 C0.43 0.64 0.87 1.28 1.31 1.94 C2.91 4.27 2.91 4.27 6 5 C6.99 5.33 7.98 5.66 9 6 C10.96 6.07 12.93 6.08 14.89 6.05 C16.1 6.04 17.32 6.03 18.56 6.01 C19.87 5.99 21.18 5.97 22.53 5.95 C23.89 5.93 25.24 5.91 26.6 5.89 C29.44 5.85 32.28 5.81 35.12 5.76 C38.77 5.7 42.41 5.65 46.05 5.61 C48.85 5.57 51.65 5.53 54.45 5.48 C56.44 5.45 58.44 5.43 60.44 5.4 C61.65 5.38 62.86 5.36 64.11 5.33 C65.71 5.31 65.71 5.31 67.34 5.29 C70.23 5.18 70.23 5.18 73 3 C72.64 5.73 72.22 6.8 70.14 8.67 C69.37 9.17 68.61 9.67 67.81 10.19 C67.06 10.7 66.3 11.21 65.52 11.73 C60.38 14.32 54.84 14.14 49.2 14.1 C48.47 14.1 47.75 14.09 47 14.09 C44.71 14.09 42.42 14.08 40.12 14.06 C38.56 14.06 37 14.05 35.44 14.05 C31.62 14.04 27.81 14.02 24 14 C24 13.67 24 13.34 24 13 C27.47 12.5 27.47 12.5 31 12 C28.17 11.06 26.24 10.84 23.29 10.75 C21.92 10.7 21.92 10.7 20.52 10.65 C18.6 10.59 16.68 10.54 14.76 10.48 C5.65 10.14 5.65 10.14 2 8 C-0.15 4.77 -0.2 3.72 0 0 Z " fill="#000" transform="translate(714,768)"/>
<path d="M0 0 C0.33 0 0.66 0 1 0 C1.03 0.71 1.05 1.42 1.08 2.16 C1.19 5.37 1.31 8.59 1.44 11.81 C1.48 12.93 1.52 14.05 1.56 15.21 C1.6 16.28 1.64 17.35 1.68 18.46 C1.72 19.45 1.76 20.44 1.79 21.46 C1.91 24.12 1.91 24.12 3 27 C4.49 26.95 4.49 26.95 6.02 26.89 C42.45 25.62 42.45 25.62 57 27 C57 26.34 57 25.68 57 25 C112.44 25 167.88 25 225 25 C224.67 25.99 224.34 26.98 224 28 C194.94 28.02 165.88 28.04 136.83 28.05 C134.14 28.05 131.46 28.05 128.78 28.05 C128.11 28.06 127.45 28.06 126.76 28.06 C115.95 28.06 105.14 28.07 94.33 28.08 C83.25 28.09 72.17 28.09 61.09 28.09 C54.86 28.1 48.63 28.1 42.4 28.11 C36.55 28.11 30.7 28.11 24.84 28.11 C22.69 28.11 20.53 28.12 18.37 28.12 C15.44 28.12 12.52 28.12 9.59 28.12 C8.29 28.12 8.29 28.12 6.97 28.13 C1.11 28.11 1.11 28.11 0 27 C-0.09 25 -0.11 23 -0.1 21 C-0.09 19.78 -0.09 18.57 -0.09 17.31 C-0.08 16.04 -0.07 14.76 -0.06 13.44 C-0.06 12.15 -0.05 10.87 -0.05 9.55 C-0.04 6.37 -0.02 3.18 0 0 Z " fill="#000" transform="translate(706,783)"/>
<path d="M0 0 C0.33 0 0.66 0 1 0 C1 3.96 1 7.92 1 12 C1.66 12 2.32 12 3 12 C3 12.66 3 13.32 3 14 C3.95 13.84 4.89 13.68 5.87 13.51 C10.61 12.84 15.3 12.86 20.08 12.87 C21.07 12.87 22.05 12.87 23.07 12.87 C26.32 12.86 29.57 12.86 32.82 12.87 C35.09 12.87 37.35 12.87 39.61 12.86 C44.35 12.86 49.09 12.86 53.83 12.87 C59.91 12.88 65.98 12.87 72.05 12.87 C76.73 12.86 81.4 12.86 86.08 12.87 C88.32 12.87 90.56 12.87 92.8 12.86 C95.92 12.86 99.05 12.87 102.18 12.87 C103.1 12.87 104.03 12.87 104.98 12.86 C109.13 12.88 112.95 13.01 117 14 C118.57 14.07 120.15 14.09 121.72 14.06 C122.64 14.05 123.56 14.05 124.5 14.04 C125.49 14.02 126.48 14.01 127.5 14 C141.68 13.9 155.83 14.43 170 15 C170 15.33 170 15.66 170 16 C148.13 16.02 126.26 16.04 104.39 16.05 C94.24 16.06 84.08 16.06 73.93 16.08 C65.08 16.09 56.23 16.09 47.39 16.09 C42.7 16.1 38.01 16.1 33.32 16.11 C28.92 16.11 24.51 16.11 20.1 16.11 C18.48 16.11 16.86 16.12 15.24 16.12 C13.03 16.12 10.82 16.12 8.62 16.12 C7.38 16.12 6.14 16.12 4.87 16.12 C2 16 2 16 0 15 C0 10.05 0 5.1 0 0 Z " fill="#000" transform="translate(335,795)"/>
<path d="M0 0 C1.15 3.45 0.85 4.13 -0.36 7.42 C-0.67 8.28 -0.98 9.14 -1.3 10.03 C-1.64 10.93 -1.97 11.83 -2.31 12.75 C-5.38 21.17 -8.11 28.96 -8.66 37.96 C-8.77 38.63 -8.88 39.31 -9 40 C-11.47 41.24 -13.18 41.13 -15.94 41.12 C-16.81 41.13 -17.69 41.13 -18.59 41.13 C-21 41 -21 41 -24 40 C-25.58 34.93 -24.46 30.28 -23.56 25.19 C-23.41 24.3 -23.27 23.42 -23.12 22.51 C-22.75 20.34 -22.38 18.17 -22 16 C-21.67 16 -21.34 16 -21 16 C-21 23.26 -21 30.52 -21 38 C-17.37 38.33 -13.74 38.66 -10 39 C-10 38.01 -10 37.02 -10 36 C-10.66 36 -11.32 36 -12 36 C-12 34.02 -12 32.04 -12 30 C-11.34 30 -10.68 30 -10 30 C-9.86 29.34 -9.73 28.69 -9.59 28.01 C-7.39 18.27 -3.74 9.23 0 0 Z " fill="#000" transform="translate(747,543)"/>
<path d="M0 0 C0.33 0.66 0.66 1.32 1 2 C2.98 2 4.96 2 7 2 C6.38 2.19 5.76 2.37 5.12 2.56 C2.02 4.66 1.73 7.5 1 11 C0.52 14.3 0.18 17.61 -0.12 20.94 C-0.21 21.81 -0.3 22.69 -0.39 23.59 C-0.6 25.72 -0.8 27.86 -1 30 C-1.33 30 -1.66 30 -2 30 C-2.33 27.69 -2.66 25.38 -3 23 C-3.45 23.76 -3.91 24.53 -4.38 25.31 C-5.54 27.24 -6.75 29.13 -8 31 C-6.92 20.25 -5.03 9.65 0 0 Z " fill="#000" transform="translate(733,472)"/>
<path d="M0 0 C0.88 2.48 1.12 3.66 0.25 6.19 C-1 8 -1 8 -4 9 C-5.35 9.09 -6.69 9.12 -8.04 9.12 C-8.86 9.12 -9.68 9.12 -10.53 9.12 C-11.43 9.12 -12.32 9.12 -13.24 9.11 C-14.66 9.11 -14.66 9.11 -16.11 9.11 C-19.25 9.11 -22.38 9.11 -25.51 9.1 C-27.68 9.1 -29.85 9.09 -32.02 9.09 C-37.74 9.09 -43.46 9.08 -49.17 9.07 C-55 9.06 -60.83 9.05 -66.67 9.05 C-78.11 9.04 -89.56 9.02 -101 9 C-101 8.67 -101 8.34 -101 8 C-52 7.5 -52 7.5 -2 7 C-1.34 4.69 -0.68 2.38 0 0 Z " fill="#000" transform="translate(1009,383)"/>
<path d="M0 0 C0.99 0.99 1.98 1.98 3 3 C2.67 3.99 2.34 4.98 2 6 C1.34 5.34 0.68 4.68 0 4 C-0.02 4.86 -0.02 4.86 -0.03 5.73 C-0.14 11.73 -0.25 17.74 -0.37 23.74 C-0.42 25.97 -0.46 28.2 -0.5 30.44 C-0.93 54.22 -0.93 54.22 -2 66 C-2.66 66 -3.32 66 -4 66 C-4.03 63.21 -4.05 60.42 -4.06 57.62 C-4.07 56.83 -4.08 56.04 -4.09 55.22 C-4.11 49.23 -4.11 49.23 -3 47 C-2.89 45.56 -2.84 44.12 -2.83 42.67 C-2.81 41.78 -2.8 40.89 -2.79 39.96 C-2.78 39 -2.76 38.03 -2.75 37.03 C-2.72 35 -2.69 32.96 -2.65 30.93 C-2.61 27.71 -2.56 24.49 -2.52 21.27 C-2.48 18.17 -2.43 15.07 -2.38 11.97 C-2.37 11 -2.36 10.03 -2.35 9.04 C-2.34 8.14 -2.32 7.25 -2.3 6.33 C-2.29 5.54 -2.28 4.75 -2.27 3.94 C-2 2 -2 2 0 0 Z " fill="#000" transform="translate(455,289)"/>
<path d="M0 0 C14.65 0.04 14.65 0.04 17.74 3.13 C17.42 6.43 16.2 8 13.74 10.13 C14.4 8.15 15.06 6.17 15.74 4.13 C14.56 4.15 14.56 4.15 13.36 4.17 C7.7 4.22 2.31 4.15 -3.26 3.13 C-3.59 4.12 -3.92 5.11 -4.26 6.13 C-3.19 0.19 -3.19 0.19 0 0 Z " fill="#000" transform="translate(871.2578125,484.8671875)"/>
<path d="M0 0 C0.33 0.99 0.66 1.98 1 3 C1.69 3 2.39 2.99 3.11 2.99 C9.65 2.95 16.2 2.92 22.75 2.9 C26.12 2.89 29.48 2.87 32.85 2.85 C36.72 2.82 40.59 2.81 44.46 2.8 C45.67 2.79 46.88 2.78 48.12 2.77 C49.8 2.77 49.8 2.77 51.52 2.77 C52.51 2.77 53.5 2.76 54.51 2.76 C57 3 57 3 60 5 C52.32 5.15 44.65 5.3 36.97 5.44 C33.41 5.51 29.85 5.58 26.28 5.65 C22.19 5.73 18.1 5.81 14 5.88 C12.08 5.92 12.08 5.92 10.11 5.96 C8.34 5.99 8.34 5.99 6.53 6.02 C5.48 6.04 4.44 6.06 3.36 6.08 C1 6 1 6 0 5 C-0.04 3.33 -0.04 1.67 0 0 Z " fill="#000" transform="translate(335,238)"/>
<path d="M0 0 C2.34 3.29 1.72 6.9 1.26 10.77 C0.44 14.17 -0.58 17.47 -1.74 20.77 C-2.73 20.44 -3.72 20.11 -4.74 19.77 C-4.41 19.03 -4.08 18.29 -3.74 17.52 C-2.34 12.26 -2.58 7.19 -2.74 1.77 C-5.05 1.44 -7.36 1.11 -9.74 0.77 C-9.74 0.44 -9.74 0.11 -9.74 -0.23 C-2.24 -1.58 -2.24 -1.58 0 0 Z " fill="#436F4E" transform="translate(791.73828125,473.2265625)"/>
<path d="M0 0 C0.33 0 0.66 0 1 0 C1 15.84 1 31.68 1 48 C0.67 48 0.34 48 0 48 C0 32.16 0 16.32 0 0 Z " fill="#000" transform="translate(866,608)"/>
<path d="M0 0 C0.33 0 0.66 0 1 0 C1 8.91 1 17.82 1 27 C2.32 26.34 3.64 25.68 5 25 C3.71 27.88 2.34 29.87 0 32 C-0.94 28.09 -1.05 24.61 -0.88 20.61 C-0.81 18.8 -0.81 18.8 -0.73 16.96 C-0.68 15.72 -0.62 14.47 -0.56 13.19 C-0.51 11.92 -0.46 10.66 -0.4 9.35 C-0.27 6.24 -0.14 3.12 0 0 Z " fill="#000" transform="translate(866,492)"/>
<path d="M0 0 C0.33 0 0.66 0 1 0 C1 14.52 1 29.04 1 44 C0.67 44 0.34 44 0 44 C0 29.48 0 14.96 0 0 Z " fill="#000" transform="translate(866,296)"/>
<path d="M0 0 C1.09 4.37 0.82 5.23 -0.88 9.19 C-1.43 10.51 -1.43 10.51 -1.99 11.86 C-3 14 -3 14 -4 15 C-5.49 15.09 -6.98 15.11 -8.47 15.1 C-9.37 15.09 -10.27 15.09 -11.2 15.09 C-12.14 15.08 -13.09 15.07 -14.06 15.06 C-15.01 15.06 -15.96 15.05 -16.94 15.05 C-19.29 15.04 -21.65 15.02 -24 15 C-24.33 14.34 -24.66 13.68 -25 13 C-18.4 13 -11.8 13 -5 13 C-3.35 8.71 -1.7 4.42 0 0 Z " fill="#000" transform="translate(641,805)"/>
<path d="M0 0 C0.33 0 0.66 0 1 0 C1.09 3.46 1.14 6.92 1.19 10.38 C1.21 11.36 1.24 12.34 1.26 13.36 C1.27 14.3 1.28 15.24 1.29 16.21 C1.31 17.08 1.32 17.95 1.34 18.85 C1.23 19.56 1.12 20.27 1 21 C-2.79 23.53 -5.81 23.22 -10.19 23.12 C-10.94 23.12 -11.69 23.11 -12.46 23.1 C-14.31 23.07 -16.15 23.04 -18 23 C-18 22.67 -18 22.34 -18 22 C-16.41 21.91 -16.41 21.91 -14.79 21.82 C-13.4 21.73 -12.01 21.65 -10.62 21.56 C-9.93 21.52 -9.23 21.48 -8.51 21.44 C-4.63 21.26 -4.63 21.26 -1 20 C-0.67 13.4 -0.34 6.8 0 0 Z " fill="#000" transform="translate(949,788)"/>
<path d="M0 0 C1.24 0.16 1.24 0.16 2.51 0.32 C4.53 0.57 6.54 0.85 8.56 1.12 C8.56 1.46 8.56 1.78 8.56 2.12 C7.47 2.11 6.39 2.1 5.27 2.09 C-3.36 2.03 -11.85 2.2 -20.44 3.12 C-13.51 -0.76 -7.64 -1.07 0 0 Z " fill="#000" transform="translate(647.4375,210.875)"/>
<path d="M0 0 C0.33 0 0.66 0 1 0 C1.73 7.84 2.21 15.2 1 23 C0.67 23 0.34 23 0 23 C-1.33 7.26 -1.33 7.26 0 0 Z " fill="#000" transform="translate(725,266)"/>
<path d="M0 0 C0.99 0.33 1.98 0.66 3 1 C2.72 2.73 2.42 4.46 2.12 6.19 C1.96 7.15 1.8 8.11 1.63 9.11 C1.02 11.91 0.14 14.37 -1 17 C-2.18 13.46 -1.45 11.58 -0.48 8.07 C0.15 5.35 0.14 2.78 0 0 Z " fill="#000" transform="translate(935,475)"/>
<path d="M0 0 C0.33 0.99 0.66 1.98 1 3 C-5.6 3.33 -12.2 3.66 -19 4 C-19.33 3.34 -19.66 2.68 -20 2 C-13.4 2 -6.8 2 0 2 C0 1.34 0 0.68 0 0 Z " fill="#000" transform="translate(535,807)"/>
<path d="M0 0 C0.33 0 0.66 0 1 0 C1 7.92 1 15.84 1 24 C0.67 24 0.34 24 0 24 C0 16.08 0 8.16 0 0 Z " fill="#000" transform="translate(536,783)"/>
<path d="M0 0 C0.33 0 0.66 0 1 0 C1 7.59 1 15.18 1 23 C0.67 23 0.34 23 0 23 C0 15.41 0 7.82 0 0 Z " fill="#000" transform="translate(867,260)"/>
<path d="M0 0 C0.33 0 0.66 0 1 0 C1 6.6 1 13.2 1 20 C0.67 20 0.34 20 0 20 C0 13.4 0 6.8 0 0 Z " fill="#000" transform="translate(867,409)"/>
<path d="M0 0 C0.33 0 0.66 0 1 0 C1 4.62 1 9.24 1 14 C0.67 14 0.34 14 0 14 C0 9.38 0 4.76 0 0 Z " fill="#000" transform="translate(577,272)"/>
<path d="M0 0 C2.02 3.04 2.32 4.19 2.62 7.69 C2.7 8.5 2.77 9.3 2.85 10.14 C2.9 10.75 2.95 11.37 3 12 C0.77 7.97 0.46 4.55 0 0 Z " fill="#000" transform="translate(722,254)"/>
<path d="M0 0 C1 3 1 3 -0.44 6.19 C-1.21 7.58 -1.21 7.58 -2 9 C-3 6 -3 6 -1.56 2.81 C-1.05 1.88 -0.53 0.96 0 0 Z " fill="#000" transform="translate(751,534)"/>
<path d="M0 0 C3.82 0.53 6.06 1.5 9 4 C5.18 3.47 2.94 2.5 0 0 Z " fill="#000" transform="translate(666,216)"/>
<path d="M0 0 C3.63 0 7.26 0 11 0 C11 0.33 11 0.66 11 1 C7.37 1 3.74 1 0 1 C0 0.67 0 0.34 0 0 Z " fill="#000" transform="translate(879,243)"/>
<path d="M0 0 C3.3 0 6.6 0 10 0 C10 0.33 10 0.66 10 1 C6.7 1 3.4 1 0 1 C0 0.67 0 0.34 0 0 Z " fill="#000" transform="translate(759,390)"/>
<path d="M0 0 C0.69 1.75 0.69 1.75 1 4 C-0.44 6.25 -0.44 6.25 -2 8 C-1.48 5.24 -0.89 2.67 0 0 Z " fill="#000" transform="translate(1017,359)"/>
<path d="M0 0 C0.33 0 0.66 0 1 0 C0.67 2.97 0.34 5.94 0 9 C-0.33 9 -0.66 9 -1 9 C-0.67 6.03 -0.34 3.06 0 0 Z " fill="#000" transform="translate(724,289)"/>
<path d="M0 0 C-4.62 2.12 -4.62 2.12 -8 1 C-3.38 -1.12 -3.38 -1.12 0 0 Z " fill="#000" transform="translate(627,215)"/>
<path d="M0 0 C0.33 0 0.66 0 1 0 C0.67 2.64 0.34 5.28 0 8 C-0.98 4.95 -0.98 3.05 0 0 Z " fill="#000" transform="translate(707,565)"/>
<path d="M0 0 C0.93 2.61 1.15 3.64 0.06 6.25 C-0.46 7.12 -0.46 7.12 -1 8 C-0.67 5.36 -0.34 2.72 0 0 Z " fill="#000" transform="translate(740,446)"/>
<path d="M0 0 C0.33 0 0.66 0 1 0 C0.67 2.64 0.34 5.28 0 8 C-0.98 4.95 -0.98 3.05 0 0 Z " fill="#000" transform="translate(751,405)"/>
<path d="M0 0 C0.62 1.81 0.62 1.81 1 4 C0.34 4.99 -0.32 5.98 -1 7 C-0.67 4.69 -0.34 2.38 0 0 Z " fill="#000" transform="translate(676,677)"/>
<path d="M0 0 C0.62 1.81 0.62 1.81 1 4 C0.34 4.99 -0.32 5.98 -1 7 C-0.67 4.69 -0.34 2.38 0 0 Z " fill="#000" transform="translate(702,584)"/>
<path d="M0 0 C0.62 1.81 0.62 1.81 1 4 C0.34 4.99 -0.32 5.98 -1 7 C-0.67 4.69 -0.34 2.38 0 0 Z " fill="#000" transform="translate(745,428)"/>
<path d="M0 0 C2 3 2 3 1.62 5.19 C1.32 6.08 1.32 6.08 1 7 C0.67 4.69 0.34 2.38 0 0 Z " fill="#000" transform="translate(540,303)"/>
<path d="M0 0 C0.99 0.33 1.98 0.66 3 1 C1.02 1.66 -0.96 2.32 -3 3 C-2.01 2.01 -1.02 1.02 0 0 Z " fill="#000" transform="translate(876,244)"/>
<path d="M0 0 C0.99 0.33 1.98 0.66 3 1 C1.02 1.66 -0.96 2.32 -3 3 C-2.01 2.01 -1.02 1.02 0 0 Z " fill="#000" transform="translate(616,217)"/>
<path d="M0 0 C0.62 1.88 0.62 1.88 1 4 C0.34 4.66 -0.32 5.32 -1 6 C-0.67 4.02 -0.34 2.04 0 0 Z " fill="#000" transform="translate(1012,374)"/>
<path d="M0 0 C0.33 0.66 0.66 1.32 1 2 C0.01 2.99 -0.98 3.98 -2 5 C-1.34 3.35 -0.68 1.7 0 0 Z " fill="#000" transform="translate(587,243)"/>
<path d="M0 0 C2.97 0.5 2.97 0.5 6 1 C4.12 1.62 4.12 1.62 2 2 C1.34 1.34 0.68 0.68 0 0 Z " fill="#000" transform="translate(660,214)"/>
<path d="M0 0 C0.66 0.66 1.32 1.32 2 2 C1.67 2.99 1.34 3.98 1 5 C0.67 3.35 0.34 1.7 0 0 Z " fill="#000" transform="translate(619,571)"/>
<path d="M0 0 C1.98 0 3.96 0 6 0 C6 0.33 6 0.66 6 1 C4.02 1 2.04 1 0 1 C0 0.67 0 0.34 0 0 Z " fill="#000" transform="translate(454,388)"/>
<path d="M0 0 C0 0.99 0 1.98 0 3 C-0.99 3.5 -0.99 3.5 -2 4 C-1.34 2.68 -0.68 1.36 0 0 Z " fill="#000" transform="translate(704,331)"/>
<path d="M0 0 C0.66 0.66 1.32 1.32 2 2 C1.67 2.99 1.34 3.98 1 5 C0.67 3.35 0.34 1.7 0 0 Z " fill="#000" transform="translate(530,270)"/>
<path d="M0 0 C1.98 0 3.96 0 6 0 C6 0.33 6 0.66 6 1 C4.02 1 2.04 1 0 1 C0 0.67 0 0.34 0 0 Z " fill="#000" transform="translate(400,243)"/>
<path d="M0 0 C0.99 0.5 0.99 0.5 2 1 C1.67 1.99 1.34 2.98 1 4 C0.67 2.68 0.34 1.36 0 0 Z " fill="#000" transform="translate(605,524)"/>
<path d="M0 0 C0.66 0.33 1.32 0.66 2 1 C1.01 1.66 0.02 2.32 -1 3 C-0.67 2.01 -0.34 1.02 0 0 Z " fill="#000" transform="translate(766,512)"/>
<path d="M0 0 C0.33 0.99 0.66 1.98 1 3 C0.01 3.5 0.01 3.5 -1 4 C-0.67 2.68 -0.34 1.36 0 0 Z " fill="#000" transform="translate(932,492)"/>
<path d="M0 0 C0.66 0.33 1.32 0.66 2 1 C0.68 1.33 -0.64 1.66 -2 2 C-1.34 1.34 -0.68 0.68 0 0 Z " fill="#000" transform="translate(679,350)"/>
<path d="M0 0 C4 1 4 1 4 1 Z " fill="#000" transform="translate(506,810)"/>
<path d="M0 0 C1 4 1 4 1 4 Z " fill="#000" transform="translate(644,794)"/>
<path d="M0 0 C1 4 1 4 1 4 Z " fill="#000" transform="translate(649,775)"/>
<path d="M0 0 C1 4 1 4 1 4 Z " fill="#000" transform="translate(651,768)"/>
<path d="M0 0 C1 4 1 4 1 4 Z " fill="#000" transform="translate(655,753)"/>
<path d="M0 0 C0 3 0 3 0 3 Z " fill="#000" transform="translate(776,739)"/>
<path d="M0 0 C1 4 1 4 1 4 Z " fill="#000" transform="translate(456,738)"/>
<path d="M0 0 C1 4 1 4 1 4 Z " fill="#000" transform="translate(661,731)"/>
<path d="M0 0 C1 4 1 4 1 4 Z " fill="#000" transform="translate(687,637)"/>
<path d="M0 0 C1 4 1 4 1 4 Z " fill="#000" transform="translate(630,607)"/>
<path d="M0 0 C1 4 1 4 1 4 Z " fill="#000" transform="translate(697,601)"/>
<path d="M0 0 C1 4 1 4 1 4 Z " fill="#000" transform="translate(867,598)"/>
<path d="M0 0 C1 4 1 4 1 4 Z " fill="#000" transform="translate(622,580)"/>
<path d="M0 0 C1 4 1 4 1 4 Z " fill="#000" transform="translate(617,563)"/>
<path d="M0 0 C1 4 1 4 1 4 Z " fill="#000" transform="translate(616,559)"/>
<path d="M0 0 C1 4 1 4 1 4 Z " fill="#000" transform="translate(713,544)"/>
<path d="M0 0 C0 3 0 3 0 3 Z " fill="#000" transform="translate(902,540)"/>
<path d="M0 0 C0 3 0 3 0 3 Z " fill="#000" transform="translate(753,531)"/>
<path d="M0 0 C1 4 1 4 1 4 Z " fill="#000" transform="translate(717,529)"/>
<path d="M0 0 C0 3 0 3 0 3 Z " fill="#000" transform="translate(909,529)"/>
<path d="M0 0 C1 4 1 4 1 4 Z " fill="#000" transform="translate(607,528)"/>
<path d="M0 0 C1 4 1 4 1 4 Z " fill="#000" transform="translate(718,525)"/>
<path d="M0 0 C0 3 0 3 0 3 Z " fill="#000" transform="translate(757,524)"/>
<path d="M0 0 C1 4 1 4 1 4 Z " fill="#000" transform="translate(719,521)"/>
<path d="M0 0 C0 3 0 3 0 3 Z " fill="#000" transform="translate(925,504)"/>
<path d="M0 0 C1 4 1 4 1 4 Z " fill="#000" transform="translate(724,503)"/>
<path d="M0 0 C0 3 0 3 0 3 Z " fill="#000" transform="translate(929,498)"/>
<path d="M0 0 C1 4 1 4 1 4 Z " fill="#000" transform="translate(586,459)"/>
<path d="M0 0 C1 4 1 4 1 4 Z " fill="#000" transform="translate(737,457)"/>
<path d="M0 0 C1 4 1 4 1 4 Z " fill="#000" transform="translate(582,445)"/>
<path d="M0 0 C1 4 1 4 1 4 Z " fill="#000" transform="translate(746,424)"/>
<path d="M0 0 C1 4 1 4 1 4 Z " fill="#000" transform="translate(551,339)"/>
<path d="M0 0 C0.66 0.33 1.32 0.66 2 1 C1.01 1 0.02 1 -1 1 C-0.67 0.67 -0.34 0.34 0 0 Z " fill="#000" transform="translate(697,338)"/>
<path d="M0 0 C1 4 1 4 1 4 Z " fill="#000" transform="translate(771,334)"/>
<path d="M0 0 C1 4 1 4 1 4 Z " fill="#000" transform="translate(776,315)"/>
<path d="M0 0 C0 3 0 3 0 3 Z " fill="#000" transform="translate(715,316)"/>
<path d="M0 0 C1 4 1 4 1 4 Z " fill="#000" transform="translate(777,311)"/>
<path d="M0 0 C1 4 1 4 1 4 Z " fill="#000" transform="translate(722,298)"/>
<path d="M0 0 C1 4 1 4 1 4 Z " fill="#000" transform="translate(528,262)"/>
<path d="M0 0 C1 4 1 4 1 4 Z " fill="#000" transform="translate(523,245)"/>
<path d="M0 0 C1 4 1 4 1 4 Z " fill="#000" transform="translate(519,232)"/>
<path d="M0 0 C0.66 0 1.32 0 2 0 C1.67 0.99 1.34 1.98 1 3 C0.67 2.01 0.34 1.02 0 0 Z " fill="#000" transform="translate(513,215)"/>
<path d="" fill="#000" transform="translate(0,0)"/>
<path d="" fill="#000" transform="translate(0,0)"/>
<path d="" fill="#000" transform="translate(0,0)"/>
<path d="" fill="#000" transform="translate(0,0)"/>
<path d="" fill="#000" transform="translate(0,0)"/>
<path d="" fill="#000" transform="translate(0,0)"/>
<path d="" fill="#000" transform="translate(0,0)"/>
<path d="" fill="#000" transform="translate(0,0)"/>
<path d="" fill="#000" transform="translate(0,0)"/>
<path d="" fill="#000" transform="translate(0,0)"/>
<path d="" fill="#000" transform="translate(0,0)"/>
<path d="" fill="#000" transform="translate(0,0)"/>
<path d="" fill="#000" transform="translate(0,0)"/>
<path d="" fill="#000" transform="translate(0,0)"/>
<path d="" fill="#000" transform="translate(0,0)"/>
<path d="" fill="#000" transform="translate(0,0)"/>
<path d="" fill="#000" transform="translate(0,0)"/>
<path d="" fill="#000" transform="translate(0,0)"/>
<path d="" fill="#000" transform="translate(0,0)"/>
<path d="" fill="#000" transform="translate(0,0)"/>
<path d="" fill="#000" transform="translate(0,0)"/>
<path d="" fill="#000" transform="translate(0,0)"/>
<path d="" fill="#000" transform="translate(0,0)"/>
<path d="" fill="#000" transform="translate(0,0)"/>
<path d="" fill="#000" transform="translate(0,0)"/>
<path d="" fill="#000" transform="translate(0,0)"/>
<path d="" fill="#000" transform="translate(0,0)"/>
<path d="" fill="#000" transform="translate(0,0)"/>
<path d="" fill="#000" transform="translate(0,0)"/>
<path d="" fill="#000" transform="translate(0,0)"/>
<path d="" fill="#000" transform="translate(0,0)"/>
<path d="" fill="#000" transform="translate(0,0)"/>
<path d="" fill="#000" transform="translate(0,0)"/>
<path d="" fill="#000" transform="translate(0,0)"/>
<path d="" fill="#000" transform="translate(0,0)"/>
<path d="" fill="#000" transform="translate(0,0)"/>
<path d="" fill="#000" transform="translate(0,0)"/>
<path d="" fill="#000" transform="translate(0,0)"/>
<path d="" fill="#000" transform="translate(0,0)"/>
<path d="" fill="#000" transform="translate(0,0)"/>
<path d="" fill="#000" transform="translate(0,0)"/>
<path d="" fill="#000" transform="translate(0,0)"/>
<path d="" fill="#000" transform="translate(0,0)"/>
<path d="" fill="#000" transform="translate(0,0)"/>
<path d="" fill="#000" transform="translate(0,0)"/>
<path d="" fill="#000" transform="translate(0,0)"/>
<path d="" fill="#000" transform="translate(0,0)"/>
<path d="" fill="#000" transform="translate(0,0)"/>
<path d="" fill="#000" transform="translate(0,0)"/>
<path d="" fill="#000" transform="translate(0,0)"/>
<path d="" fill="#000" transform="translate(0,0)"/>
<path d="" fill="#000" transform="translate(0,0)"/>
<path d="" fill="#000" transform="translate(0,0)"/>
<path d="" fill="#000" transform="translate(0,0)"/>
<path d="" fill="#000" transform="translate(0,0)"/>
<path d="" fill="#000" transform="translate(0,0)"/>
<path d="" fill="#000" transform="translate(0,0)"/>
<path d="" fill="#000" transform="translate(0,0)"/>
<path d="" fill="#000" transform="translate(0,0)"/>
<path d="" fill="#000" transform="translate(0,0)"/>
<path d="" fill="#000" transform="translate(0,0)"/>
<path d="" fill="#000" transform="translate(0,0)"/>
<path d="" fill="#000" transform="translate(0,0)"/>
<path d="" fill="#000" transform="translate(0,0)"/>
<path d="" fill="#000" transform="translate(0,0)"/>
<path d="" fill="#000" transform="translate(0,0)"/>
<path d="" fill="#000" transform="translate(0,0)"/>
<path d="" fill="#000" transform="translate(0,0)"/>
<path d="" fill="#000" transform="translate(0,0)"/>
<path d="" fill="#000" transform="translate(0,0)"/>
<path d="" fill="#000" transform="translate(0,0)"/>
<path d="" fill="#000" transform="translate(0,0)"/>
<path d="" fill="#000" transform="translate(0,0)"/>
<path d="" fill="#000" transform="translate(0,0)"/>
<path d="" fill="#000" transform="translate(0,0)"/>
<path d="" fill="#000" transform="translate(0,0)"/>
<path d="" fill="#000" transform="translate(0,0)"/>
<path d="" fill="#000" transform="translate(0,0)"/>
<path d="" fill="#000" transform="translate(0,0)"/>
<path d="" fill="#000" transform="translate(0,0)"/>
<path d="" fill="#000" transform="translate(0,0)"/>
<path d="" fill="#000" transform="translate(0,0)"/>
<path d="" fill="#000" transform="translate(0,0)"/>
<path d="" fill="#000" transform="translate(0,0)"/>
<path d="" fill="#000" transform="translate(0,0)"/>
<path d="" fill="#000" transform="translate(0,0)"/>
<path d="" fill="#000" transform="translate(0,0)"/>
<path d="" fill="#000" transform="translate(0,0)"/>
<path d="" fill="#000" transform="translate(0,0)"/>
<path d="" fill="#000" transform="translate(0,0)"/>
<path d="M0 0 C0.99 0.5 0.99 0.5 2 1 C1.01 1.5 1.01 1.5 0 2 C0 1.34 0 0.68 0 0 Z " fill="#000" transform="translate(756,390)"/>
<path d="" fill="#000" transform="translate(0,0)"/>
<path d="" fill="#000" transform="translate(0,0)"/>
<path d="" fill="#000" transform="translate(0,0)"/>
<path d="" fill="#000" transform="translate(0,0)"/>
<path d="" fill="#000" transform="translate(0,0)"/>
<path d="" fill="#000" transform="translate(0,0)"/>
<path d="" fill="#000" transform="translate(0,0)"/>
<path d="" fill="#000" transform="translate(0,0)"/>
<path d="" fill="#000" transform="translate(0,0)"/>
<path d="" fill="#000" transform="translate(0,0)"/>
<path d="" fill="#000" transform="translate(0,0)"/>
<path d="" fill="#000" transform="translate(0,0)"/>
<path d="" fill="#000" transform="translate(0,0)"/>
<path d="" fill="#000" transform="translate(0,0)"/>
<path d="" fill="#000" transform="translate(0,0)"/>
<path d="" fill="#000" transform="translate(0,0)"/>
<path d="" fill="#000" transform="translate(0,0)"/>
<path d="" fill="#000" transform="translate(0,0)"/>
<path d="" fill="#000" transform="translate(0,0)"/>
<path d="" fill="#000" transform="translate(0,0)"/>
<path d="" fill="#000" transform="translate(0,0)"/>
<path d="" fill="#000" transform="translate(0,0)"/>
<path d="" fill="#000" transform="translate(0,0)"/>
<path d="" fill="#000" transform="translate(0,0)"/>
<path d="" fill="#000" transform="translate(0,0)"/>
<path d="" fill="#000" transform="translate(0,0)"/>
<path d="" fill="#000" transform="translate(0,0)"/>
<path d="" fill="#000" transform="translate(0,0)"/>
<path d="" fill="#000" transform="translate(0,0)"/>
<path d="" fill="#000" transform="translate(0,0)"/>
<path d="M0 0 C3 1 3 1 3 1 Z " fill="#000" transform="translate(408,245)"/>
<path d="" fill="#000" transform="translate(0,0)"/>
<path d="" fill="#000" transform="translate(0,0)"/>
<path d="" fill="#000" transform="translate(0,0)"/>
<path d="M0 0 C3 1 3 1 3 1 Z " fill="#000" transform="translate(656,213)"/>
<path d="" fill="#000" transform="translate(0,0)"/>
<path d="" fill="#000" transform="translate(0,0)"/>
<path d="" fill="#000" transform="translate(0,0)"/>
<path d="" fill="#000" transform="translate(0,0)"/>
<path d="" fill="#000" transform="translate(0,0)"/>
<path d="" fill="#000" transform="translate(0,0)"/>
<path d="" fill="#000" transform="translate(0,0)"/>
<path d="" fill="#000" transform="translate(0,0)"/>
<path d="" fill="#000" transform="translate(0,0)"/>
<path d="" fill="#000" transform="translate(0,0)"/>
<path d="" fill="#000" transform="translate(0,0)"/>
<path d="" fill="#000" transform="translate(0,0)"/>
<path d="" fill="#000" transform="translate(0,0)"/>
<path d="" fill="#000" transform="translate(0,0)"/>
<path d="" fill="#000" transform="translate(0,0)"/>
<path d="" fill="#000" transform="translate(0,0)"/>
<path d="" fill="#000" transform="translate(0,0)"/>
<path d="" fill="#000" transform="translate(0,0)"/>
<path d="" fill="#000" transform="translate(0,0)"/>
<path d="" fill="#000" transform="translate(0,0)"/>
<path d="" fill="#000" transform="translate(0,0)"/>
<path d="" fill="#000" transform="translate(0,0)"/>
<path d="" fill="#000" transform="translate(0,0)"/>
<path d="" fill="#000" transform="translate(0,0)"/>
<path d="" fill="#000" transform="translate(0,0)"/>
<path d="" fill="#000" transform="translate(0,0)"/>
<path d="" fill="#000" transform="translate(0,0)"/>
<path d="" fill="#000" transform="translate(0,0)"/>
<path d="" fill="#000" transform="translate(0,0)"/>
<path d="" fill="#000" transform="translate(0,0)"/>
<path d="" fill="#000" transform="translate(0,0)"/>
<path d="" fill="#000" transform="translate(0,0)"/>
<path d="" fill="#000" transform="translate(0,0)"/>
<path d="" fill="#000" transform="translate(0,0)"/>
<path d="" fill="#000" transform="translate(0,0)"/>
<path d="" fill="#000" transform="translate(0,0)"/>
<path d="" fill="#000" transform="translate(0,0)"/>
<path d="" fill="#000" transform="translate(0,0)"/>
<path d="" fill="#000" transform="translate(0,0)"/>
<path d="" fill="#000" transform="translate(0,0)"/>
<path d="" fill="#000" transform="translate(0,0)"/>
<path d="" fill="#000" transform="translate(0,0)"/>
<path d="" fill="#000" transform="translate(0,0)"/>
<path d="" fill="#000" transform="translate(0,0)"/>
<path d="" fill="#000" transform="translate(0,0)"/>
<path d="" fill="#000" transform="translate(0,0)"/>
<path d="" fill="#000" transform="translate(0,0)"/>
<path d="" fill="#000" transform="translate(0,0)"/>
<path d="" fill="#000" transform="translate(0,0)"/>
<path d="" fill="#000" transform="translate(0,0)"/>
<path d="" fill="#000" transform="translate(0,0)"/>
<path d="" fill="#000" transform="translate(0,0)"/>
<path d="" fill="#000" transform="translate(0,0)"/>
<path d="" fill="#000" transform="translate(0,0)"/>
<path d="" fill="#000" transform="translate(0,0)"/>
<path d="" fill="#000" transform="translate(0,0)"/>
<path d="" fill="#000" transform="translate(0,0)"/>
<path d="" fill="#000" transform="translate(0,0)"/>
<path d="" fill="#000" transform="translate(0,0)"/>
<path d="" fill="#000" transform="translate(0,0)"/>
<path d="" fill="#000" transform="translate(0,0)"/>
<path d="" fill="#000" transform="translate(0,0)"/>
<path d="M0 0 C2 1 2 1 2 1 Z " fill="#000" transform="translate(1015,358)"/>
<path d="M0 0 C2 1 2 1 2 1 Z " fill="#000" transform="translate(669,355)"/>
<path d="M0 0 C2 1 2 1 2 1 Z " fill="#000" transform="translate(614,355)"/>
<path d="M0 0 C2 1 2 1 2 1 Z " fill="#000" transform="translate(612,354)"/>
<path d="M0 0 C2 1 2 1 2 1 Z " fill="#000" transform="translate(610,353)"/>
<path d="" fill="#000" transform="translate(0,0)"/>
<path d="" fill="#000" transform="translate(0,0)"/>
<path d="M0 0 C2 1 2 1 2 1 Z " fill="#000" transform="translate(681,349)"/>
<path d="" fill="#000" transform="translate(0,0)"/>
<path d="M0 0 C2 1 2 1 2 1 Z " fill="#000" transform="translate(683,348)"/>
<path d="" fill="#000" transform="translate(0,0)"/>
<path d="" fill="#000" transform="translate(0,0)"/>
<path d="" fill="#000" transform="translate(0,0)"/>
<path d="" fill="#000" transform="translate(0,0)"/>
<path d="" fill="#000" transform="translate(0,0)"/>
<path d="" fill="#000" transform="translate(0,0)"/>
<path d="" fill="#000" transform="translate(0,0)"/>
<path d="" fill="#000" transform="translate(0,0)"/>
<path d="" fill="#000" transform="translate(0,0)"/>
<path d="" fill="#000" transform="translate(0,0)"/>
<path d="" fill="#000" transform="translate(0,0)"/>
<path d="" fill="#000" transform="translate(0,0)"/>
<path d="" fill="#000" transform="translate(0,0)"/>
<path d="" fill="#000" transform="translate(0,0)"/>
<path d="" fill="#000" transform="translate(0,0)"/>
<path d="" fill="#000" transform="translate(0,0)"/>
<path d="" fill="#000" transform="translate(0,0)"/>
<path d="" fill="#000" transform="translate(0,0)"/>
<path d="" fill="#000" transform="translate(0,0)"/>
<path d="" fill="#000" transform="translate(0,0)"/>
<path d="" fill="#000" transform="translate(0,0)"/>
<path d="" fill="#000" transform="translate(0,0)"/>
<path d="" fill="#000" transform="translate(0,0)"/>
<path d="" fill="#000" transform="translate(0,0)"/>
<path d="" fill="#000" transform="translate(0,0)"/>
<path d="M0 0 C2 1 2 1 2 1 Z " fill="#000" transform="translate(406,244)"/>
<path d="M0 0 C2 1 2 1 2 1 Z " fill="#000" transform="translate(891,243)"/>
<path d="" fill="#000" transform="translate(0,0)"/>
<path d="" fill="#000" transform="translate(0,0)"/>
<path d="" fill="#000" transform="translate(0,0)"/>
<path d="" fill="#000" transform="translate(0,0)"/>
<path d="" fill="#000" transform="translate(0,0)"/>
<path d="" fill="#000" transform="translate(0,0)"/>
<path d="M0 0 C2 1 2 1 2 1 Z " fill="#000" transform="translate(611,220)"/>
<path d="" fill="#000" transform="translate(0,0)"/>
<path d="" fill="#000" transform="translate(0,0)"/>
<path d="" fill="#000" transform="translate(0,0)"/>
<path d="" fill="#000" transform="translate(0,0)"/>
<path d="" fill="#000" transform="translate(0,0)"/>
<path d="" fill="#000" transform="translate(0,0)"/>
<path d="" fill="#000" transform="translate(0,0)"/>
<path d="" fill="#000" transform="translate(0,0)"/>
<path d="" fill="#000" transform="translate(0,0)"/>
<path d="" fill="#000" transform="translate(0,0)"/>
<path d="" fill="#000" transform="translate(0,0)"/>
<path d="" fill="#000" transform="translate(0,0)"/>
<path d="" fill="#000" transform="translate(0,0)"/>
<path d="" fill="#000" transform="translate(0,0)"/>
<path d="" fill="#000" transform="translate(0,0)"/>
<path d="" fill="#000" transform="translate(0,0)"/>
<path d="" fill="#000" transform="translate(0,0)"/>
<path d="" fill="#000" transform="translate(0,0)"/>
<path d="" fill="#000" transform="translate(0,0)"/>
<path d="" fill="#000" transform="translate(0,0)"/>
<path d="" fill="#000" transform="translate(0,0)"/>
<path d="" fill="#000" transform="translate(0,0)"/>
<path d="" fill="#000" transform="translate(0,0)"/>
<path d="" fill="#000" transform="translate(0,0)"/>
<path d="" fill="#000" transform="translate(0,0)"/>
<path d="" fill="#000" transform="translate(0,0)"/>
<path d="" fill="#000" transform="translate(0,0)"/>
<path d="" fill="#000" transform="translate(0,0)"/>
<path d="" fill="#000" transform="translate(0,0)"/>
<path d="" fill="#000" transform="translate(0,0)"/>
<path d="" fill="#000" transform="translate(0,0)"/>
<path d="" fill="#000" transform="translate(0,0)"/>
<path d="" fill="#000" transform="translate(0,0)"/>
<path d="" fill="#000" transform="translate(0,0)"/>
<path d="" fill="#000" transform="translate(0,0)"/>
<path d="" fill="#000" transform="translate(0,0)"/>
<path d="" fill="#000" transform="translate(0,0)"/>
<path d="" fill="#000" transform="translate(0,0)"/>
<path d="" fill="#000" transform="translate(0,0)"/>
<path d="" fill="#000" transform="translate(0,0)"/>
<path d="" fill="#000" transform="translate(0,0)"/>
<path d="" fill="#000" transform="translate(0,0)"/>
<path d="" fill="#000" transform="translate(0,0)"/>
<path d="" fill="#000" transform="translate(0,0)"/>
<path d="" fill="#000" transform="translate(0,0)"/>
<path d="" fill="#000" transform="translate(0,0)"/>
<path d="" fill="#000" transform="translate(0,0)"/>
<path d="" fill="#000" transform="translate(0,0)"/>
<path d="" fill="#000" transform="translate(0,0)"/>
<path d="" fill="#000" transform="translate(0,0)"/>
<path d="" fill="#000" transform="translate(0,0)"/>
<path d="" fill="#000" transform="translate(0,0)"/>
<path d="" fill="#000" transform="translate(0,0)"/>
<path d="" fill="#000" transform="translate(0,0)"/>
<path d="" fill="#000" transform="translate(0,0)"/>
<path d="" fill="#000" transform="translate(0,0)"/>
<path d="" fill="#000" transform="translate(0,0)"/>
<path d="" fill="#000" transform="translate(0,0)"/>
<path d="" fill="#000" transform="translate(0,0)"/>
<path d="" fill="#000" transform="translate(0,0)"/>
<path d="" fill="#000" transform="translate(0,0)"/>
<path d="" fill="#000" transform="translate(0,0)"/>
<path d="" fill="#000" transform="translate(0,0)"/>
<path d="" fill="#000" transform="translate(0,0)"/>
<path d="" fill="#000" transform="translate(0,0)"/>
<path d="" fill="#000" transform="translate(0,0)"/>
<path d="" fill="#000" transform="translate(0,0)"/>
<path d="" fill="#000" transform="translate(0,0)"/>
<path d="" fill="#000" transform="translate(0,0)"/>
<path d="" fill="#000" transform="translate(0,0)"/>
<path d="" fill="#000" transform="translate(0,0)"/>
<path d="" fill="#000" transform="translate(0,0)"/>
<path d="" fill="#000" transform="translate(0,0)"/>
<path d="" fill="#000" transform="translate(0,0)"/>
<path d="" fill="#000" transform="translate(0,0)"/>
<path d="" fill="#000" transform="translate(0,0)"/>
<path d="" fill="#000" transform="translate(0,0)"/>
<path d="" fill="#000" transform="translate(0,0)"/>
<path d="" fill="#000" transform="translate(0,0)"/>
<path d="" fill="#000" transform="translate(0,0)"/>
<path d="" fill="#000" transform="translate(0,0)"/>
<path d="" fill="#000" transform="translate(0,0)"/>
<path d="" fill="#000" transform="translate(0,0)"/>
<path d="" fill="#000" transform="translate(0,0)"/>
<path d="" fill="#000" transform="translate(0,0)"/>
<path d="" fill="#000" transform="translate(0,0)"/>
<path d="" fill="#000" transform="translate(0,0)"/>
<path d="" fill="#000" transform="translate(0,0)"/>
<path d="" fill="#000" transform="translate(0,0)"/>
<path d="" fill="#000" transform="translate(0,0)"/>
<path d="" fill="#000" transform="translate(0,0)"/>
<path d="" fill="#000" transform="translate(0,0)"/>
<path d="" fill="#000" transform="translate(0,0)"/>
<path d="" fill="#000" transform="translate(0,0)"/>
<path d="" fill="#000" transform="translate(0,0)"/>
<path d="" fill="#000" transform="translate(0,0)"/>
<path d="" fill="#000" transform="translate(0,0)"/>
<path d="" fill="#000" transform="translate(0,0)"/>
<path d="" fill="#000" transform="translate(0,0)"/>
<path d="" fill="#000" transform="translate(0,0)"/>
<path d="" fill="#000" transform="translate(0,0)"/>
<path d="" fill="#000" transform="translate(0,0)"/>
<path d="" fill="#000" transform="translate(0,0)"/>
<path d="" fill="#000" transform="translate(0,0)"/>
<path d="" fill="#000" transform="translate(0,0)"/>
<path d="" fill="#000" transform="translate(0,0)"/>
<path d="" fill="#000" transform="translate(0,0)"/>
<path d="" fill="#000" transform="translate(0,0)"/>
<path d="" fill="#000" transform="translate(0,0)"/>
<path d="" fill="#000" transform="translate(0,0)"/>
<path d="" fill="#000" transform="translate(0,0)"/>
<path d="" fill="#000" transform="translate(0,0)"/>
<path d="" fill="#000" transform="translate(0,0)"/>
<path d="" fill="#000" transform="translate(0,0)"/>
<path d="" fill="#000" transform="translate(0,0)"/>
<path d="" fill="#000" transform="translate(0,0)"/>
<path d="" fill="#000" transform="translate(0,0)"/>
<path d="" fill="#000" transform="translate(0,0)"/>
<path d="" fill="#000" transform="translate(0,0)"/>
<path d="" fill="#000" transform="translate(0,0)"/>
<path d="" fill="#000" transform="translate(0,0)"/>
<path d="" fill="#000" transform="translate(0,0)"/>
<path d="" fill="#000" transform="translate(0,0)"/>
<path d="" fill="#000" transform="translate(0,0)"/>
<path d="" fill="#000" transform="translate(0,0)"/>
<path d="" fill="#000" transform="translate(0,0)"/>
<path d="" fill="#000" transform="translate(0,0)"/>
<path d="" fill="#000" transform="translate(0,0)"/>
<path d="" fill="#000" transform="translate(0,0)"/>
<path d="" fill="#000" transform="translate(0,0)"/>
<path d="" fill="#000" transform="translate(0,0)"/>
<path d="" fill="#000" transform="translate(0,0)"/>
<path d="" fill="#000" transform="translate(0,0)"/>
<path d="" fill="#000" transform="translate(0,0)"/>
<path d="" fill="#000" transform="translate(0,0)"/>
<path d="" fill="#000" transform="translate(0,0)"/>
<path d="" fill="#000" transform="translate(0,0)"/>
<path d="" fill="#000" transform="translate(0,0)"/>
<path d="" fill="#000" transform="translate(0,0)"/>
<path d="" fill="#000" transform="translate(0,0)"/>
<path d="" fill="#000" transform="translate(0,0)"/>
<path d="" fill="#000" transform="translate(0,0)"/>
<path d="" fill="#000" transform="translate(0,0)"/>
<path d="" fill="#000" transform="translate(0,0)"/>
<path d="" fill="#000" transform="translate(0,0)"/>
<path d="" fill="#000" transform="translate(0,0)"/>
<path d="" fill="#000" transform="translate(0,0)"/>
<path d="" fill="#000" transform="translate(0,0)"/>
<path d="" fill="#000" transform="translate(0,0)"/>
<path d="" fill="#000" transform="translate(0,0)"/>
<path d="" fill="#000" transform="translate(0,0)"/>
<path d="" fill="#000" transform="translate(0,0)"/>
<path d="" fill="#000" transform="translate(0,0)"/>
<path d="" fill="#000" transform="translate(0,0)"/>
<path d="" fill="#000" transform="translate(0,0)"/>
<path d="" fill="#000" transform="translate(0,0)"/>
<path d="" fill="#000" transform="translate(0,0)"/>
<path d="" fill="#000" transform="translate(0,0)"/>
<path d="" fill="#000" transform="translate(0,0)"/>
<path d="" fill="#000" transform="translate(0,0)"/>
<path d="" fill="#000" transform="translate(0,0)"/>
<path d="" fill="#000" transform="translate(0,0)"/>
<path d="" fill="#000" transform="translate(0,0)"/>
<path d="" fill="#000" transform="translate(0,0)"/>
<path d="" fill="#000" transform="translate(0,0)"/>
<path d="" fill="#000" transform="translate(0,0)"/>
<path d="" fill="#000" transform="translate(0,0)"/>
<path d="" fill="#000" transform="translate(0,0)"/>
<path d="" fill="#000" transform="translate(0,0)"/>
<path d="" fill="#000" transform="translate(0,0)"/>
<path d="" fill="#000" transform="translate(0,0)"/>
<path d="" fill="#000" transform="translate(0,0)"/>
<path d="" fill="#000" transform="translate(0,0)"/>
<path d="" fill="#000" transform="translate(0,0)"/>
<path d="" fill="#000" transform="translate(0,0)"/>
<path d="" fill="#000" transform="translate(0,0)"/>
<path d="" fill="#000" transform="translate(0,0)"/>
<path d="" fill="#000" transform="translate(0,0)"/>
<path d="" fill="#000" transform="translate(0,0)"/>
<path d="" fill="#000" transform="translate(0,0)"/>
<path d="" fill="#000" transform="translate(0,0)"/>
<path d="" fill="#000" transform="translate(0,0)"/>
<path d="" fill="#000" transform="translate(0,0)"/>
<path d="" fill="#000" transform="translate(0,0)"/>
<path d="" fill="#000" transform="translate(0,0)"/>
<path d="" fill="#000" transform="translate(0,0)"/>
<path d="" fill="#000" transform="translate(0,0)"/>
<path d="" fill="#000" transform="translate(0,0)"/>
<path d="" fill="#000" transform="translate(0,0)"/>
<path d="" fill="#000" transform="translate(0,0)"/>
<path d="" fill="#000" transform="translate(0,0)"/>
<path d="" fill="#000" transform="translate(0,0)"/>
</svg>
